<svg width="50" height="50" viewBox="0 0 50 50" fill="none" xmlns="http://www.w3.org/2000/svg">
<path d="M45.6439 11.719C45.6439 8.98062 44.4909 6.3869 42.329 4.36913C38.4375 0.765955 31.9518 0.765955 28.0603 4.36913L25.322 6.81886L22.5835 4.36913C18.6921 0.765955 12.2064 0.765955 8.31499 4.36913C6.15309 6.3869 5 9.12475 5 11.719" stroke="#316DFF" stroke-width="1.5" stroke-miterlimit="10" stroke-linecap="round" stroke-linejoin="round"/>
<path d="M45.6439 11.719C45.6439 20.5107 42.0407 24.691 40.167 29.5913C38.2934 34.4916 37.5727 47.7507 33.3931 47.7507C30.6546 47.7507 29.6458 41.9861 29.3575 38.0946C29.2134 35.9327 27.4839 34.3472 25.322 34.3472C23.1601 34.3472 21.4306 35.9327 21.2864 38.0946C20.9982 41.9861 19.9892 47.7507 17.2508 47.7507C13.0711 47.7507 12.3506 34.4916 10.4769 29.5913C8.60325 24.691 5 20.5107 5 11.719" stroke="#316DFF" stroke-width="1.5" stroke-miterlimit="10" stroke-linecap="round" stroke-linejoin="round"/>
<path d="M25.3208 6.81885L22.7266 9.41355" stroke="#316DFF" stroke-width="1.5" stroke-miterlimit="10" stroke-linecap="round" stroke-linejoin="round"/>
</svg>
