<svg width="30" height="30" viewBox="0 0 30 30" fill="none" xmlns="http://www.w3.org/2000/svg">
<path d="M27.3863 7.03137C27.3863 5.38832 26.6945 3.83209 25.3974 2.62143C23.0625 0.459524 19.1711 0.459524 16.8362 2.62143L15.1932 4.09127L13.5501 2.62143C11.2153 0.459524 7.32386 0.459524 4.989 2.62143C3.69185 3.83209 3 5.4748 3 7.03137" stroke="white" stroke-width="1.5" stroke-miterlimit="10" stroke-linecap="round" stroke-linejoin="round"/>
<path d="M27.3863 7.03125C27.3863 12.3063 25.2244 14.8144 24.1002 17.7546C22.976 20.6948 22.5436 28.6503 20.0358 28.6503C18.3928 28.6503 17.7875 25.1915 17.6145 22.8566C17.528 21.5595 16.4903 20.6082 15.1932 20.6082C13.896 20.6082 12.8583 21.5595 12.7719 22.8566C12.5989 25.1915 11.9935 28.6503 10.3505 28.6503C7.84267 28.6503 7.41033 20.6948 6.28614 17.7546C5.16195 14.8144 3 12.3063 3 7.03125" stroke="white" stroke-width="1.5" stroke-miterlimit="10" stroke-linecap="round" stroke-linejoin="round"/>
<path d="M15.1933 4.09131L13.6367 5.64813" stroke="white" stroke-width="1.5" stroke-miterlimit="10" stroke-linecap="round" stroke-linejoin="round"/>
</svg>
