<svg width="30" height="30" viewBox="0 0 30 30" fill="none" xmlns="http://www.w3.org/2000/svg">
<path d="M22.8002 3.30005H7.20022C6.84057 3.30992 6.48829 3.4043 6.17187 3.57554C5.85545 3.74678 5.58376 3.99008 5.37879 4.28576L1.47879 9.68576C1.18919 10.095 1.04457 10.5892 1.06786 11.09C1.09115 11.5908 1.28103 12.0695 1.60736 12.45L13.3074 25.9286C13.5077 26.1867 13.7643 26.3956 14.0577 26.5393C14.3511 26.683 14.6735 26.7577 15.0002 26.7577C15.3269 26.7577 15.6493 26.683 15.9427 26.5393C16.2361 26.3956 16.4928 26.1867 16.6931 25.9286L28.3931 12.45C28.7194 12.0695 28.9093 11.5908 28.9326 11.09C28.9559 10.5892 28.8112 10.095 28.5216 9.68576L24.6216 4.28576C24.4167 3.99008 24.145 3.74678 23.8286 3.57554C23.5121 3.4043 23.1599 3.30992 22.8002 3.30005V3.30005Z" stroke="white" stroke-width="1.5" stroke-linecap="round" stroke-linejoin="round"/>
<path d="M13.8858 3.27856L8.65723 11.3786L15.0001 26.7" stroke="white" stroke-width="1.5" stroke-linecap="round" stroke-linejoin="round"/>
<path d="M16.1786 3.27856L21.3857 11.3786L15 26.7" stroke="white" stroke-width="1.5" stroke-linecap="round" stroke-linejoin="round"/>
<path d="M1.11426 11.3787H28.8857" stroke="white" stroke-width="1.5" stroke-linecap="round" stroke-linejoin="round"/>
</svg>
