<svg width="60" height="60" viewBox="0 0 60 60" fill="none" xmlns="http://www.w3.org/2000/svg">
<path d="M18.8908 7.61719H13.1196C11.4038 7.61719 10 9.02099 10 10.7368V54.8791C10 56.5949 11.4038 57.9987 13.1196 57.9987H47.2794C48.9952 57.9987 50.3991 56.5949 50.3991 54.8791V10.7368C50.3991 9.02099 48.9952 7.61719 47.2794 7.61719H41.508" stroke="#316DFF" stroke-width="2" stroke-miterlimit="10" stroke-linecap="round" stroke-linejoin="round"/>
<path d="M33.5535 5.43107C33.5535 3.55933 31.9938 2 30.122 2C28.2503 2 26.6903 3.55933 26.6903 5.43107H18.7354V13.5422H41.3526V5.43107H33.5535Z" stroke="#316DFF" stroke-width="2" stroke-miterlimit="10" stroke-linecap="round" stroke-linejoin="round"/>
<path d="M16.5513 34.4458H23.5704L27.4699 43.1807L33.7092 25.5547L37.7648 34.4458H43.8479" stroke="#316DFF" stroke-width="2" stroke-miterlimit="10" stroke-linecap="round" stroke-linejoin="round"/>
</svg>
