<svg width="25" height="25" viewBox="0 0 25 25" fill="none" xmlns="http://www.w3.org/2000/svg">
<path d="M20.478 19.8103H23.0656C23.5687 19.8103 24 19.3792 24 18.8761V14.9232C24 14.2763 23.4968 13.7731 22.8499 13.7731H13.7936V5.86719H1.93441C1.43128 5.86719 1 6.29863 1 6.80174V18.9481C1 19.4512 1.43128 19.8823 1.93441 19.8823H4.30622" stroke="white" stroke-width="1.5" stroke-miterlimit="10" stroke-linecap="round" stroke-linejoin="round"/>
<path d="M8.1875 19.8125H16.5249" stroke="white" stroke-width="1.5" stroke-miterlimit="10" stroke-linecap="round" stroke-linejoin="round"/>
<path d="M13.7217 8.02344H18.0342L22.131 13.7732" stroke="white" stroke-width="1.5" stroke-miterlimit="10" stroke-linecap="round" stroke-linejoin="round"/>
<path d="M6.17513 21.8218C7.28659 21.8218 8.18765 20.9206 8.18765 19.8092C8.18765 18.6977 7.28659 17.7969 6.17513 17.7969C5.06366 17.7969 4.1626 18.6977 4.1626 19.8092C4.1626 20.9206 5.06366 21.8218 6.17513 21.8218Z" stroke="white" stroke-width="1.5" stroke-miterlimit="10" stroke-linecap="round" stroke-linejoin="round"/>
<path d="M18.5374 21.8218C19.6489 21.8218 20.55 20.9206 20.55 19.8092C20.55 18.6977 19.6489 17.7969 18.5374 17.7969C17.426 17.7969 16.5249 18.6977 16.5249 19.8092C16.5249 20.9206 17.426 21.8218 18.5374 21.8218Z" stroke="white" stroke-width="1.5" stroke-miterlimit="10" stroke-linecap="round" stroke-linejoin="round"/>
<path d="M4.7373 11.043H10.3436" stroke="white" stroke-width="1.5" stroke-miterlimit="10" stroke-linecap="round" stroke-linejoin="round"/>
<path d="M7.54053 13.8458V8.16797" stroke="white" stroke-width="1.5" stroke-miterlimit="10" stroke-linecap="round" stroke-linejoin="round"/>
<path d="M8.90641 5.79681H5.95947V5.43745C5.95947 4.64685 6.60635 4 7.39697 4C8.18759 4 8.83446 4.64685 8.83446 5.43745V5.79681H8.90641Z" stroke="white" stroke-width="1.5" stroke-miterlimit="10" stroke-linecap="round" stroke-linejoin="round"/>
</svg>
