<svg width="60" height="60" viewBox="0 0 60 60" fill="none" xmlns="http://www.w3.org/2000/svg">
<path d="M49.1472 47.5495H55.3573C56.5648 47.5495 57.5999 46.5149 57.5999 45.3074V35.8203C57.5999 34.2678 56.3922 33.0602 54.8397 33.0602H33.1047V14.0859H4.64248C3.43498 14.0859 2.3999 15.1214 2.3999 16.3289V45.4801C2.3999 46.6875 3.43498 47.7222 4.64248 47.7222H10.3348" stroke="#316DFF" stroke-width="2" stroke-miterlimit="10" stroke-linecap="round" stroke-linejoin="round"/>
<path d="M19.6499 47.5508H39.6596" stroke="#316DFF" stroke-width="2" stroke-miterlimit="10" stroke-linecap="round" stroke-linejoin="round"/>
<path d="M32.9321 19.2617H43.2821L53.1145 33.0612" stroke="#316DFF" stroke-width="2" stroke-miterlimit="10" stroke-linecap="round" stroke-linejoin="round"/>
<path d="M14.8203 52.3785C17.4878 52.3785 19.6504 50.2157 19.6504 47.5482C19.6504 44.8808 17.4878 42.7188 14.8203 42.7188C12.1528 42.7188 9.99023 44.8808 9.99023 47.5482C9.99023 50.2157 12.1528 52.3785 14.8203 52.3785Z" stroke="#316DFF" stroke-width="2" stroke-miterlimit="10" stroke-linecap="round" stroke-linejoin="round"/>
<path d="M44.4897 52.3785C47.1573 52.3785 49.3198 50.2157 49.3198 47.5482C49.3198 44.8808 47.1573 42.7188 44.4897 42.7188C41.8222 42.7188 39.6597 44.8808 39.6597 47.5482C39.6597 50.2157 41.8222 52.3785 44.4897 52.3785Z" stroke="#316DFF" stroke-width="2" stroke-miterlimit="10" stroke-linecap="round" stroke-linejoin="round"/>
<path d="M11.3696 26.5H24.8247" stroke="#316DFF" stroke-width="2" stroke-miterlimit="10" stroke-linecap="round" stroke-linejoin="round"/>
<path d="M18.0972 33.2284V19.6016" stroke="#316DFF" stroke-width="2" stroke-miterlimit="10" stroke-linecap="round" stroke-linejoin="round"/>
<path d="M21.3754 13.9139H14.3027V13.0514C14.3027 11.154 15.8552 9.60156 17.7527 9.60156C19.6502 9.60156 21.2027 11.154 21.2027 13.0514V13.9139H21.3754Z" stroke="#316DFF" stroke-width="2" stroke-miterlimit="10" stroke-linecap="round" stroke-linejoin="round"/>
</svg>
