<svg width="40" height="40" viewBox="0 0 40 40" fill="none" xmlns="http://www.w3.org/2000/svg">
<path d="M36.5151 9.37532C36.5151 7.1846 35.5927 5.10962 33.8632 3.4954C30.75 0.612862 25.5614 0.612862 22.4483 3.4954L20.2576 5.45519L18.0668 3.4954C14.9537 0.612862 9.76514 0.612862 6.65199 3.4954C4.92247 5.10962 4 7.2999 4 9.37532" stroke="#316DFF" stroke-width="1.5" stroke-miterlimit="10" stroke-linecap="round" stroke-linejoin="round"/>
<path d="M36.5151 9.37549C36.5151 16.4089 33.6326 19.7531 32.1336 23.6733C30.6347 27.5936 30.0582 38.2009 26.7144 38.2009C24.5237 38.2009 23.7166 33.5891 23.486 30.476C23.3707 28.7465 21.9871 27.478 20.2576 27.478C18.5281 27.478 17.1444 28.7465 17.0291 30.476C16.7985 33.5891 15.9914 38.2009 13.8006 38.2009C10.4569 38.2009 9.88044 27.5936 8.38152 23.6733C6.8826 19.7531 4 16.4089 4 9.37549" stroke="#316DFF" stroke-width="1.5" stroke-miterlimit="10" stroke-linecap="round" stroke-linejoin="round"/>
<path d="M20.2551 5.45508L18.1797 7.53084" stroke="#316DFF" stroke-width="1.5" stroke-miterlimit="10" stroke-linecap="round" stroke-linejoin="round"/>
</svg>
