<svg width="50" height="50" viewBox="0 0 50 50" fill="none" xmlns="http://www.w3.org/2000/svg">
<ellipse cx="19.0085" cy="31.6764" rx="0.644259" ry="0.645151" fill="#316DFF"/>
<ellipse cx="23.0031" cy="31.6764" rx="0.644259" ry="0.645151" fill="#316DFF"/>
<ellipse cx="26.9978" cy="31.6764" rx="0.644259" ry="0.645151" fill="#316DFF"/>
<ellipse cx="30.8635" cy="31.6764" rx="0.644259" ry="0.645151" fill="#316DFF"/>
<ellipse cx="20.9411" cy="34.8991" rx="0.644259" ry="0.645151" fill="#316DFF"/>
<ellipse cx="24.9358" cy="34.8991" rx="0.644259" ry="0.645151" fill="#316DFF"/>
<ellipse cx="28.9304" cy="34.8991" rx="0.644259" ry="0.645151" fill="#316DFF"/>
<ellipse cx="23.0036" cy="38.1256" rx="0.644259" ry="0.645151" fill="#316DFF"/>
<ellipse cx="26.9983" cy="38.1256" rx="0.644259" ry="0.645151" fill="#316DFF"/>
<ellipse cx="23.0036" cy="27.8053" rx="0.644259" ry="0.645151" fill="#316DFF"/>
<ellipse cx="26.9988" cy="27.8053" rx="0.644259" ry="0.645151" fill="#316DFF"/>
<ellipse cx="24.9363" cy="41.3522" rx="0.644259" ry="0.645151" fill="#316DFF"/>
<path d="M11.4062 30.6451L4.31933 23.5484C1.22689 20.4517 1.22689 15.4193 4.31933 12.3225C7.41178 9.22582 12.4369 9.22582 15.5294 12.3225L22.6162 19.4192" stroke="#316DFF" stroke-width="1.5" stroke-miterlimit="10" stroke-linecap="round" stroke-linejoin="round"/>
<path d="M6.12337 21.7416C4.06174 19.6771 4.06174 16.1934 6.12337 14.1289" stroke="#316DFF" stroke-width="1.5" stroke-miterlimit="10" stroke-linecap="round" stroke-linejoin="round"/>
<path d="M18.9985 27.096C22.1183 23.9719 23.7497 20.5405 22.6427 19.4319C21.5357 18.3234 18.1095 19.9575 14.9897 23.0816C11.8699 26.2057 10.238 29.6367 11.345 30.7452C12.452 31.8538 15.8787 30.2201 18.9985 27.096Z" stroke="#316DFF" stroke-width="1.5" stroke-miterlimit="10" stroke-linecap="round" stroke-linejoin="round"/>
<path d="M27.3843 19.4192L34.4711 12.3225C37.5636 9.22582 42.5887 9.22582 45.6812 12.3225C48.7736 15.4193 48.7736 20.4517 45.6812 23.5484L38.5943 30.6451" stroke="#316DFF" stroke-width="1.5" stroke-miterlimit="10" stroke-linecap="round" stroke-linejoin="round"/>
<path d="M30.8524 27.0187C33.9722 30.1428 37.3989 31.7765 38.5059 30.6679C39.6129 29.5594 37.981 26.1284 34.8612 23.0043C31.7415 19.8802 28.3152 18.2461 27.2082 19.3546C26.1012 20.4632 27.7327 23.8946 30.8524 27.0187Z" stroke="#316DFF" stroke-width="1.5" stroke-miterlimit="10" stroke-linecap="round" stroke-linejoin="round"/>
</svg>
