<svg width="30" height="31" viewBox="0 0 30 31" fill="none" xmlns="http://www.w3.org/2000/svg">
<path d="M18.5998 10.5491L16.6748 13.874L12.2998 11.3365L17.5498 2.32422L21.9248 4.86163L20.1748 7.92413" stroke="#626467" stroke-miterlimit="10" stroke-linecap="round" stroke-linejoin="round"/>
<path d="M19.3875 10.8118C20.2574 10.8118 20.9625 10.1068 20.9625 9.23694C20.9625 8.36709 20.2574 7.66211 19.3875 7.66211C18.5177 7.66211 17.8125 8.36709 17.8125 9.23694C17.8125 10.1068 18.5177 10.8118 19.3875 10.8118Z" stroke="#626467" stroke-miterlimit="10" stroke-linecap="round" stroke-linejoin="round"/>
<path d="M21.1589 2.6049L19.416 1.59863L18.6284 2.9628L20.3712 3.96908L21.1589 2.6049Z" stroke="#626467" stroke-miterlimit="10" stroke-linecap="round" stroke-linejoin="round"/>
<path d="M18.3374 1.01172L22.6249 3.46155" stroke="#626467" stroke-miterlimit="10" stroke-linecap="round" stroke-linejoin="round"/>
<path d="M11.7749 12.2988L16.1499 14.8362" stroke="#626467" stroke-miterlimit="10" stroke-linecap="round" stroke-linejoin="round"/>
<path d="M14.8288 13.934L13.0859 12.9277L12.2983 14.2919L14.0412 15.2982L14.8288 13.934Z" stroke="#626467" stroke-miterlimit="10" stroke-linecap="round" stroke-linejoin="round"/>
<path d="M20.8752 10.0244C22.8877 11.6869 24.2002 14.1368 24.2002 16.9368C24.2002 21.8368 20.2627 25.7744 15.3627 25.7744C12.5627 25.7744 10.1127 24.4621 8.4502 22.4496" stroke="#626467" stroke-miterlimit="10" stroke-linecap="round" stroke-linejoin="round"/>
<path d="M18.4251 25.3369L19.5626 29.0121H11.1626L12.3001 25.3369" stroke="#626467" stroke-miterlimit="10" stroke-linecap="round" stroke-linejoin="round"/>
<path d="M10.8125 21.1367H6V22.4492H10.8125V21.1367Z" stroke="#626467" stroke-miterlimit="10" stroke-linecap="round" stroke-linejoin="round"/>
</svg>
