<svg width="20" height="20" viewBox="0 0 20 20" fill="none" xmlns="http://www.w3.org/2000/svg">
<g clip-path="url(#clip0_138_3534)">
<path d="M12.5142 18.5715C13.3939 19.139 14.4422 19.3863 15.4829 19.2719C16.5236 19.1574 17.4931 18.6881 18.2284 17.9429L18.8713 17.3143C19.1531 17.026 19.3109 16.6389 19.3109 16.2357C19.3109 15.8326 19.1531 15.4454 18.8713 15.1572L16.1427 12.4572C15.8569 12.1762 15.4721 12.0188 15.0713 12.0188C14.6705 12.0188 14.2857 12.1762 13.9999 12.4572V12.4572C13.7116 12.739 13.3245 12.8968 12.9213 12.8968C12.5181 12.8968 12.131 12.739 11.8427 12.4572L7.55701 8.17145C7.41404 8.03056 7.30051 7.86265 7.22302 7.67749C7.14552 7.49233 7.10562 7.29361 7.10562 7.09288C7.10562 6.89216 7.14552 6.69344 7.22302 6.50827C7.30051 6.32311 7.41404 6.1552 7.55701 6.01431V6.01431C7.83794 5.72845 7.99536 5.34368 7.99536 4.94288C7.99536 4.54208 7.83794 4.15732 7.55701 3.87145L4.84272 1.15717C4.55445 0.875332 4.16731 0.717529 3.76415 0.717529C3.361 0.717529 2.97386 0.875332 2.68558 1.15717L2.05701 1.80002C1.31179 2.53537 0.842487 3.50489 0.728014 4.54555C0.613541 5.58621 0.860878 6.63456 1.42844 7.51431C4.38564 11.8725 8.14835 15.6255 12.5142 18.5715V18.5715Z" stroke="white" stroke-linecap="round" stroke-linejoin="round"/>
</g>
<defs>
<clipPath id="clip0_138_3534">
<rect width="20" height="20" fill="white"/>
</clipPath>
</defs>
</svg>
