<svg width="60" height="60" viewBox="0 0 60 60" fill="none" xmlns="http://www.w3.org/2000/svg">
<path d="M6.42878 25.7148H10.7145C11.2828 25.7148 11.8279 25.9406 12.2297 26.3425C12.6316 26.7443 12.8574 27.2894 12.8574 27.8577V38.572C12.8574 39.1403 12.6316 39.6854 12.2297 40.0872C11.8279 40.4891 11.2828 40.7148 10.7145 40.7148H6.42878C5.29214 40.7148 4.20205 40.2633 3.39832 39.4596C2.5946 38.6559 2.14307 37.5658 2.14307 36.4291V30.0006C2.14307 28.8639 2.5946 27.7738 3.39832 26.9701C4.20205 26.1664 5.29214 25.7148 6.42878 25.7148V25.7148Z" stroke="white" stroke-width="2" stroke-linecap="round" stroke-linejoin="round"/>
<path d="M53.5717 40.7148H49.286C48.7177 40.7148 48.1726 40.4891 47.7708 40.0872C47.3689 39.6854 47.1431 39.1403 47.1431 38.572V27.8577C47.1431 27.2894 47.3689 26.7443 47.7708 26.3425C48.1726 25.9406 48.7177 25.7148 49.286 25.7148H53.5717C54.7083 25.7148 55.7984 26.1664 56.6022 26.9701C57.4059 27.7738 57.8574 28.8639 57.8574 30.0006V36.4291C57.8574 37.5658 57.4059 38.6559 56.6022 39.4596C55.7984 40.2633 54.7083 40.7148 53.5717 40.7148V40.7148Z" stroke="white" stroke-width="2" stroke-linecap="round" stroke-linejoin="round"/>
<path d="M40.7144 52.5006C42.9876 52.5006 45.1678 51.5975 46.7753 49.99C48.3827 48.3826 49.2858 46.2024 49.2858 43.9291V40.7148" stroke="white" stroke-width="2" stroke-linecap="round" stroke-linejoin="round"/>
<path d="M35.3574 47.1445C36.7782 47.1445 38.1408 47.7089 39.1454 48.7136C40.1501 49.7183 40.7145 51.0809 40.7145 52.5017C40.7145 53.9225 40.1501 55.2851 39.1454 56.2897C38.1408 57.2944 36.7782 57.8588 35.3574 57.8588H28.9288C27.508 57.8588 26.1454 57.2944 25.1407 56.2897C24.1361 55.2851 23.5717 53.9225 23.5717 52.5017C23.5717 51.0809 24.1361 49.7183 25.1407 48.7136C26.1454 47.7089 27.508 47.1445 28.9288 47.1445H35.3574Z" stroke="white" stroke-width="2" stroke-linecap="round" stroke-linejoin="round"/>
<path d="M10.7145 25.716V21.4302C10.7145 16.3154 12.7464 11.41 16.3631 7.79319C19.9799 4.17641 24.8853 2.14453 30.0002 2.14453C35.1151 2.14453 40.0205 4.17641 43.6373 7.79319C47.254 11.41 49.2859 16.3154 49.2859 21.4302V25.716" stroke="white" stroke-width="2" stroke-linecap="round" stroke-linejoin="round"/>
<path d="M23.5717 17.1445V23.5731" stroke="white" stroke-width="2" stroke-linecap="round" stroke-linejoin="round"/>
<path d="M36.4288 17.1445V23.5731" stroke="white" stroke-width="2" stroke-linecap="round" stroke-linejoin="round"/>
<path d="M23.5717 32.1445C23.5717 37.8445 36.4288 37.8445 36.4288 32.1445" stroke="white" stroke-width="2" stroke-linecap="round" stroke-linejoin="round"/>
</svg>
