<svg width="26" height="26" viewBox="0 0 26 26" fill="none" xmlns="http://www.w3.org/2000/svg">
<path d="M23.3219 6.36013C23.3219 4.99092 22.7454 3.69406 21.6645 2.68517C19.7188 0.883588 16.4759 0.883588 14.5302 2.68517L13.161 3.91004L11.7918 2.68517C9.84605 0.883588 6.60321 0.883588 4.6575 2.68517C3.57654 3.69406 3 5.06299 3 6.36013" stroke="white" stroke-width="1.5" stroke-miterlimit="10" stroke-linecap="round" stroke-linejoin="round"/>
<path d="M23.3219 6.35938C23.3219 10.7552 21.5203 12.8454 20.5835 15.2955C19.6467 17.7457 19.2864 24.3752 17.1965 24.3752C15.8273 24.3752 15.3229 21.4929 15.1788 19.5472C15.1067 18.4662 14.2419 17.6735 13.161 17.6735C12.08 17.6735 11.2153 18.4662 11.1432 19.5472C10.9991 21.4929 10.4946 24.3752 9.1254 24.3752C7.03556 24.3752 6.67528 17.7457 5.73845 15.2955C4.80162 12.8454 3 10.7552 3 6.35938" stroke="white" stroke-width="1.5" stroke-miterlimit="10" stroke-linecap="round" stroke-linejoin="round"/>
<path d="M13.1614 3.91016L11.8643 5.20751" stroke="white" stroke-width="2" stroke-miterlimit="10" stroke-linecap="round" stroke-linejoin="round"/>
</svg>
