<svg width="60" height="60" viewBox="0 0 60 60" fill="none" xmlns="http://www.w3.org/2000/svg">
<path d="M13.2004 8.30017C14.9401 8.30017 16.3505 6.88936 16.3505 5.14966C16.3505 3.40996 14.9401 2 13.2004 2C11.4607 2 10.0503 3.40996 10.0503 5.14966C10.0503 6.88936 11.4607 8.30017 13.2004 8.30017Z" stroke="#316DFF" stroke-width="2" stroke-miterlimit="10" stroke-linecap="round" stroke-linejoin="round"/>
<path d="M31.9255 8.30017C33.6652 8.30017 35.0756 6.88936 35.0756 5.14966C35.0756 3.40996 33.6652 2 31.9255 2C30.1858 2 28.7754 3.40996 28.7754 5.14966C28.7754 6.88936 30.1858 8.30017 31.9255 8.30017Z" stroke="#316DFF" stroke-width="2" stroke-miterlimit="10" stroke-linecap="round" stroke-linejoin="round"/>
<path d="M10.0504 5.15625L8.12519 6.55676C4.27519 9.35676 2.87554 14.4318 4.97554 18.8068C8.12553 25.2818 13.9003 33.5066 22.6503 33.5066" stroke="#316DFF" stroke-width="2" stroke-miterlimit="10" stroke-linecap="round" stroke-linejoin="round"/>
<path d="M35.075 5.15625L36.9997 6.55676C40.8497 9.35676 42.2498 14.4318 40.1498 18.8068C36.9998 25.2818 31.2251 33.5066 22.4751 33.5066" stroke="#316DFF" stroke-width="2" stroke-miterlimit="10" stroke-linecap="round" stroke-linejoin="round"/>
<path d="M52.7503 34.375V42.9498C52.7503 51.3498 45.9255 58 37.7006 58C29.3006 58 22.6504 51.1748 22.6504 42.9498V34.375" stroke="#316DFF" stroke-width="2" stroke-miterlimit="10" stroke-linecap="round" stroke-linejoin="round"/>
<path d="M52.7507 33.6752C54.9737 33.6752 56.7758 31.8726 56.7758 29.6497C56.7758 27.4267 54.9737 25.625 52.7507 25.625C50.5278 25.625 48.7261 27.4267 48.7261 29.6497C48.7261 31.8726 50.5278 33.6752 52.7507 33.6752Z" stroke="#316DFF" stroke-width="2" stroke-miterlimit="10" stroke-linecap="round" stroke-linejoin="round"/>
</svg>
