<svg width="30" height="31" viewBox="0 0 30 31" fill="none" xmlns="http://www.w3.org/2000/svg">
<path d="M13.3041 27.0809C12.3386 27.6954 11.1974 28.134 9.96861 28.134C6.63317 28.134 4 25.5009 4 22.1655V6.98065C4 3.64521 6.63317 1.01172 9.96861 1.01172C13.304 1.01172 15.9373 3.64521 15.9373 6.98065V15.2314" stroke="#626467" stroke-miterlimit="10" stroke-linecap="round" stroke-linejoin="round"/>
<path d="M4 14.5293H15.9373" stroke="#626467" stroke-miterlimit="10" stroke-linecap="round" stroke-linejoin="round"/>
<path d="M5.93115 7.06854C5.93115 4.87417 7.7744 3.03125 9.96876 3.03125" stroke="#626467" stroke-miterlimit="10" stroke-linecap="round" stroke-linejoin="round"/>
<path d="M18.6583 25.3259C22.3425 25.3259 25.329 22.968 25.329 20.0594C25.329 17.1508 22.3425 14.793 18.6583 14.793C14.974 14.793 11.9873 17.1508 11.9873 20.0594C11.9873 22.968 14.974 25.3259 18.6583 25.3259Z" stroke="#626467" stroke-miterlimit="10" stroke-linecap="round" stroke-linejoin="round"/>
<path d="M25.329 20.0596V23.7458C25.329 26.6424 22.3448 29.0123 18.6583 29.0123C14.9717 29.0123 11.9873 26.6424 11.9873 23.7458V20.0596" stroke="#626467" stroke-miterlimit="10" stroke-linecap="round" stroke-linejoin="round"/>
<path d="M13.0405 22.9554L24.3636 17.3379" stroke="#626467" stroke-miterlimit="10" stroke-linecap="round" stroke-linejoin="round"/>
</svg>
