<svg width="57" height="64" viewBox="0 0 57 64" fill="none" xmlns="http://www.w3.org/2000/svg">
<path d="M44.4082 45.0612C41.1429 47.6735 36.5714 49.6327 32 49.6327C21.551 49.6327 14.3673 41.7959 14.3673 31.3469C14.3673 20.898 21.551 13.7143 32 13.7143C36.5714 13.7143 41.1429 15.0204 44.4082 18.2857L46.3674 20.2449L56.8163 10.449L54.2041 8.48979C48.3265 3.26529 40.4898 0 32 0C13.7143 0 0 13.7143 0 32C0 50.2857 13.7143 64 32 64C40.4898 64 48.3265 60.7347 54.2041 55.5102L56.8163 53.551L46.3674 43.102L44.4082 45.0612Z" fill="#161A2D"/>
<path d="M31.3469 42.4488C37.1178 42.4488 41.7959 37.7706 41.7959 31.9998C41.7959 26.229 37.1178 21.5508 31.3469 21.5508C25.5761 21.5508 20.8979 26.229 20.8979 31.9998C20.8979 37.7706 25.5761 42.4488 31.3469 42.4488Z" fill="#316DFF"/>
</svg>
