<svg width="24" height="24" viewBox="0 0 24 24" fill="none" xmlns="http://www.w3.org/2000/svg">
<g clip-path="url(#clip0_514_514)">
<path d="M21.4297 2.57153L15.584 8.41725" stroke="white" stroke-linecap="round" stroke-linejoin="round"/>
<path d="M2.57031 2.57153L8.41603 8.41725" stroke="white" stroke-linecap="round" stroke-linejoin="round"/>
<path d="M2.57031 21.4287L8.41603 15.583" stroke="white" stroke-linecap="round" stroke-linejoin="round"/>
<path d="M21.4297 21.4287L15.584 15.583" stroke="white" stroke-linecap="round" stroke-linejoin="round"/>
<path d="M12.0003 23.1429C18.1543 23.1429 23.1431 18.1541 23.1431 12C23.1431 5.846 18.1543 0.857178 12.0003 0.857178C5.84625 0.857178 0.857422 5.846 0.857422 12C0.857422 18.1541 5.84625 23.1429 12.0003 23.1429Z" stroke="white" stroke-linecap="round" stroke-linejoin="round"/>
<path d="M12.0005 17.0572C14.7935 17.0572 17.0576 14.793 17.0576 12C17.0576 9.20703 14.7935 6.94287 12.0005 6.94287C9.20752 6.94287 6.94336 9.20703 6.94336 12C6.94336 14.793 9.20752 17.0572 12.0005 17.0572Z" stroke="white" stroke-linecap="round" stroke-linejoin="round"/>
</g>
<defs>
<clipPath id="clip0_514_514">
<rect width="24" height="24" fill="white"/>
</clipPath>
</defs>
</svg>
