<svg width="30" height="30" viewBox="0 0 30 30" fill="none" xmlns="http://www.w3.org/2000/svg">
<path d="M13.3041 27.0692C12.3386 27.6836 11.1974 28.1223 9.96861 28.1223C6.63317 28.1223 4 25.4892 4 22.1538V6.96893C4 3.63349 6.63317 1 9.96861 1C13.304 1 15.9373 3.63349 15.9373 6.96893V15.2197" stroke="white" stroke-miterlimit="10" stroke-linecap="round" stroke-linejoin="round"/>
<path d="M4 14.5171H15.9373" stroke="white" stroke-miterlimit="10" stroke-linecap="round" stroke-linejoin="round"/>
<path d="M5.93115 7.05633C5.93115 4.86197 7.7744 3.01904 9.96876 3.01904" stroke="white" stroke-miterlimit="10" stroke-linecap="round" stroke-linejoin="round"/>
<path d="M18.6583 25.3137C22.3425 25.3137 25.329 22.9558 25.329 20.0472C25.329 17.1386 22.3425 14.7808 18.6583 14.7808C14.974 14.7808 11.9873 17.1386 11.9873 20.0472C11.9873 22.9558 14.974 25.3137 18.6583 25.3137Z" stroke="white" stroke-miterlimit="10" stroke-linecap="round" stroke-linejoin="round"/>
<path d="M25.329 20.0474V23.7336C25.329 26.6302 22.3448 29.0001 18.6583 29.0001C14.9717 29.0001 11.9873 26.6302 11.9873 23.7336V20.0474" stroke="white" stroke-miterlimit="10" stroke-linecap="round" stroke-linejoin="round"/>
<path d="M13.0405 22.9437L24.3636 17.3262" stroke="white" stroke-miterlimit="10" stroke-linecap="round" stroke-linejoin="round"/>
</svg>
