<svg width="30" height="30" viewBox="0 0 30 30" fill="none" xmlns="http://www.w3.org/2000/svg">
<path d="M28.0852 25.2449C28.0852 26.176 27.3235 26.9377 26.3924 26.9377H2.69283C1.76177 26.9377 1 26.176 1 25.2449V9.16304C1 8.23199 1.76177 7.47021 2.69283 7.47021H26.3924C27.3235 7.47021 28.0852 8.23199 28.0852 9.16304V25.2449Z" stroke="white" stroke-width="1.5" stroke-miterlimit="10" stroke-linecap="round" stroke-linejoin="round"/>
<path d="M18.6053 6.62396C18.6053 7.04717 18.2668 7.47038 17.7589 7.47038H11.157C10.7338 7.47038 10.3105 7.04717 10.3105 6.62396V4.84641C10.3105 4.42321 10.7338 4 11.157 4H17.7589C18.2668 4 18.6053 4.42321 18.6053 4.84641V6.62396Z" stroke="white" stroke-width="1.5" stroke-miterlimit="10" stroke-linecap="round" stroke-linejoin="round"/>
<path d="M10.395 17.2046H18.6052" stroke="white" stroke-width="1.5" stroke-miterlimit="10" stroke-linecap="round" stroke-linejoin="round"/>
<path d="M14.5425 21.3517V13.0566" stroke="white" stroke-width="1.5" stroke-miterlimit="10" stroke-linecap="round" stroke-linejoin="round"/>
</svg>
