<svg width="30" height="30" viewBox="0 0 30 30" fill="none" xmlns="http://www.w3.org/2000/svg">
<g clip-path="url(#clip0_601_52)">
<path d="M15.0003 24.6429C20.3259 24.6429 24.6431 20.3256 24.6431 15C24.6431 9.67443 20.3259 5.35718 15.0003 5.35718C9.67468 5.35718 5.35742 9.67443 5.35742 15C5.35742 20.3256 9.67468 24.6429 15.0003 24.6429Z" stroke="white" stroke-width="1.5" stroke-linecap="round" stroke-linejoin="round"/>
<path d="M15.0001 16.0716C15.5919 16.0716 16.0716 15.5919 16.0716 15.0001C16.0716 14.4084 15.5919 13.9287 15.0001 13.9287C14.4084 13.9287 13.9287 14.4084 13.9287 15.0001C13.9287 15.5919 14.4084 16.0716 15.0001 16.0716Z" stroke="white" stroke-width="1.5" stroke-linecap="round" stroke-linejoin="round"/>
<path d="M15 5.35725V1.07153" stroke="white" stroke-width="1.5" stroke-linecap="round" stroke-linejoin="round"/>
<path d="M15 28.9288V24.6431" stroke="white" stroke-width="1.5" stroke-linecap="round" stroke-linejoin="round"/>
<path d="M24.6426 15H28.9283" stroke="white" stroke-width="1.5" stroke-linecap="round" stroke-linejoin="round"/>
<path d="M1.07129 15H5.357" stroke="white" stroke-width="1.5" stroke-linecap="round" stroke-linejoin="round"/>
</g>
<defs>
<clipPath id="clip0_601_52">
<rect width="30" height="30" fill="white"/>
</clipPath>
</defs>
</svg>
