<svg width="20" height="20" viewBox="0 0 20 20" fill="none" xmlns="http://www.w3.org/2000/svg">
<g clip-path="url(#clip0_528_354)">
<path d="M7.14397 7.1428C8.91917 7.1428 10.3583 5.70372 10.3583 3.92852C10.3583 2.15332 8.91917 0.714233 7.14397 0.714233C5.36877 0.714233 3.92969 2.15332 3.92969 3.92852C3.92969 5.70372 5.36877 7.1428 7.14397 7.1428Z" stroke="white" stroke-width="1.5" stroke-linecap="round" stroke-linejoin="round"/>
<path d="M5.00056 17.8571H0.714844V15.7142C0.726216 14.6253 1.01338 13.5571 1.54952 12.6093C2.08566 11.6615 2.85327 10.8651 3.78066 10.2944C4.70806 9.72367 5.76497 9.39733 6.85268 9.34583C7.94038 9.29434 9.0234 9.51937 10.0006 9.99991" stroke="white" stroke-width="1.5" stroke-linecap="round" stroke-linejoin="round"/>
<path d="M19.2871 12.1429L12.5585 18.8714L9.51562 19.2857L9.9442 16.2429L16.6585 9.51428L19.2871 12.1429Z" stroke="white" stroke-width="1.5" stroke-linecap="round" stroke-linejoin="round"/>
</g>
<defs>
<clipPath id="clip0_528_354">
<rect width="20" height="20" fill="white"/>
</clipPath>
</defs>
</svg>
