<svg width="20" height="21" viewBox="0 0 20 21" fill="none" xmlns="http://www.w3.org/2000/svg">
<g clip-path="url(#clip0_138_2801)">
<path d="M3.92864 13.9129C5.70384 13.9129 7.14293 12.4739 7.14293 10.6987C7.14293 8.92346 5.70384 7.48438 3.92864 7.48438C2.15344 7.48438 0.714355 8.92346 0.714355 10.6987C0.714355 12.4739 2.15344 13.9129 3.92864 13.9129Z" stroke="white" stroke-width="1.5" stroke-linecap="round" stroke-linejoin="round"/>
<path d="M16.0712 19.9842C17.8464 19.9842 19.2855 18.5452 19.2855 16.7699C19.2855 14.9947 17.8464 13.5557 16.0712 13.5557C14.296 13.5557 12.8569 14.9947 12.8569 16.7699C12.8569 18.5452 14.296 19.9842 16.0712 19.9842Z" stroke="white" stroke-width="1.5" stroke-linecap="round" stroke-linejoin="round"/>
<path d="M16.0717 7.84166C17.8469 7.84166 19.286 6.40257 19.286 4.62737C19.286 2.85217 17.8469 1.41309 16.0717 1.41309C14.2965 1.41309 12.8574 2.85217 12.8574 4.62737C12.8574 6.40257 14.2965 7.84166 16.0717 7.84166Z" stroke="white" stroke-width="1.5" stroke-linecap="round" stroke-linejoin="round"/>
<path d="M6.7998 9.26995L13.1998 6.05566" stroke="white" stroke-width="1.5" stroke-linecap="round" stroke-linejoin="round"/>
<path d="M6.7998 12.127L13.1998 15.3412" stroke="white" stroke-width="1.5" stroke-linecap="round" stroke-linejoin="round"/>
</g>
<defs>
<clipPath id="clip0_138_2801">
<rect width="20" height="20" fill="white" transform="translate(0 0.699219)"/>
</clipPath>
</defs>
</svg>
