<svg width="70" height="72" viewBox="0 0 70 72" fill="none" xmlns="http://www.w3.org/2000/svg">
<path d="M34.8005 16.2651C25.4236 16.2651 24.5513 10.159 25.2055 6.23381C25.8597 2.30859 20.4079 1.00082 16.9188 4.70797C13.4297 8.41513 6.66976 12.7765 1 11.25C2.30841 18.2282 11.249 24.3332 21.2802 26.732C31.3113 29.3488 31.3112 20.6261 24.7692 21.2803C18.2271 21.7164 18.8815 31.9658 24.3332 35.673C29.7849 39.1621 34.5822 38.944 34.5822 38.944" stroke="white" stroke-width="2" stroke-miterlimit="10" stroke-linecap="round" stroke-linejoin="round"/>
<path d="M35.0183 11.4668C37.9088 11.4668 40.252 9.12387 40.252 6.23342C40.252 3.34296 37.9088 1 35.0183 1C32.1279 1 29.7847 3.34296 29.7847 6.23342C29.7847 9.12387 32.1279 11.4668 35.0183 11.4668Z" stroke="white" stroke-width="2" stroke-miterlimit="10" stroke-linecap="round" stroke-linejoin="round"/>
<path d="M35.0186 11.4668V71" stroke="white" stroke-width="2" stroke-miterlimit="10" stroke-linecap="round" stroke-linejoin="round"/>
<path d="M35.0186 53.5546C40.7995 53.5546 45.4857 50.2353 45.4857 46.1405C45.4857 42.0457 40.7995 38.7253 35.0186 38.7253C29.2377 38.7253 24.5513 42.0457 24.5513 46.1405C24.5513 50.2353 29.2377 53.5546 35.0186 53.5546Z" stroke="white" stroke-width="2" stroke-miterlimit="10" stroke-linecap="round" stroke-linejoin="round"/>
<path d="M35.0186 64.4581C39.2339 64.4581 42.651 62.0173 42.651 59.0064C42.651 55.9955 39.2339 53.5547 35.0186 53.5547C30.8034 53.5547 27.3862 55.9955 27.3862 59.0064C27.3862 62.0173 30.8034 64.4581 35.0186 64.4581Z" stroke="white" stroke-width="2" stroke-miterlimit="10" stroke-linecap="round" stroke-linejoin="round"/>
<path d="M5.14307 18.2271C9.06829 19.0994 14.7381 16.7004 18.0091 13.6475" stroke="white" stroke-width="2" stroke-miterlimit="10" stroke-linecap="round" stroke-linejoin="round"/>
<path d="M11.4673 23.025C14.9564 23.243 19.3178 19.9718 20.8443 18.4453" stroke="white" stroke-width="2" stroke-miterlimit="10" stroke-linecap="round" stroke-linejoin="round"/>
<path d="M35.0186 16.2651C44.3955 16.2651 45.2678 10.159 44.6136 6.23381C43.9594 2.30859 49.4109 1.00082 52.9 4.70797C56.3891 8.41513 63.1493 12.7765 68.8191 11.25C67.5107 18.2282 58.5698 24.3332 48.5387 26.732C38.5075 29.3488 38.5076 20.6261 45.0496 21.2803C51.5917 21.7164 50.9374 31.9658 45.4857 35.673C40.034 39.1621 35.2366 38.944 35.2366 38.944" stroke="white" stroke-width="2" stroke-miterlimit="10" stroke-linecap="round" stroke-linejoin="round"/>
<path d="M64.6756 18.2271C60.7504 19.0994 55.0806 16.7004 51.8096 13.6475" stroke="white" stroke-width="2" stroke-miterlimit="10" stroke-linecap="round" stroke-linejoin="round"/>
<path d="M58.3519 23.025C54.8628 23.243 50.5016 19.9718 48.9751 18.4453" stroke="white" stroke-width="2" stroke-miterlimit="10" stroke-linecap="round" stroke-linejoin="round"/>
</svg>
