<svg width="60" height="60" viewBox="0 0 60 60" fill="none" xmlns="http://www.w3.org/2000/svg">
<path d="M54.7726 14.0627C54.7726 10.7766 53.389 7.66418 50.7947 5.24285C46.125 0.919049 38.3421 0.919049 33.6724 5.24285L30.3864 8.18253L27.1002 5.24285C22.4305 0.919049 14.6477 0.919049 9.97799 5.24285C7.3837 7.66418 6 10.9496 6 14.0627" stroke="#316DFF" stroke-width="2" stroke-miterlimit="10" stroke-linecap="round" stroke-linejoin="round"/>
<path d="M54.7726 14.0625C54.7726 24.6126 50.4488 29.6289 48.2005 35.5092C45.9521 41.3896 45.0873 57.3006 40.0717 57.3006C36.7856 57.3006 35.5749 50.383 35.229 45.7133C35.0561 43.119 32.9807 41.2163 30.3864 41.2163C27.7921 41.2163 25.7167 43.119 25.5437 45.7133C25.1978 50.383 23.9871 57.3006 20.701 57.3006C15.6853 57.3006 14.8207 41.3896 12.5723 35.5092C10.3239 29.6289 6 24.6126 6 14.0625" stroke="#316DFF" stroke-width="2" stroke-miterlimit="10" stroke-linecap="round" stroke-linejoin="round"/>
<path d="M30.3861 8.18359L27.2729 11.2972" stroke="#316DFF" stroke-width="2" stroke-miterlimit="10" stroke-linecap="round" stroke-linejoin="round"/>
</svg>
