<svg width="40" height="40" viewBox="0 0 40 40" fill="none" xmlns="http://www.w3.org/2000/svg">
<path d="M32.7649 31.6997H36.905C37.71 31.6997 38.4001 31.0099 38.4001 30.2049V23.8802C38.4001 22.8452 37.595 22.0401 36.56 22.0401H22.0699V9.39062H3.09515C2.29015 9.39062 1.6001 10.0809 1.6001 10.8859V30.32C1.6001 31.125 2.29015 31.8148 3.09515 31.8148H6.89005" stroke="#316DFF" stroke-width="1.5" stroke-miterlimit="10" stroke-linecap="round" stroke-linejoin="round"/>
<path d="M13.1001 31.6992H26.4399" stroke="#316DFF" stroke-width="1.5" stroke-miterlimit="10" stroke-linecap="round" stroke-linejoin="round"/>
<path d="M21.9546 12.8398H28.8546L35.4095 22.0395" stroke="#316DFF" stroke-width="1.5" stroke-miterlimit="10" stroke-linecap="round" stroke-linejoin="round"/>
<path d="M9.8802 34.9184C11.6586 34.9184 13.1002 33.4765 13.1002 31.6982C13.1002 29.9199 11.6586 28.4785 9.8802 28.4785C8.10185 28.4785 6.66016 29.9199 6.66016 31.6982C6.66016 33.4765 8.10185 34.9184 9.8802 34.9184Z" stroke="#316DFF" stroke-width="1.5" stroke-miterlimit="10" stroke-linecap="round" stroke-linejoin="round"/>
<path d="M29.66 34.9184C31.4383 34.9184 32.88 33.4765 32.88 31.6982C32.88 29.9199 31.4383 28.4785 29.66 28.4785C27.8816 28.4785 26.4399 29.9199 26.4399 31.6982C26.4399 33.4765 27.8816 34.9184 29.66 34.9184Z" stroke="#316DFF" stroke-width="1.5" stroke-miterlimit="10" stroke-linecap="round" stroke-linejoin="round"/>
<path d="M7.57959 17.668H16.5496" stroke="#316DFF" stroke-width="1.5" stroke-miterlimit="10" stroke-linecap="round" stroke-linejoin="round"/>
<path d="M12.0649 22.1529V13.0684" stroke="#316DFF" stroke-width="1.5" stroke-miterlimit="10" stroke-linecap="round" stroke-linejoin="round"/>
<path d="M14.2503 9.27528H9.53516V8.7003C9.53516 7.43535 10.5702 6.40039 11.8351 6.40039C13.1001 6.40039 14.1351 7.43535 14.1351 8.7003V9.27528H14.2503Z" stroke="#316DFF" stroke-width="1.5" stroke-miterlimit="10" stroke-linecap="round" stroke-linejoin="round"/>
</svg>
