<svg width="50" height="50" viewBox="0 0 50 50" fill="none" xmlns="http://www.w3.org/2000/svg">
<path d="M46.8086 42.0756C46.8086 43.6274 45.5389 44.897 43.9872 44.897H4.48788C2.93612 44.897 1.6665 43.6274 1.6665 42.0756V15.2726C1.6665 13.7208 2.93612 12.4512 4.48788 12.4512H43.9872C45.5389 12.4512 46.8086 13.7208 46.8086 15.2726V42.0756Z" stroke="#316DFF" stroke-width="2" stroke-miterlimit="10" stroke-linecap="round" stroke-linejoin="round"/>
<path d="M31.0087 11.0393C31.0087 11.7446 30.4445 12.45 29.598 12.45H18.5948C17.8894 12.45 17.1841 11.7446 17.1841 11.0393V8.0767C17.1841 7.37136 17.8894 6.66602 18.5948 6.66602H29.598C30.4445 6.66602 31.0087 7.37136 31.0087 8.0767V11.0393Z" stroke="#316DFF" stroke-width="2" stroke-miterlimit="10" stroke-linecap="round" stroke-linejoin="round"/>
<path d="M17.3252 28.6738H31.0088" stroke="#316DFF" stroke-width="2" stroke-miterlimit="10" stroke-linecap="round" stroke-linejoin="round"/>
<path d="M24.2378 35.5869V21.7617" stroke="#316DFF" stroke-width="2" stroke-miterlimit="10" stroke-linecap="round" stroke-linejoin="round"/>
</svg>
