<svg width="30" height="30" viewBox="0 0 30 30" fill="none" xmlns="http://www.w3.org/2000/svg">
<path d="M18.5998 10.5374L16.6748 13.8622L12.2998 11.3248L17.5498 2.3125L21.9248 4.84991L20.1748 7.91241" stroke="white" stroke-miterlimit="10" stroke-linecap="round" stroke-linejoin="round"/>
<path d="M19.3875 10.7996C20.2574 10.7996 20.9625 10.0946 20.9625 9.22473C20.9625 8.35488 20.2574 7.6499 19.3875 7.6499C18.5177 7.6499 17.8125 8.35488 17.8125 9.22473C17.8125 10.0946 18.5177 10.7996 19.3875 10.7996Z" stroke="white" stroke-miterlimit="10" stroke-linecap="round" stroke-linejoin="round"/>
<path d="M21.1589 2.5927L19.416 1.58643L18.6284 2.9506L20.3712 3.95687L21.1589 2.5927Z" stroke="white" stroke-miterlimit="10" stroke-linecap="round" stroke-linejoin="round"/>
<path d="M18.3374 1L22.6249 3.44983" stroke="white" stroke-miterlimit="10" stroke-linecap="round" stroke-linejoin="round"/>
<path d="M11.7749 12.2876L16.1499 14.825" stroke="white" stroke-miterlimit="10" stroke-linecap="round" stroke-linejoin="round"/>
<path d="M14.8288 13.9228L13.0859 12.9165L12.2983 14.2807L14.0412 15.2869L14.8288 13.9228Z" stroke="white" stroke-miterlimit="10" stroke-linecap="round" stroke-linejoin="round"/>
<path d="M20.8752 10.0122C22.8877 11.6747 24.2002 14.1246 24.2002 16.9246C24.2002 21.8246 20.2627 25.7622 15.3627 25.7622C12.5627 25.7622 10.1127 24.4499 8.4502 22.4374" stroke="white" stroke-miterlimit="10" stroke-linecap="round" stroke-linejoin="round"/>
<path d="M18.4251 25.3247L19.5626 28.9999H11.1626L12.3001 25.3247" stroke="white" stroke-miterlimit="10" stroke-linecap="round" stroke-linejoin="round"/>
<path d="M10.8125 21.125H6V22.4375H10.8125V21.125Z" stroke="white" stroke-miterlimit="10" stroke-linecap="round" stroke-linejoin="round"/>
</svg>
