<svg width="20" height="20" viewBox="0 0 20 20" fill="none" xmlns="http://www.w3.org/2000/svg">
<g clip-path="url(#clip0_528_407)">
<path d="M9.81529 13.5714C13.3657 13.5714 16.2439 10.6932 16.2439 7.1428C16.2439 3.5924 13.3657 0.714233 9.81529 0.714233C6.26489 0.714233 3.38672 3.5924 3.38672 7.1428C3.38672 10.6932 6.26489 13.5714 9.81529 13.5714Z" stroke="white" stroke-width="1.5" stroke-linecap="round" stroke-linejoin="round"/>
<path d="M9.81417 9.99993C11.3921 9.99993 12.6713 8.72074 12.6713 7.14279C12.6713 5.56483 11.3921 4.28564 9.81417 4.28564C8.23622 4.28564 6.95703 5.56483 6.95703 7.14279C6.95703 8.72074 8.23622 9.99993 9.81417 9.99993Z" stroke="white" stroke-width="1.5" stroke-linecap="round" stroke-linejoin="round"/>
<path d="M8.57086 13.457L7.31372 18.7428C7.28884 18.8432 7.24285 18.9372 7.1788 19.0185C7.11476 19.0998 7.03413 19.1665 6.94229 19.2142C6.84536 19.2563 6.74082 19.278 6.63515 19.278C6.52948 19.278 6.42494 19.2563 6.328 19.2142L1.58515 17.1428C1.48566 17.0957 1.39812 17.0268 1.3291 16.9411C1.26008 16.8554 1.21137 16.7551 1.18663 16.6479C1.16188 16.5407 1.16175 16.4292 1.18623 16.322C1.21072 16.2147 1.25919 16.1143 1.328 16.0285L4.99943 11.4285" stroke="white" stroke-width="1.5" stroke-linecap="round" stroke-linejoin="round"/>
<path d="M11.4297 13.3857L12.7154 18.7428C12.741 18.845 12.7888 18.9402 12.8555 19.0217C12.9222 19.1032 13.006 19.169 13.1011 19.2142C13.1954 19.2568 13.2977 19.2789 13.4011 19.2789C13.5046 19.2789 13.6068 19.2568 13.7011 19.2142L18.4154 17.1428C18.5164 17.0963 18.6051 17.027 18.6746 16.9402C18.744 16.8533 18.7922 16.7515 18.8154 16.6428C18.8425 16.5365 18.8436 16.4252 18.8188 16.3183C18.7939 16.2114 18.7438 16.112 18.6725 16.0285L14.844 11.1571" stroke="white" stroke-width="1.5" stroke-linecap="round" stroke-linejoin="round"/>
</g>
<defs>
<clipPath id="clip0_528_407">
<rect width="20" height="20" fill="white"/>
</clipPath>
</defs>
</svg>
