<svg width="65" height="64" viewBox="0 0 65 64" fill="none" xmlns="http://www.w3.org/2000/svg">
<g clip-path="url(#clip0_337_114)">
<path d="M14.592 38.6737L12.3642 46.9902L4.22183 47.1625C1.78845 42.6491 0.408203 37.4852 0.408203 31.9977C0.408203 26.6914 1.6987 21.6874 3.9862 17.2812H3.98795L11.237 18.6102L14.4125 25.8157C13.7478 27.7534 13.3856 29.8334 13.3856 31.9977C13.3858 34.3467 13.8113 36.5974 14.592 38.6737Z" fill="#FBBB00"/>
<path d="M63.8487 26.0234C64.2162 27.9592 64.4078 29.9583 64.4078 32.0014C64.4078 34.2924 64.167 36.5272 63.7081 38.6828C62.1503 46.0182 58.08 52.4234 52.4413 56.9562L52.4396 56.9544L43.3091 56.4886L42.0168 48.4217C45.7583 46.2274 48.6823 42.7936 50.2226 38.6828H33.1113V26.0234H50.4722H63.8487Z" fill="#518EF8"/>
<path d="M52.4402 56.9527L52.4419 56.9544C46.958 61.3623 39.9918 63.9997 32.4085 63.9997C20.2222 63.9997 9.62704 57.1883 4.22217 47.1645L14.5923 38.6758C17.2947 45.888 24.252 51.0222 32.4085 51.0222C35.9144 51.0222 39.1989 50.0744 42.0173 48.4199L52.4402 56.9527Z" fill="#28B446"/>
<path d="M52.8338 7.367L42.4672 15.854C39.5503 14.0308 36.1023 12.9775 32.4083 12.9775C24.0672 12.9775 16.9797 18.3471 14.4127 25.818L3.98808 17.2835H3.98633C9.31208 7.01538 20.0408 0 32.4083 0C40.1727 0 47.2918 2.76575 52.8338 7.367Z" fill="#F14336"/>
</g>
<defs>
<clipPath id="clip0_337_114">
<rect width="64" height="64" fill="white" transform="translate(0.408203)"/>
</clipPath>
</defs>
</svg>
