<svg width="20" height="21" viewBox="0 0 20 21" fill="none" xmlns="http://www.w3.org/2000/svg">
<path fill-rule="evenodd" clip-rule="evenodd" d="M9.75039 0.686289C9.78318 0.576068 9.88476 0.5 9.99999 0.5C10.1152 0.5 10.2168 0.576068 10.2496 0.686289C10.2496 0.686289 10.7064 2.2176 11.1961 3.86005C11.9763 6.47678 14.0232 8.52369 16.6399 9.30392C18.2824 9.79356 19.8137 10.2504 19.8137 10.2504C19.9239 10.2832 20 10.3848 20 10.5C20 10.6152 19.9239 10.7168 19.8137 10.7496C19.8137 10.7496 18.2824 11.2064 16.6399 11.6961C14.0232 12.4763 11.9763 14.5232 11.1961 17.1399C10.7064 18.7824 10.2496 20.3137 10.2496 20.3137C10.2168 20.4239 10.1152 20.5 9.99999 20.5C9.88476 20.5 9.78318 20.4239 9.75039 20.3137C9.75039 20.3137 9.29355 18.7824 8.80391 17.1399C8.02368 14.5232 5.97676 12.4763 3.36005 11.6961C1.7176 11.2064 0.186289 10.7496 0.186289 10.7496C0.0760612 10.7168 0 10.6152 0 10.5C0 10.3848 0.0760612 10.2832 0.186289 10.2504C0.186289 10.2504 1.7176 9.79356 3.36005 9.30392C5.97676 8.52369 8.02368 6.47678 8.80391 3.86005C9.29355 2.2176 9.75039 0.686289 9.75039 0.686289Z" fill="white"/>
</svg>
