<svg width="30" height="31" viewBox="0 0 30 31" fill="none" xmlns="http://www.w3.org/2000/svg">
<path d="M28.0852 25.2571C28.0852 26.1882 27.3235 26.9499 26.3924 26.9499H2.69283C1.76177 26.9499 1 26.1882 1 25.2571V9.17525C1 8.24419 1.76177 7.48242 2.69283 7.48242H26.3924C27.3235 7.48242 28.0852 8.24419 28.0852 9.17525V25.2571Z" stroke="#626467" stroke-width="1.5" stroke-miterlimit="10" stroke-linecap="round" stroke-linejoin="round"/>
<path d="M18.6053 6.63568C18.6053 7.05889 18.2668 7.4821 17.7589 7.4821H11.157C10.7338 7.4821 10.3105 7.05889 10.3105 6.63568V4.85813C10.3105 4.43493 10.7338 4.01172 11.157 4.01172H17.7589C18.2668 4.01172 18.6053 4.43493 18.6053 4.85813V6.63568Z" stroke="#626467" stroke-width="1.5" stroke-miterlimit="10" stroke-linecap="round" stroke-linejoin="round"/>
<path d="M10.395 17.2158H18.6052" stroke="#626467" stroke-width="1.5" stroke-miterlimit="10" stroke-linecap="round" stroke-linejoin="round"/>
<path d="M14.5425 21.3635V13.0684" stroke="#626467" stroke-width="1.5" stroke-miterlimit="10" stroke-linecap="round" stroke-linejoin="round"/>
</svg>
