<svg width="61" height="62" viewBox="0 0 61 62" fill="none" xmlns="http://www.w3.org/2000/svg">
<path d="M29.9719 14.0834C21.9345 14.0834 21.1868 8.84956 21.7476 5.48508C22.3083 2.1206 17.6353 0.999656 14.6447 4.17722C11.654 7.35478 5.8598 11.0931 1 9.78468C2.12149 15.766 9.78489 20.9989 18.383 23.0549C26.9811 25.2979 26.9811 17.8213 21.3736 18.3821C15.7661 18.7559 16.327 27.5411 20.9999 30.7187C25.6727 33.7093 29.7848 33.5224 29.7848 33.5224" stroke="#161A2D" stroke-width="2" stroke-miterlimit="10" stroke-linecap="round" stroke-linejoin="round"/>
<path d="M30.1589 9.97157C32.6364 9.97157 34.6449 7.96332 34.6449 5.48579C34.6449 3.00825 32.6364 1 30.1589 1C27.6813 1 25.6729 3.00825 25.6729 5.48579C25.6729 7.96332 27.6813 9.97157 30.1589 9.97157Z" stroke="#161A2D" stroke-width="2" stroke-miterlimit="10" stroke-linecap="round" stroke-linejoin="round"/>
<path d="M30.1592 9.9707V60.9992" stroke="#161A2D" stroke-width="2" stroke-miterlimit="10" stroke-linecap="round" stroke-linejoin="round"/>
<path d="M30.1586 46.0467C35.1136 46.0467 39.1304 43.2016 39.1304 39.6918C39.1304 36.182 35.1136 33.3359 30.1586 33.3359C25.2035 33.3359 21.1865 36.182 21.1865 39.6918C21.1865 43.2016 25.2035 46.0467 30.1586 46.0467Z" stroke="#161A2D" stroke-width="2" stroke-miterlimit="10" stroke-linecap="round" stroke-linejoin="round"/>
<path d="M30.1592 55.3926C33.7723 55.3926 36.7013 53.3005 36.7013 50.7198C36.7013 48.139 33.7723 46.0469 30.1592 46.0469C26.5462 46.0469 23.6172 48.139 23.6172 50.7198C23.6172 53.3005 26.5462 55.3926 30.1592 55.3926Z" stroke="#161A2D" stroke-width="2" stroke-miterlimit="10" stroke-linecap="round" stroke-linejoin="round"/>
<path d="M4.55078 15.7672C7.91526 16.5149 12.7751 14.4586 15.5788 11.8418" stroke="#161A2D" stroke-width="2" stroke-miterlimit="10" stroke-linecap="round" stroke-linejoin="round"/>
<path d="M9.97168 19.8785C12.9623 20.0654 16.7007 17.2615 18.0091 15.9531" stroke="#161A2D" stroke-width="2" stroke-miterlimit="10" stroke-linecap="round" stroke-linejoin="round"/>
<path d="M30.1592 14.0834C38.1965 14.0834 38.9442 8.84956 38.3835 5.48508C37.8228 2.1206 42.4955 0.999656 45.4861 4.17722C48.4768 7.35478 54.2713 11.0931 59.1311 9.78468C58.0096 15.766 50.3459 20.9989 41.7478 23.0549C33.1497 25.2979 33.1498 17.8213 38.7572 18.3821C44.3647 18.7559 43.8039 27.5411 39.131 30.7187C34.4581 33.7093 30.346 33.5224 30.346 33.5224" stroke="#161A2D" stroke-width="2" stroke-miterlimit="10" stroke-linecap="round" stroke-linejoin="round"/>
<path d="M55.5788 15.7672C52.2144 16.5149 47.3545 14.4586 44.5508 11.8418" stroke="#161A2D" stroke-width="2" stroke-miterlimit="10" stroke-linecap="round" stroke-linejoin="round"/>
<path d="M50.1583 19.8785C47.1677 20.0654 43.4295 17.2615 42.1211 15.9531" stroke="#161A2D" stroke-width="2" stroke-miterlimit="10" stroke-linecap="round" stroke-linejoin="round"/>
</svg>
