<svg width="30" height="30" viewBox="0 0 30 30" fill="none" xmlns="http://www.w3.org/2000/svg">
<path d="M28.3497 13.5642C28.7051 13.9579 28.9018 14.4695 28.9018 14.9999C28.9018 15.5303 28.7051 16.0419 28.3497 16.4356C26.0997 18.857 20.9783 23.5713 14.9997 23.5713C9.02117 23.5713 3.89974 18.857 1.64974 16.4356C1.29437 16.0419 1.09766 15.5303 1.09766 14.9999C1.09766 14.4695 1.29437 13.9579 1.64974 13.5642C3.89974 11.1428 9.02117 6.42847 14.9997 6.42847C20.9783 6.42847 26.0997 11.1428 28.3497 13.5642Z" stroke="white" stroke-width="1.5" stroke-linecap="round" stroke-linejoin="round"/>
<path d="M14.9996 19.2855C17.3665 19.2855 19.2853 17.3668 19.2853 14.9998C19.2853 12.6329 17.3665 10.7141 14.9996 10.7141C12.6326 10.7141 10.7139 12.6329 10.7139 14.9998C10.7139 17.3668 12.6326 19.2855 14.9996 19.2855Z" stroke="white" stroke-width="1.5" stroke-linecap="round" stroke-linejoin="round"/>
</svg>
