<svg width="50" height="50" viewBox="0 0 50 50" fill="none" xmlns="http://www.w3.org/2000/svg">
<path d="M40.9561 39.6246H46.1312C47.1374 39.6246 48 38.7624 48 37.7562V29.8502C48 28.5565 46.9936 27.5502 45.6999 27.5502H27.5873V11.7383H3.86881C2.86257 11.7383 2 12.6012 2 13.6074V37.9001C2 38.9063 2.86257 39.7685 3.86881 39.7685H8.61244" stroke="#316DFF" stroke-width="2" stroke-miterlimit="10" stroke-linecap="round" stroke-linejoin="round"/>
<path d="M16.375 39.625H33.0497" stroke="#316DFF" stroke-width="2" stroke-miterlimit="10" stroke-linecap="round" stroke-linejoin="round"/>
<path d="M27.4434 16.0508H36.0683L44.262 27.5503" stroke="#316DFF" stroke-width="2" stroke-miterlimit="10" stroke-linecap="round" stroke-linejoin="round"/>
<path d="M12.3503 43.6475C14.5732 43.6475 16.3753 41.8451 16.3753 39.6222C16.3753 37.3994 14.5732 35.5977 12.3503 35.5977C10.1273 35.5977 8.3252 37.3994 8.3252 39.6222C8.3252 41.8451 10.1273 43.6475 12.3503 43.6475Z" stroke="#316DFF" stroke-width="2" stroke-miterlimit="10" stroke-linecap="round" stroke-linejoin="round"/>
<path d="M37.0749 43.6475C39.2978 43.6475 41.0999 41.8451 41.0999 39.6222C41.0999 37.3994 39.2978 35.5977 37.0749 35.5977C34.8519 35.5977 33.0498 37.3994 33.0498 39.6222C33.0498 41.8451 34.8519 43.6475 37.0749 43.6475Z" stroke="#316DFF" stroke-width="2" stroke-miterlimit="10" stroke-linecap="round" stroke-linejoin="round"/>
<path d="M9.47461 22.0859H20.6871" stroke="#316DFF" stroke-width="2" stroke-miterlimit="10" stroke-linecap="round" stroke-linejoin="round"/>
<path d="M15.0811 27.6916V16.3359" stroke="#316DFF" stroke-width="2" stroke-miterlimit="10" stroke-linecap="round" stroke-linejoin="round"/>
<path d="M17.8128 11.5936H11.9189V10.8749C11.9189 9.2937 13.2127 8 14.7939 8C16.3752 8 17.6689 9.2937 17.6689 10.8749V11.5936H17.8128Z" stroke="#316DFF" stroke-width="2" stroke-miterlimit="10" stroke-linecap="round" stroke-linejoin="round"/>
</svg>
