<svg width="50" height="50" viewBox="0 0 50 50" fill="none" xmlns="http://www.w3.org/2000/svg">
<path d="M30.9999 17.5624L27.7917 23.1038L20.5 18.8748L29.25 3.85425L36.5417 8.08327L33.625 13.1874" stroke="#316DFF" stroke-miterlimit="10" stroke-linecap="round" stroke-linejoin="round"/>
<path d="M32.3126 17.9997C33.7623 17.9997 34.9375 16.8247 34.9375 15.375C34.9375 13.9252 33.7623 12.7502 32.3126 12.7502C30.8628 12.7502 29.6875 13.9252 29.6875 15.375C29.6875 16.8247 30.8628 17.9997 32.3126 17.9997Z" stroke="#316DFF" stroke-miterlimit="10" stroke-linecap="round" stroke-linejoin="round"/>
<path d="M35.2661 4.32153L32.3613 2.64441L31.0486 4.91803L33.9534 6.59515L35.2661 4.32153Z" stroke="#316DFF" stroke-miterlimit="10" stroke-linecap="round" stroke-linejoin="round"/>
<path d="M30.5625 1.66675L37.7084 5.7498" stroke="#316DFF" stroke-miterlimit="10" stroke-linecap="round" stroke-linejoin="round"/>
<path d="M19.625 20.4791L26.9167 24.7081" stroke="#316DFF" stroke-miterlimit="10" stroke-linecap="round" stroke-linejoin="round"/>
<path d="M24.7153 23.2047L21.8105 21.5276L20.4978 23.8012L23.4026 25.4783L24.7153 23.2047Z" stroke="#316DFF" stroke-miterlimit="10" stroke-linecap="round" stroke-linejoin="round"/>
<path d="M34.7903 16.6873C38.1445 19.4581 40.332 23.5413 40.332 28.2079C40.332 36.3746 33.7696 42.9373 25.6029 42.9373C20.9362 42.9373 16.8529 40.75 14.082 37.3959" stroke="#316DFF" stroke-miterlimit="10" stroke-linecap="round" stroke-linejoin="round"/>
<path d="M30.7078 42.2081L32.6035 48.3334H18.6035L20.4994 42.2081" stroke="#316DFF" stroke-miterlimit="10" stroke-linecap="round" stroke-linejoin="round"/>
<path d="M18.0228 35.2085H10.002V37.396H18.0228V35.2085Z" stroke="#316DFF" stroke-miterlimit="10" stroke-linecap="round" stroke-linejoin="round"/>
</svg>
