<svg width="30" height="30" viewBox="0 0 30 30" fill="none" xmlns="http://www.w3.org/2000/svg">
<g clip-path="url(#clip0_221_64)">
<path d="M18.771 27.8571C20.0906 28.7085 21.6631 29.0795 23.2241 28.9078C24.7851 28.736 26.2394 28.0321 27.3424 26.9143L28.3067 25.9714C28.7295 25.539 28.9662 24.9583 28.9662 24.3535C28.9662 23.7488 28.7295 23.1681 28.3067 22.7357L24.2138 18.6857C23.785 18.2643 23.2079 18.0282 22.6067 18.0282C22.0055 18.0282 21.4283 18.2643 20.9996 18.6857V18.6857C20.5671 19.1084 19.9864 19.3451 19.3817 19.3451C18.777 19.3451 18.1963 19.1084 17.7638 18.6857L11.3353 12.2571C11.1208 12.0458 10.9505 11.7939 10.8343 11.5162C10.718 11.2384 10.6582 10.9403 10.6582 10.6393C10.6582 10.3382 10.718 10.0401 10.8343 9.76235C10.9505 9.4846 11.1208 9.23274 11.3353 9.0214V9.0214C11.7567 8.59261 11.9928 8.01546 11.9928 7.41426C11.9928 6.81306 11.7567 6.23591 11.3353 5.80712L7.26384 1.73569C6.83143 1.31294 6.25072 1.07623 5.64598 1.07623C5.04125 1.07623 4.46054 1.31294 4.02813 1.73569L3.08527 2.69998C1.96744 3.80299 1.26349 5.25727 1.09178 6.81826C0.920067 8.37926 1.29107 9.95178 2.14241 11.2714C6.57822 17.8087 12.2223 23.4382 18.771 27.8571V27.8571Z" stroke="#316DFF" stroke-width="1.5" stroke-linecap="round" stroke-linejoin="round"/>
</g>
<defs>
<clipPath id="clip0_221_64">
<rect width="30" height="30" fill="white"/>
</clipPath>
</defs>
</svg>
