<svg width="50" height="50" viewBox="0 0 50 50" fill="none" xmlns="http://www.w3.org/2000/svg">
<path d="M45.6439 11.7203C45.6439 8.98184 44.4909 6.38812 42.329 4.37035C38.4375 0.767176 31.9518 0.767176 28.0603 4.37035L25.322 6.82008L22.5835 4.37035C18.6921 0.767176 12.2064 0.767176 8.31499 4.37035C6.15309 6.38812 5 9.12597 5 11.7203" stroke="#316DFF" stroke-width="1.5" stroke-miterlimit="10" stroke-linecap="round" stroke-linejoin="round"/>
<path d="M45.6439 11.7188C45.6439 20.5105 42.0407 24.6907 40.167 29.591C38.2934 34.4914 37.5727 47.7505 33.3931 47.7505C30.6546 47.7505 29.6458 41.9858 29.3575 38.0944C29.2134 35.9325 27.4839 34.3469 25.322 34.3469C23.1601 34.3469 21.4306 35.9325 21.2864 38.0944C20.9982 41.9858 19.9892 47.7505 17.2508 47.7505C13.0711 47.7505 12.3506 34.4914 10.4769 29.591C8.60325 24.6907 5 20.5105 5 11.7188" stroke="#316DFF" stroke-width="1.5" stroke-miterlimit="10" stroke-linecap="round" stroke-linejoin="round"/>
<path d="M25.3218 6.82031L22.7275 9.41502" stroke="#316DFF" stroke-width="2" stroke-miterlimit="10" stroke-linecap="round" stroke-linejoin="round"/>
</svg>
