<svg width="26" height="26" viewBox="0 0 26 26" fill="none" xmlns="http://www.w3.org/2000/svg">
<path d="M23.3219 6.36208C23.3219 4.99287 22.7454 3.69601 21.6645 2.68713C19.7188 0.885541 16.4759 0.885541 14.5302 2.68713L13.161 3.91199L11.7918 2.68713C9.84605 0.885541 6.60321 0.885541 4.6575 2.68713C3.57654 3.69601 3 5.06494 3 6.36208" stroke="white" stroke-width="1.5" stroke-miterlimit="10" stroke-linecap="round" stroke-linejoin="round"/>
<path d="M23.3219 6.36328C23.3219 10.7591 21.5203 12.8493 20.5835 15.2994C19.6467 17.7496 19.2864 24.3791 17.1965 24.3791C15.8273 24.3791 15.3229 21.4968 15.1788 19.5511C15.1067 18.4701 14.2419 17.6774 13.161 17.6774C12.08 17.6774 11.2153 18.4701 11.1432 19.5511C10.9991 21.4968 10.4946 24.3791 9.1254 24.3791C7.03556 24.3791 6.67528 17.7496 5.73845 15.2994C4.80162 12.8493 3 10.7591 3 6.36328" stroke="white" stroke-width="1.5" stroke-miterlimit="10" stroke-linecap="round" stroke-linejoin="round"/>
<path d="M13.1609 3.91406L11.8638 5.21142" stroke="white" stroke-width="2" stroke-miterlimit="10" stroke-linecap="round" stroke-linejoin="round"/>
</svg>
