<svg width="25" height="25" viewBox="0 0 25 25" fill="none" xmlns="http://www.w3.org/2000/svg">
<ellipse cx="9.50426" cy="15.8382" rx="0.32213" ry="0.322575" fill="white"/>
<ellipse cx="11.5018" cy="15.8382" rx="0.32213" ry="0.322575" fill="white"/>
<ellipse cx="13.4989" cy="15.8382" rx="0.32213" ry="0.322575" fill="white"/>
<ellipse cx="15.4315" cy="15.8382" rx="0.32213" ry="0.322575" fill="white"/>
<ellipse cx="10.4706" cy="17.4476" rx="0.32213" ry="0.322575" fill="white"/>
<ellipse cx="12.4681" cy="17.4476" rx="0.32213" ry="0.322575" fill="white"/>
<ellipse cx="14.4652" cy="17.4476" rx="0.32213" ry="0.322575" fill="white"/>
<ellipse cx="11.5018" cy="19.0609" rx="0.32213" ry="0.322575" fill="white"/>
<ellipse cx="13.4994" cy="19.0609" rx="0.32213" ry="0.322575" fill="white"/>
<ellipse cx="11.5018" cy="13.9007" rx="0.32213" ry="0.322575" fill="white"/>
<ellipse cx="13.4994" cy="13.9007" rx="0.32213" ry="0.322575" fill="white"/>
<ellipse cx="12.4681" cy="20.6741" rx="0.32213" ry="0.322575" fill="white"/>
<path d="M5.70309 15.3225L2.15967 11.7742C0.613444 10.2258 0.613444 7.70963 2.15967 6.16127C3.70589 4.61291 6.21847 4.61291 7.76469 6.16127L11.3081 9.7096" stroke="white" stroke-width="1.5" stroke-miterlimit="10" stroke-linecap="round" stroke-linejoin="round"/>
<path d="M3.06169 10.8688C2.03087 9.83658 2.03087 8.09474 3.06169 7.0625" stroke="white" stroke-width="1.5" stroke-miterlimit="10" stroke-linecap="round" stroke-linejoin="round"/>
<path d="M9.49923 13.546C11.0591 11.984 11.8749 10.2683 11.3213 9.714C10.7678 9.15972 9.05473 9.9768 7.49483 11.5389C5.93494 13.1009 5.11899 14.8164 5.6725 15.3707C6.22601 15.9249 7.93934 15.1081 9.49923 13.546Z" stroke="white" stroke-width="1.5" stroke-miterlimit="10" stroke-linecap="round" stroke-linejoin="round"/>
<path d="M13.6919 9.7096L17.2353 6.16127C18.7815 4.61291 21.2941 4.61291 22.8403 6.16127C24.3866 7.70963 24.3866 10.2258 22.8403 11.7742L19.2969 15.3225" stroke="white" stroke-width="1.5" stroke-miterlimit="10" stroke-linecap="round" stroke-linejoin="round"/>
<path d="M15.426 13.5074C16.9859 15.0694 18.6992 15.8863 19.2527 15.332C19.8062 14.7777 18.9903 13.0623 17.4304 11.5002C15.8705 9.93815 14.1574 9.12107 13.6039 9.67535C13.0504 10.2296 13.8661 11.9453 15.426 13.5074Z" stroke="white" stroke-width="1.5" stroke-miterlimit="10" stroke-linecap="round" stroke-linejoin="round"/>
</svg>
