<svg width="50" height="50" viewBox="0 0 50 50" fill="none" xmlns="http://www.w3.org/2000/svg">
<path d="M29.5145 49.9984C28.1866 49.9984 26.9786 49.2265 26.3619 47.9842C25.9202 47.0992 25.8037 46.2666 25.7142 45.4213L25.7126 45.4025C25.6563 44.7941 25.6325 44.1895 25.6198 43.5943C24.5879 44.656 23.4792 44.8957 22.6886 44.8957C22.3629 44.8957 22.0366 44.8548 21.7185 44.7736C20.8583 44.5539 20.0986 44.0691 19.5299 43.3862C19.2351 45.2413 18.6388 47.3062 17.216 48.5799C16.4303 49.2834 15.4586 49.6549 14.4063 49.6549C13.5632 49.6549 12.714 49.4109 11.9499 48.9488C10.2416 47.9174 9.22405 46.2318 8.52838 44.8791L8.5212 44.8653L8.51458 44.8515C6.78589 41.3036 5.94446 37.1985 6.01403 32.6513C6.0201 32.2223 5.98697 31.7557 5.90581 31.1396C5.62147 29.115 5.03898 27.0754 4.45208 25.1728C3.70727 22.7965 2.81339 20.3296 1.72019 17.6309L1.44081 16.9534L1.41597 16.859C0.882069 14.8161 0.86164 12.638 1.35744 10.5593C1.8665 8.4248 2.89952 6.49348 4.34497 4.9735C6.19954 2.98642 8.86793 1.79991 11.4839 1.79991C11.7263 1.79991 11.9703 1.80985 12.2099 1.83028C13.1066 1.89708 13.9712 2.05775 14.785 2.30841C15.1847 2.22725 15.4906 2.04008 16.0632 1.67458C17.1707 0.967866 18.6868 0 21.5971 0C24.5073 0 26.0378 1.07056 26.9974 1.77893C27.6792 2.28246 27.9663 2.49448 28.9607 2.49945C29.8192 2.23277 30.7335 2.03953 31.7412 1.91199C32.1884 1.85347 32.6373 1.82365 33.0762 1.82365C34.4421 1.82365 35.7485 2.10579 36.9604 2.66177C38.1005 3.18518 39.1302 3.93827 40.0191 4.90062C41.7047 6.72427 42.7836 9.19887 43.0569 11.8695C43.2054 13.2393 43.1055 14.6748 42.7687 16.022C42.4887 17.2046 41.9962 18.2735 41.5954 19.0763C40.9941 20.3605 40.4619 21.7557 39.9678 23.3409C38.6217 27.7987 37.9144 32.1025 37.8658 36.1319V36.1484L37.8653 36.165C37.74 39.7521 36.506 44.6836 34.033 47.6165L34.0258 47.6248C33.6073 48.1134 32.9222 48.7997 32.0349 49.2938L32.0272 49.2983C31.2167 49.7427 30.3647 49.9851 29.5625 50H29.5145V49.9984Z" fill="white"/>
<path d="M39.7256 17.6165C36.9363 23.1543 35.466 31.0722 35.4097 35.959C35.3622 40.0905 33.2487 46.9838 29.8852 47.399C28.6655 47.5497 28.9609 42.8048 28.803 41.8203C28.6777 41.0374 28.6225 37.5436 27.5044 37.6159C27.1577 37.6391 26.8745 37.8887 26.6199 38.125C26.2517 38.4673 25.8801 38.814 25.6095 39.2375C25.1364 39.9768 25.0099 40.8873 24.6014 41.6646C24.5263 41.806 24.4346 41.9501 24.2905 42.0186C24.1823 42.0693 24.0592 42.0716 23.9399 42.0693C23.3448 42.0578 22.7236 41.9418 22.2245 41.6348C22.0721 41.5415 21.9319 41.4311 21.8071 41.2997C21.4907 40.9679 21.3025 40.5383 21.1203 40.1176C20.6819 39.1067 20.2429 38.0946 19.8046 37.0831C19.6693 36.7712 19.5296 36.4526 19.2977 36.2042C18.501 35.35 18.2144 36.1909 17.9842 36.9092C17.7512 37.6342 17.5751 38.3768 17.4172 39.1216C17.2819 39.762 17.3719 47.4652 14.3976 47.029C11.6735 46.6299 8.81019 39.9348 8.95098 32.8843C9.05588 27.6281 4.16244 16.2544 4.16244 16.2544C2.93508 11.4841 5.24956 6.6028 9.07852 4.99779C10.0867 4.57597 11.1998 4.38052 12.3807 4.47438C12.6458 4.49536 12.9008 4.48266 13.1637 4.47604C13.4232 4.46996 13.6672 4.54781 13.9256 4.59253C14.5202 4.69412 15.127 4.71455 15.7283 4.66762C16.9628 4.57045 18.1686 4.19556 19.274 3.6451C19.6765 3.44468 20.0712 3.22107 20.5008 3.08745C20.9883 2.93617 21.5045 2.90691 22.0147 2.89642C22.5939 2.88427 23.1824 2.89642 23.7379 3.05985C24.2889 3.22272 24.7847 3.52805 25.2921 3.79803C26.3367 4.35347 27.479 4.7659 28.6622 4.8824C29.8934 5.00331 31.0242 4.62677 32.2306 4.47438C37.1102 3.85987 40.3495 7.76391 40.7658 12.3774C40.9287 14.1784 40.5483 15.9828 39.7256 17.6165Z" fill="white"/>
<path d="M21.562 38.9659C21.7789 39.857 21.9048 40.7934 22.4663 41.5067C20.4246 39.9017 20.6791 37.9732 19.3093 36.0971C18.0488 34.6141 17.6877 38.2785 17.4288 39.0145C17.0357 50.8657 7.70705 46.0943 8.96313 32.7772C8.49162 21.1766 0.559856 15.8227 5.45827 8.00574C7.34873 4.9227 10.2954 4.25354 13.702 4.5434C14.115 4.49757 14.5274 4.56383 14.91 4.72229C14.9625 4.74437 15.6902 5.23797 15.62 5.25177C14.4738 5.47593 13.3227 5.6769 12.1682 5.85413C11.5802 5.94468 10.9828 6.03136 10.4384 6.27098C9.894 6.5106 9.3993 6.92911 9.20772 7.49227C9.12766 7.72803 9.10392 7.97979 9.10944 8.2288C9.11496 8.48278 9.1525 8.74061 9.26624 8.96754C9.52684 9.48874 10.1275 9.62843 10.6454 9.76425C11.2898 9.93375 11.9954 9.9735 12.6568 10.037C13.665 10.1342 14.6881 10.2082 15.7018 10.1883C11.949 10.4207 8.96423 12.9356 8.96202 16.5603C8.76988 19.2949 10.8735 23.5899 12.0804 25.9336C12.6126 25.5886 12.6684 23.4955 12.6226 22.701C14.2304 26.0253 13.1802 30.3832 12.9627 34.0691C12.9053 35.0475 12.3388 40.9309 14.3656 42.4012C13.7467 36.6911 15.3832 34.3656 16.0203 33.6992C15.8911 34.1851 15.6322 34.7466 15.7216 35.281C16.139 33.9604 17.3206 33.2012 18.5275 32.6833C19.4733 32.0075 20.1772 31.5956 21.3853 31.6188C22.579 31.4786 23.6203 32.2482 24.391 33.0808C24.74 33.4662 25.1778 33.4701 25.6515 33.6611C26.6895 34.0802 27.3173 34.2546 28.3409 35.233C31.0728 37.8429 30.4478 43.0626 30.4478 43.0626C30.4478 43.0626 32.9671 42.2173 32.5249 36.9479C32.2427 33.5811 30.8464 25.0569 35.2728 20.8376C35.0398 21.6619 34.8007 22.3818 34.8769 23.6942C35.116 21.7933 37.4133 17.9152 38.7804 16.8899C37.7799 22.3228 36.3853 27.6982 35.8194 33.2001C35.286 36.1203 35.3125 42.6678 33.3022 44.9752C27.6723 49.9641 28.7931 43.5783 28.4756 40.471C28.1184 39.7173 27.7617 38.9631 27.405 38.2089C27.299 37.9848 27.1847 37.7507 26.9838 37.6055C26.3334 37.2096 25.7802 38.0361 25.5571 38.5579C25.2672 39.1354 24.873 39.6604 24.3993 40.0994C23.8301 40.4919 24.243 37.6966 23.9957 37.3531C23.8593 36.8435 23.5065 36.3549 22.9958 36.2241C20.7404 35.8939 21.0314 37.3885 21.5609 38.9631L21.562 38.9659Z" fill="#316DFF" fill-opacity="0.1"/>
<path d="M21.8021 3.5805C23.9405 4.59971 22.9853 7.73299 21.3245 8.70693C18.9432 10.1038 14.3877 10.2446 14.3877 10.2446C14.3877 10.2446 18.7627 11.743 21.8838 11.5741C25.005 11.4051 26.9882 10.0293 29.1757 8.29836C30.2915 7.33712 32.0329 6.90868 33.0847 6.63262C34.1365 6.35656 36.3996 6.26822 37.5298 7.34596C35.4318 4.91055 31.9363 4.804 28.9085 4.77308C27.0219 4.42248 25.5218 3.01733 23.729 2.39786C22.4845 2.14775 21.1545 2.17204 19.9117 2.4089C19.3783 2.5276 18.6876 3.10402 19.5428 3.40492C20.2507 3.65393 21.0672 3.28677 21.8021 3.58105V3.5805Z" fill="#EFF0FE"/>
<path d="M13.87 10.1739C16.031 10.1734 18.2224 10.1971 20.3248 9.65934C21.3258 9.39819 22.2291 8.99459 23.0507 8.39444C23.9219 7.75839 24.601 7.01966 25.4507 6.27098C26.6245 5.20925 28.0556 4.36506 29.5745 3.91453C30.5208 3.62301 31.4882 3.43419 32.4687 3.33039C33.9291 3.18739 35.4297 3.4237 36.7576 4.06913C40.5308 5.91652 42.3323 10.4743 41.8343 14.4998C41.677 15.7144 41.306 16.8976 40.766 17.9947C39.9831 19.5843 39.3586 21.239 38.8275 22.9434C37.5946 27.0219 36.7874 31.319 36.6687 35.5792C36.6532 38.8847 35.6953 42.8754 33.9263 45.6874C33.06 47.0506 31.7642 48.3442 30.078 48.5639C29.1389 48.7031 28.2936 48.1874 27.8883 47.3702C27.1789 45.9938 27.3279 43.4596 27.2689 41.9037C27.2352 40.7432 27.2247 39.6301 26.9453 38.5363C26.3998 36.6784 25.6108 34.5682 23.52 34.1696C23.0159 34.057 22.4516 34.0255 21.9221 34.0382C21.4031 34.0437 20.9819 34.2502 20.6064 34.6218C19.7992 35.4422 19.3498 36.7668 19.0285 37.9367C18.918 38.3309 18.7712 38.999 18.7154 39.2425C18.5674 41.3825 18.4819 43.5733 17.7166 45.6355C17.3566 46.5896 16.7013 47.6496 15.6473 48.0543C14.4856 48.5192 13.2202 48.0681 12.3169 47.3084C8.89706 44.3606 7.59184 37.3172 7.68681 32.9743C7.72932 31.6011 7.48584 30.2617 7.19376 28.9112C6.22479 24.7179 4.71143 20.6079 3.08544 16.6166C1.37276 10.7851 5.06976 3.43529 11.6102 3.26855C13.1572 3.27242 14.7274 3.59761 16.1105 4.32973C18.5702 5.65923 18.6298 7.31338 21.7361 7.72085C21.4633 7.81692 21.1817 7.88759 20.8913 7.93452C18.515 8.33591 17.3114 6.72593 15.3342 6.00762C14.2824 5.61782 13.1495 5.46489 12.021 5.42403C10.2105 5.36992 8.4802 6.17988 7.25726 7.51932C5.23098 9.70462 4.548 12.9941 5.32042 15.8536L5.26134 15.6802C5.85046 17.0423 6.40368 18.4298 6.9304 19.815C8.23617 23.3309 9.48948 26.8855 10.0736 30.6206C10.1719 31.3085 10.2415 32.0257 10.2348 32.7291C10.1912 36.4946 10.9035 40.6747 12.8408 43.9333C13.2207 44.5379 13.9545 45.5499 14.6446 45.6377C14.6739 45.6371 14.6772 45.6349 14.6905 45.6311C14.7804 45.5886 14.8506 45.5002 14.9345 45.3876C15.2299 44.9597 15.4198 44.3524 15.5567 43.8036C15.899 42.3896 15.9973 40.8812 16.0818 39.4004C16.0956 39.2088 16.1017 39.0255 16.1353 38.8174C16.2408 38.2917 16.359 37.7821 16.4981 37.2587C17.1485 34.7388 18.5205 31.7248 21.4843 31.4355C24.4348 31.2356 26.8592 32.1925 28.3024 34.8774C28.8374 35.8668 29.1632 36.8225 29.458 37.85L29.5 38.0118C29.5265 38.1189 29.5502 38.2255 29.5717 38.3304C29.9422 40.2264 29.8329 42.1571 29.8953 44.0365C29.9063 44.3882 29.9223 44.7328 29.9516 45.0591C29.9963 45.4792 30.0339 45.8685 30.1725 46.1854C30.1818 46.2047 30.1857 46.2069 30.1725 46.1909C30.1592 46.1744 30.125 46.1385 30.0648 46.1004C29.9814 46.0435 29.8141 46.0032 29.7479 46.0165C31.3634 45.7454 32.551 43.0565 33.0722 41.5989C33.6398 39.9834 34.0152 38.273 34.1455 36.5653C34.1566 36.3969 34.167 36.2285 34.172 36.0623C34.1974 34.3601 34.3514 32.6623 34.5861 31.0026C35.3011 26.1655 36.5373 21.3709 38.732 16.976C38.8805 16.6845 39.0119 16.3847 39.1295 16.0805C39.4795 15.1717 39.6761 14.2055 39.7032 13.2332C39.7904 9.37831 37.3351 5.24017 33.1241 5.31802C32.4577 5.32686 31.7852 5.43617 31.1337 5.56316C29.4591 5.88836 27.9562 6.59176 26.6306 7.67999C25.4921 8.59872 24.2697 9.71621 22.853 10.2816C20.0548 11.4438 16.7062 10.9607 13.87 10.1745V10.1739Z" fill="#316DFF"/>
<path d="M29.2351 5.9905C27.0939 5.9905 26.1001 5.22527 25.2239 4.55002C24.4106 3.92337 23.7083 3.38284 21.8344 3.38284C19.9606 3.38284 19.017 3.90956 18.09 4.46776C17.1469 5.03478 16.0791 5.678 14.1235 5.59463L14.2052 3.67657C15.5833 3.73509 16.2199 3.35247 17.1006 2.82244C18.1076 2.21676 19.3609 1.46312 21.835 1.46312C24.3091 1.46312 25.49 2.3316 26.3955 3.02948C27.1514 3.61142 27.7482 4.07133 29.2356 4.07133V5.99106L29.2351 5.9905Z" fill="#316DFF"/>
<path d="M22.9256 43.4806C22.6871 43.4806 22.4779 43.4458 22.3111 43.4033C21.6237 43.2277 21.0313 42.7904 20.6437 42.172C19.9304 41.0341 19.4059 39.921 18.8515 38.7428C18.5048 38.0063 18.1465 37.2449 17.7285 36.4548L19.6377 35.445C20.0789 36.2793 20.4483 37.0644 20.806 37.823C21.3322 38.941 21.8297 39.9972 22.474 41.0247C22.5645 41.1694 22.7004 41.2737 22.8461 41.3107C23.3701 41.4443 24.0404 39.8824 24.3324 39.1972C24.5974 38.522 24.8398 37.9925 25.054 37.5248C25.3489 36.8816 25.5813 36.3737 25.7403 35.7619L27.8307 36.3052C27.6242 37.1008 27.3431 37.7142 27.0174 38.4248C26.8137 38.8698 26.5823 39.3739 26.3377 40L26.3256 40.0298C26.0495 40.6774 25.6708 41.5647 25.1363 42.256C24.376 43.2393 23.5523 43.4811 22.9267 43.4811L22.9256 43.4806Z" fill="#316DFF"/>
<path d="M37.4124 20.62C36.4064 20.62 35.5882 19.8018 35.5882 18.7958V14.7687H31.561C30.5551 14.7687 29.7368 13.9504 29.7368 12.9445V9.16023C29.7368 8.15426 30.5551 7.33602 31.561 7.33602H35.5882V3.30886C35.5882 2.30289 36.4064 1.48465 37.4124 1.48465H41.1966C42.2026 1.48465 43.0208 2.30289 43.0208 3.30886V7.33602H47.048C48.054 7.33602 48.8722 8.15426 48.8722 9.16023V12.9445C48.8722 13.9504 48.054 14.7687 47.048 14.7687H43.0208V18.7958C43.0208 19.8018 42.2026 20.62 41.1966 20.62H37.4124Z" fill="white"/>
<path d="M47.7326 9.15967V12.9439C47.7326 13.3204 47.4245 13.628 47.0485 13.628H41.8812V18.7953C41.8812 19.1718 41.5731 19.4793 41.1971 19.4793H37.4129C37.0363 19.4793 36.7288 19.1713 36.7288 18.7953V13.628H31.5615C31.185 13.628 30.8774 13.3199 30.8774 12.9439V9.15967C30.8774 8.78313 31.1855 8.47559 31.5615 8.47559H36.7288V3.3083C36.7288 2.93176 37.0369 2.62423 37.4129 2.62423H41.1971C41.5737 2.62423 41.8812 2.93231 41.8812 3.3083V8.47559H47.0485C47.425 8.47559 47.7326 8.78368 47.7326 9.15967Z" fill="#316DFF"/>
<path d="M31.5 13.6252L37.6727 12.8633L36.7286 18.7958V13.6285L31.5 13.6252Z" fill="#316DFF"/>
<path d="M47.1102 8.48222L40.9375 9.2447L41.8816 3.31161V8.47946L47.1102 8.48222Z" fill="#316DFF"/>
</svg>
