<svg width="35" height="25" viewBox="0 0 35 25" fill="none" xmlns="http://www.w3.org/2000/svg">
<path fill-rule="evenodd" clip-rule="evenodd" d="M27.6123 6.85723C28.8786 5.08311 31.2722 3.17324 34.5307 1.58328C35.3776 1.17009 34.9956 -0.110569 34.0608 0.00767517C27.2142 0.873714 22.7765 3.87227 20.3532 8.33147C19.4519 9.98997 18.8856 11.7553 18.584 13.5573C18.3852 14.7455 18.3327 15.6372 18.3327 16.667C18.3327 21.2692 22.0635 25 26.6657 25C31.2678 25 34.9986 21.2692 34.9986 16.667C34.9986 12.0649 31.2083 8.33147 26.8526 8.33147C27.0824 7.70054 27.1376 7.52224 27.6123 6.85723ZM9.27975 6.85723C10.5461 5.08311 12.9396 3.17324 16.1982 1.58328C17.045 1.17009 16.663 -0.110569 15.7282 0.00767517C8.88163 0.873714 4.44396 3.87227 2.02063 8.33147C1.11932 9.98997 0.553059 11.7553 0.251499 13.5573C0.0526695 14.7455 0.000160217 15.6372 0.000160217 16.667C0.000160217 21.2692 3.73096 25 8.33313 25C12.9353 25 16.6661 21.2692 16.6661 16.667C16.6661 12.0649 12.8758 8.33147 8.52009 8.33147C8.74988 7.70054 8.80507 7.52224 9.27975 6.85723Z" fill="#316DFF"/>
</svg>
