<svg width="35" height="25" viewBox="0 0 35 25" fill="none" xmlns="http://www.w3.org/2000/svg">
<path fill-rule="evenodd" clip-rule="evenodd" d="M7.38772 6.86113C6.12139 5.08702 3.72784 3.17714 0.469255 1.58719C-0.377569 1.174 0.0044356 -0.106663 0.939237 0.0115814C7.78584 0.877621 12.2235 3.87617 14.6468 8.33537C15.5481 9.99387 16.1144 11.7592 16.416 13.5612C16.6148 14.7494 16.6673 15.6411 16.6673 16.6709C16.6673 21.2731 12.9365 25.0039 8.33434 25.0039C3.73217 25.0039 0.00137113 21.2731 0.00137113 16.6709C0.00137113 12.0688 3.79169 8.33537 8.14738 8.33537C7.91759 7.70444 7.8624 7.52615 7.38772 6.86113ZM25.7203 6.86113C24.4539 5.08702 22.0604 3.17714 18.8018 1.58719C17.955 1.174 18.337 -0.106663 19.2718 0.0115814C26.1184 0.877621 30.556 3.87617 32.9794 8.33537C33.8807 9.99387 34.4469 11.7592 34.7485 13.5612C34.9473 14.7494 34.9998 15.6411 34.9998 16.6709C34.9998 21.2731 31.269 25.0039 26.6669 25.0039C22.0647 25.0039 18.3339 21.2731 18.3339 16.6709C18.3339 12.0688 22.1242 8.33537 26.4799 8.33537C26.2501 7.70444 26.1949 7.52615 25.7203 6.86113Z" fill="#316DFF"/>
</svg>
