<svg width="121" height="126" viewBox="0 0 121 126" fill="none" xmlns="http://www.w3.org/2000/svg">
<path d="M5.52416 73.5168L26.3775 72.7409L17.7805 79.8065L16.2951 91.5581L5.52416 73.5168Z" fill="white"/>
<path d="M12.0599 75.2847C11.954 75.3968 11.9791 75.6476 12.138 75.9995C12.2203 76.187 12.331 76.3919 12.4703 76.6141C12.5357 76.7324 12.6153 76.8593 12.7091 76.995L12.8427 77.1942C12.8968 77.2663 12.9366 77.3298 12.9906 77.402C13.2068 77.6906 13.4515 77.9967 13.7246 78.3201C13.7929 78.4009 13.8612 78.4818 13.9437 78.5713C14.012 78.6522 14.0946 78.7417 14.1771 78.8313C14.3279 79.0016 14.5016 79.1663 14.681 79.3541C15.034 79.7065 15.3983 80.105 15.8311 80.4865C16.0475 80.6772 16.2553 80.8823 16.486 81.0817C16.5971 81.1886 16.7167 81.2811 16.8277 81.388C16.9387 81.4949 17.0584 81.5874 17.1923 81.6886C19.1261 83.2984 21.6332 85.0221 24.6118 86.5425C24.8056 86.641 24.9766 86.7451 25.179 86.8292L25.7548 87.1015C26.1511 87.2841 26.5245 87.4723 26.9436 87.6491C27.3484 87.8173 27.7675 87.9941 28.1724 88.1623C28.3748 88.2464 28.5914 88.3391 28.7939 88.4232C29.0049 88.4929 29.2216 88.5857 29.4326 88.6554C29.6436 88.7251 29.8603 88.8178 30.0713 88.8875C30.2966 88.9659 30.499 89.05 30.7328 89.114C31.1691 89.262 31.614 89.3957 32.0646 89.5525C32.1815 89.5845 32.2898 89.6309 32.4068 89.6628L32.7119 89.7702C32.9457 89.8342 33.1654 89.8895 33.3992 89.9535C33.6331 90.0175 33.8669 90.0815 34.0866 90.1368C34.3204 90.2008 34.5629 90.2504 34.7825 90.3057C35.0164 90.3697 35.2959 90.4223 35.5811 90.498C35.7352 90.5329 35.8892 90.5679 36.0575 90.6116C36.2258 90.6552 36.4026 90.6845 36.5795 90.7138C36.9475 90.781 37.344 90.8656 37.7633 90.9444C37.866 90.9678 37.9687 90.9911 38.0942 91.0087C38.2055 91.0176 38.3225 91.0496 38.4338 91.0585C38.662 91.0995 38.8988 91.126 39.1412 91.1756C41.0955 91.4832 43.5378 91.7546 46.386 91.8023C47.1023 91.807 47.8329 91.8204 48.6036 91.7994C48.9831 91.8147 49.3656 91.7927 49.7623 91.7793C50.1448 91.7573 50.5502 91.7295 50.9555 91.7017C51.1582 91.6878 51.3608 91.674 51.5635 91.6601C51.6606 91.6603 51.7662 91.6462 51.8718 91.6321C51.9775 91.6179 52.0745 91.6182 52.1801 91.604C52.5941 91.5619 53.008 91.5198 53.4362 91.4863C53.6389 91.4724 53.8587 91.4298 54.07 91.4015C54.2813 91.3732 54.4925 91.345 54.7038 91.3167C55.1349 91.2458 55.5717 91.1979 56.0115 91.1126C56.4512 91.0273 56.8966 90.9651 57.3506 90.8885C57.4562 90.8743 57.5704 90.8458 57.6847 90.8173C57.7989 90.7888 57.9045 90.7746 58.0188 90.7461C58.2472 90.6891 58.4671 90.6464 58.7098 90.5981C58.9383 90.541 59.1724 90.5071 59.4008 90.45C59.6293 90.393 59.8578 90.336 60.0863 90.2789C60.3147 90.2219 60.5432 90.1649 60.7802 90.0934C60.8945 90.0649 61.0087 90.0364 61.1315 89.9935L61.3143 89.9479L61.4828 89.8936C61.9484 89.7651 62.4225 89.6223 62.8966 89.4794C63.0195 89.4365 63.1337 89.4081 63.2565 89.3652C63.3793 89.3223 63.4936 89.2937 63.6164 89.2508C63.8535 89.1794 64.0849 89.0849 64.3305 88.9991C64.5762 88.9133 64.8133 88.8419 65.0447 88.7474C65.2761 88.6529 65.5218 88.5671 65.7532 88.4726C65.9846 88.3782 66.2303 88.2924 66.4703 88.1835C66.5931 88.1406 66.7159 88.0977 66.8245 88.0461C66.9474 88.0032 67.0645 87.9373 67.1874 87.8944C67.6674 87.6766 68.1531 87.482 68.6331 87.2642C68.8731 87.1554 69.1131 87.0465 69.3617 86.9232C69.6017 86.8144 69.8361 86.6824 70.0761 86.5736C71.0391 86.1007 71.9994 85.5672 72.9627 84.9964C73.9259 84.4255 74.8693 83.8229 75.8043 83.1367C76.7307 82.4648 77.6458 81.7469 78.5297 80.9511C78.7614 80.7586 78.9645 80.5488 79.1819 80.3477C79.3993 80.1466 79.6025 79.9368 79.8285 79.7213C80.0317 79.5115 80.2435 79.2873 80.4466 79.0775C80.5525 78.9654 80.6498 78.8677 80.7557 78.7556C80.8616 78.6435 80.9674 78.5314 81.0591 78.4106C81.8548 77.5022 82.6164 76.5533 83.3153 75.5467C83.4843 75.2965 83.6762 75.0406 83.8452 74.7903C84 74.5314 84.1776 74.2668 84.3324 74.0079C84.679 73.4931 84.9687 72.9435 85.2726 72.4026C85.4359 72.1293 85.5622 71.853 85.7113 71.5711C85.8519 71.3035 85.9868 71.0128 86.1359 70.7308C86.2622 70.4545 86.397 70.1639 86.5177 69.8646L86.7157 69.4358L86.7616 69.3264L86.8075 69.217L86.8994 68.9983C87.0201 68.699 87.1321 68.414 87.2527 68.1147L87.3446 67.8959C87.3733 67.8153 87.3935 67.7491 87.4222 67.6685L87.5775 67.2137C87.6753 66.9201 87.7817 66.612 87.8794 66.3184C87.963 66.0161 88.0551 65.6994 88.1386 65.3971L88.2711 64.948C88.3057 64.7925 88.3403 64.637 88.375 64.4815C88.4443 64.1705 88.5136 63.8595 88.5829 63.5485C88.6175 63.393 88.6521 63.2375 88.6725 63.0733L88.7622 62.5981L88.8519 62.123L88.8924 61.8926C88.8983 61.8177 88.9128 61.7284 88.9187 61.6535C88.9595 61.3251 89.0059 61.0198 89.0467 60.6915C89.0671 60.5273 89.1018 60.3718 89.0993 60.2133L89.1377 59.7265C89.1556 59.4039 89.1878 59.0899 89.2143 58.7528C89.2323 58.4302 89.2502 58.1075 89.2539 57.7762C89.2743 56.4739 89.2063 55.1571 89.027 53.8312C88.8391 52.5198 88.54 51.1994 88.0666 49.9103C87.5933 48.6211 86.9742 47.3806 86.1609 46.2375C86.1068 46.1653 86.0528 46.0932 86.013 46.0297L85.8509 45.8132C85.7428 45.6688 85.6404 45.5475 85.5323 45.4032C85.3075 45.1289 85.0456 44.8516 84.7609 44.5801C84.4762 44.3085 84.1316 44.0396 83.7383 43.8197C83.3536 43.5853 82.906 43.3911 82.4068 43.2832C81.9447 43.1783 81.4396 43.1453 80.9201 43.2015C80.4147 43.2665 79.932 43.4237 79.5033 43.6531C79.0747 43.8825 78.7172 44.1553 78.4025 44.4541C78.0878 44.753 77.8244 45.0635 77.5896 45.3913C77.1285 46.0326 76.8071 46.7003 76.5371 47.3795C76.29 48.0531 76.0942 48.7383 75.9782 49.4526C75.9492 49.6311 75.9202 49.8097 75.8912 49.9883L75.8738 50.115L75.8649 50.2273L75.8386 50.4664L75.8003 50.9533L75.7705 51.4257C75.7587 51.5755 75.7526 51.7483 75.7408 51.8981L75.7253 52.3793C75.7074 52.7019 75.7123 53.0189 75.7172 53.3358C75.7282 54.618 75.8134 55.9061 76.0043 57.1801C76.1951 58.4541 76.4773 59.7053 76.8824 60.9136C78.4311 65.8013 81.9823 70.0055 86.5439 71.9017C88.8133 72.8526 91.2698 73.1327 93.5736 72.8879C94.7327 72.7699 95.8436 72.5048 96.9004 72.1676C97.9573 71.8303 98.9772 71.3921 99.9117 70.9019C101.818 69.9243 103.505 68.6955 104.981 67.397C106.465 66.0841 107.77 64.6814 108.884 63.2408C109.024 63.0712 109.159 62.8785 109.299 62.7089C109.374 62.6168 109.425 62.5305 109.5 62.4385C109.56 62.3378 109.626 62.2602 109.686 62.1595C109.812 61.9812 109.938 61.8029 110.064 61.6246C110.19 61.4463 110.316 61.268 110.428 61.081C110.666 60.7157 110.895 60.3648 111.124 60.0138C111.339 59.6542 111.554 59.2946 111.769 58.935C112.598 57.5167 113.297 56.1183 113.894 54.7944C114.032 54.4663 114.179 54.1238 114.317 53.7957C114.454 53.4676 114.569 53.1452 114.699 52.8315C114.756 52.6703 114.828 52.5178 114.885 52.3566C114.943 52.1954 114.992 52.0486 115.049 51.8874C115.156 51.5793 115.262 51.2713 115.36 50.9777C115.745 49.7801 116.07 48.6832 116.293 47.6609C116.351 47.4018 116.414 47.1657 116.463 46.9209C116.512 46.6761 116.553 46.4457 116.608 46.224C116.648 45.9936 116.694 45.7863 116.726 45.5703C116.772 45.363 116.804 45.147 116.828 44.9453C116.865 44.7524 116.889 44.5507 116.918 44.3722C116.947 44.1936 116.976 44.0151 116.982 43.8422C117.023 43.5138 117.055 43.1999 117.084 42.9234C117.113 42.6468 117.125 42.3991 117.134 42.1888C117.143 41.9784 117.15 41.8056 117.147 41.6471C117.139 41.3676 117.128 41.2235 117.085 41.1975C117.048 41.1945 116.985 41.3327 116.905 41.5975C116.864 41.73 116.821 41.8998 116.775 42.1072C116.729 42.3145 116.688 42.5449 116.608 42.8097C116.55 43.0689 116.466 43.3712 116.388 43.6966C116.345 43.8665 116.302 44.0364 116.259 44.2063C116.215 44.3761 116.164 44.5604 116.117 44.7677C116.066 44.952 116.019 45.1593 115.959 45.358C115.899 45.5566 115.844 45.7783 115.775 45.9914C115.706 46.2044 115.651 46.4261 115.588 46.6622C115.51 46.8896 115.447 47.1257 115.36 47.3675C115.052 48.3377 114.67 49.3999 114.222 50.5397C114.11 50.8247 113.984 51.1009 113.863 51.4003C113.8 51.5384 113.742 51.6996 113.679 51.8377C113.608 51.9903 113.544 52.1284 113.473 52.2809C113.329 52.5859 113.209 52.8853 113.057 53.2047C112.913 53.5098 112.747 53.8205 112.595 54.1399C111.958 55.4002 111.213 56.7122 110.362 58.0382C110.141 58.3748 109.929 58.6969 109.7 59.0478C109.465 59.3757 109.221 59.7179 108.986 60.0458C108.494 60.7072 107.984 61.3974 107.426 62.0384C106.33 63.3523 105.056 64.637 103.629 65.7886C102.208 66.9634 100.624 68.0196 98.8867 68.8449C97.1493 69.6702 95.2585 70.2646 93.2974 70.4238C92.3211 70.4962 91.3309 70.4619 90.358 70.3009C90.107 70.2657 89.8731 70.2017 89.6306 70.1521C89.5051 70.1345 89.3882 70.1025 89.2712 70.0705C89.1543 70.0385 89.0374 70.0065 88.9062 69.9658C88.6581 69.8931 88.4328 69.8148 88.1933 69.7277C87.9624 69.6263 87.7229 69.5392 87.492 69.4378C85.6532 68.6119 83.9727 67.2937 82.6383 65.6566C81.964 64.8337 81.3698 63.9418 80.8699 62.9897C80.37 62.0376 79.9644 61.0253 79.6446 59.9671C79.0192 57.8593 78.7424 55.591 78.7882 53.3034C78.8032 53.0182 78.7953 52.7387 78.8189 52.4391C78.8339 52.1539 78.8489 51.8687 78.8781 51.5922L78.9192 51.1659L78.9602 50.7396L78.9922 50.5236L79.001 50.4112L79.0155 50.3219C79.0329 50.1952 79.0504 50.0685 79.0821 49.9504C79.1804 49.4609 79.3243 48.9599 79.5167 48.5081C79.6948 48.0475 79.9299 47.6217 80.1962 47.2737C80.4625 46.9258 80.7428 46.6845 80.9686 46.567C81.0772 46.5154 81.1772 46.4782 81.2742 46.4784C81.3879 46.6458 81.4992 46.6548 81.6162 46.6868C81.7188 46.7101 81.8414 46.7651 81.9697 46.8433C82.0979 46.9214 82.2517 47.0543 82.4055 47.1872C82.5506 47.3346 82.7157 47.5136 82.8722 47.7071L83.1083 48.0275L83.2306 48.1805C83.279 48.2296 83.3045 48.2845 83.3443 48.3479C84.5215 50.0855 85.2125 52.2136 85.4723 54.4127C85.6094 55.5165 85.6408 56.6345 85.6036 57.7697C85.5887 58.0549 85.5737 58.3401 85.5673 58.6109C85.538 58.8874 85.5002 59.1783 85.4852 59.4635L85.4441 59.8898C85.4323 60.0396 85.4063 60.1807 85.3889 60.3075C85.3368 60.5897 85.3075 60.8662 85.2554 61.1485C85.2495 61.2234 85.2294 61.2896 85.2235 61.3645L85.1488 61.5544L85.0564 61.9691L84.9641 62.3837C84.938 62.5248 84.912 62.666 84.8717 62.7984C84.8054 63.0719 84.739 63.3455 84.6727 63.619C84.6324 63.7515 84.6063 63.8926 84.566 64.025L84.4452 64.4223C84.3646 64.6872 84.284 64.952 84.1948 65.2313C84.1142 65.4962 84.0108 65.7667 83.916 66.0229L83.8037 66.4058C83.7835 66.4721 83.7634 66.5383 83.729 66.5958L83.6543 66.7858C83.5509 67.0563 83.4561 67.3125 83.347 67.56L83.2723 67.75L83.2349 67.845L83.1976 67.94L83.0254 68.3256C82.9163 68.5731 82.7844 68.8263 82.6753 69.0738C82.552 69.3126 82.42 69.5658 82.2967 69.8047C82.1734 70.0435 82.0415 70.2967 81.9039 70.5268C81.6201 71.0015 81.3592 71.4705 81.0556 71.9134C80.9038 72.1349 80.7662 72.365 80.6144 72.5865C80.4625 72.8079 80.2965 73.0207 80.1446 73.2422C79.5231 74.1194 78.8247 74.9301 78.1292 75.7033C78.0461 75.8097 77.9574 75.893 77.8602 75.9908C77.7629 76.0885 77.6742 76.1718 77.5912 76.2782C77.4052 76.4592 77.2335 76.6489 77.0475 76.83C76.8615 77.011 76.6613 77.1834 76.4753 77.3644C76.2894 77.5454 76.1034 77.7265 75.8975 77.8758C75.1053 78.5508 74.3017 79.1797 73.4726 79.7538C72.6349 80.3423 71.7802 80.8616 70.9113 81.3722C70.0509 81.8685 69.1707 82.3329 68.2792 82.7513C68.0621 82.8545 67.8449 82.9576 67.6049 83.0665C67.3877 83.1696 67.1563 83.2641 66.9391 83.3673C66.4991 83.5506 66.0592 83.7338 65.6192 83.9171C65.5106 83.9686 65.402 84.0202 65.2878 84.0487C65.1792 84.1003 65.065 84.1288 64.9564 84.1804C64.7336 84.2605 64.5107 84.3406 64.3022 84.4294C64.0794 84.5095 63.8566 84.5896 63.648 84.6784C63.4338 84.7441 63.211 84.8242 62.9967 84.8899C62.7825 84.9556 62.5597 85.0357 62.3455 85.1014C62.2455 85.1386 62.1313 85.1672 62.0227 85.2187C61.9227 85.2559 61.8085 85.2845 61.6942 85.313C61.2516 85.4357 60.8317 85.5528 60.4033 85.6842L60.2434 85.7241L60.0834 85.764C59.9692 85.7926 59.8778 85.8154 59.7636 85.8439C59.558 85.8952 59.3295 85.9522 59.1239 86.0036C58.9183 86.0549 58.6984 86.0976 58.4928 86.1489C58.2729 86.1915 58.0759 86.2285 57.856 86.2711C57.6504 86.3225 57.4391 86.3507 57.2335 86.4021C57.1279 86.4162 57.0279 86.4534 56.9222 86.4675C56.8166 86.4817 56.7166 86.5189 56.611 86.533C56.2027 86.5982 55.7944 86.6634 55.3861 86.7286C54.9778 86.7938 54.5782 86.8447 54.1785 86.8955C53.99 86.9181 53.7788 86.9463 53.5903 86.9689C53.4019 86.9915 53.1907 87.0197 53.0108 87.0279C52.6197 87.0644 52.2372 87.0864 51.8604 87.1315C51.7634 87.1313 51.672 87.1541 51.5749 87.1539C51.4779 87.1536 51.3865 87.1764 51.2895 87.1762C51.1097 87.1843 50.907 87.1982 50.7272 87.2064C50.3675 87.2228 49.985 87.2448 49.6254 87.2612C49.2743 87.2632 48.9147 87.2795 48.5636 87.2815C47.8672 87.3085 47.1909 87.2693 46.5345 87.2618C43.9204 87.1802 41.695 86.9036 39.9034 86.6166C39.6752 86.5757 39.4612 86.5434 39.2473 86.5112C39.1446 86.4878 39.0333 86.4789 38.9306 86.4556C38.8279 86.4323 38.7252 86.409 38.6368 86.3943C38.2403 86.3098 37.8865 86.2512 37.5414 86.1783C37.3731 86.1346 37.2105 86.1141 37.0565 86.0791C36.9024 86.0441 36.7627 86.0178 36.6315 85.9771C36.3605 85.9102 36.1038 85.8519 35.8984 85.8052C35.6788 85.7499 35.4734 85.7033 35.2538 85.648C35.0342 85.5927 34.8374 85.5317 34.6178 85.4764C34.3982 85.4211 34.2014 85.36 33.9818 85.3047L33.6681 85.2117C33.5654 85.1884 33.4571 85.142 33.3544 85.1187C32.938 85.0024 32.5302 84.8717 32.1224 84.741C31.9256 84.6799 31.7146 84.6103 31.5179 84.5492C31.3211 84.4882 31.1101 84.4185 30.9219 84.3431C30.7251 84.2821 30.5284 84.2211 30.3402 84.1457C30.1434 84.0847 29.9552 84.0093 29.7671 83.9339C29.3821 83.7975 29.0058 83.6467 28.6208 83.5102C28.2445 83.3595 27.8824 83.2174 27.506 83.0666L26.9557 82.849C26.7676 82.7736 26.6023 82.6925 26.4283 82.6258C23.5888 81.4256 21.1148 80.1342 19.08 78.9534C18.9518 78.8753 18.8149 78.8115 18.701 78.7421C18.5727 78.664 18.4587 78.5945 18.3305 78.5164C18.1025 78.3775 17.8603 78.2299 17.6238 78.1054C17.1592 77.842 16.7404 77.5672 16.3272 77.3155C16.1277 77.194 15.9282 77.0725 15.743 76.9596C15.6433 76.8988 15.5578 76.8468 15.4723 76.7947C15.3868 76.7426 15.3013 76.6905 15.2016 76.6297C14.8596 76.4214 14.5319 76.2218 14.2384 76.0626C14.1671 76.0192 14.0959 75.9757 14.0161 75.9467C13.9448 75.9033 13.8878 75.8686 13.8166 75.8252C13.6883 75.7471 13.5515 75.6833 13.4375 75.6139C13.201 75.4894 12.9843 75.3966 12.8104 75.3299C12.4254 75.1935 12.1658 75.1727 12.0599 75.2847Z" fill="white"/>
<path d="M21.8584 85.0044C22.7418 85.5425 23.6566 86.0607 24.6115 86.5443C24.6685 86.579 24.7483 86.608 24.8053 86.6427C24.9193 86.7122 25.0561 86.7759 25.1787 86.831L25.7545 87.1033C25.8628 87.1497 25.9854 87.2047 26.0852 87.2655C26.3588 87.393 26.6467 87.5291 26.9204 87.6566C27.3252 87.8248 27.7301 87.993 28.1349 88.1611C28.2148 88.1901 28.286 88.2335 28.3659 88.2625C28.5027 88.3263 28.6481 88.3756 28.7707 88.4307C28.9817 88.5004 29.1984 88.5932 29.4094 88.6629C29.5833 88.7296 29.7573 88.7963 29.9312 88.863L30.0395 88.9094C30.0908 88.9211 30.1193 88.9384 30.1707 88.9501C30.3446 89.0168 30.5185 89.0835 30.7011 89.1358L31.24 89.3072C31.5024 89.3886 31.779 89.4786 32.0414 89.56C32.0785 89.563 32.1212 89.589 32.1583 89.592C32.2239 89.6123 32.3037 89.6413 32.3836 89.6703L32.7115 89.772C32.9311 89.8274 33.1422 89.897 33.376 89.961L33.4045 89.9784C33.6384 90.0424 33.8723 90.1064 34.0919 90.1617C34.2459 90.1967 34.3999 90.2316 34.554 90.2666C34.6338 90.2956 34.708 90.3016 34.7964 90.3162L35.5951 90.5085C35.6977 90.5318 35.8004 90.5551 35.9174 90.5871L36.0714 90.622C36.1741 90.6454 36.2996 90.663 36.4023 90.6863C36.4679 90.7066 36.5278 90.7039 36.5934 90.7242C36.8074 90.7565 37.027 90.8118 37.2695 90.8614L37.7915 90.9636C37.8286 90.9666 37.8657 90.9695 37.9084 90.9956C37.974 91.0159 38.0482 91.0219 38.1224 91.0278C38.2337 91.0368 38.3506 91.0687 38.4619 91.0777C38.6901 91.1186 38.9269 91.1452 39.1694 91.1948C40.2906 91.3677 41.3548 91.5058 42.459 91.6095C43.7716 91.7224 45.1013 91.8065 46.4056 91.8358C46.5397 91.839 46.6738 91.8423 46.8165 91.8311C47.3987 91.8326 47.9952 91.8428 48.6089 91.8242L48.997 91.8252C49.251 91.823 49.5136 91.8064 49.7676 91.8042C50.0902 91.7848 50.4128 91.7655 50.7353 91.7462L50.9608 91.7266C51.0579 91.7268 51.1635 91.7127 51.2605 91.7129C51.3576 91.7132 51.4632 91.6991 51.5602 91.6993C51.6573 91.6996 51.7629 91.6854 51.8685 91.6713C51.9742 91.6572 52.0712 91.6574 52.1768 91.6433L52.5623 91.5838C52.8477 91.5615 53.1418 91.5248 53.4273 91.5025C53.5928 91.4856 53.7584 91.4687 53.9326 91.4375C53.9783 91.4261 54.0154 91.4291 54.0611 91.4177C54.1438 91.4092 54.2495 91.3951 54.3323 91.3867C54.4608 91.3668 54.5892 91.347 54.7177 91.3272C54.8233 91.313 54.929 91.2989 55.0432 91.2704C55.3601 91.228 55.6999 91.1799 56.0254 91.1231C56.2823 91.0834 56.5479 91.0294 56.8049 90.9897L57.3645 90.8989C57.4701 90.8848 57.5757 90.8707 57.6986 90.8278C57.8128 90.7993 57.9184 90.7851 58.0327 90.7566C58.124 90.7338 58.2297 90.7196 58.3211 90.6968C58.4582 90.6626 58.5866 90.6428 58.7237 90.6086L59.4148 90.4605C59.5747 90.4206 59.7432 90.3663 59.9174 90.3351L60.1002 90.2894L60.7942 90.1039C60.9084 90.0754 61.0226 90.0469 61.1454 90.004L61.3282 89.9584L61.4967 89.9041L61.7338 89.8326C62.1166 89.7126 62.5135 89.6013 62.9191 89.4756C62.9648 89.4641 63.0105 89.4527 63.042 89.4326C63.1105 89.4155 63.2019 89.3927 63.279 89.3612L63.3704 89.3384C63.4618 89.3156 63.5389 89.2841 63.6389 89.2469L63.8131 89.2157C63.9902 89.147 64.173 89.1014 64.3501 89.0327C64.5958 88.9469 64.8328 88.8754 65.0643 88.781L65.1642 88.7438C65.3642 88.6694 65.5728 88.5806 65.787 88.5149L66.0869 88.4033C66.2326 88.3547 66.3726 88.283 66.5183 88.2344L66.8726 88.097C66.9497 88.0655 67.0269 88.034 67.104 88.0025C67.1497 87.9911 67.1811 87.971 67.2354 87.9452C67.4897 87.8451 67.7383 87.7218 67.9925 87.6216C68.224 87.5272 68.464 87.4183 68.6811 87.3151L69.4098 86.9741C69.5498 86.9025 69.6812 86.8452 69.8213 86.7735C69.9299 86.7219 70.0156 86.6761 70.1242 86.6245C71.1186 86.1315 72.0932 85.6067 73.0021 85.0616C73.9683 84.4533 74.9289 83.8219 75.8152 83.1846C76.7731 82.4927 77.6825 81.7517 78.5407 80.999C78.7323 80.841 78.9182 80.66 79.1042 80.4789C79.1443 80.4445 79.1615 80.4157 79.2015 80.3812C79.4189 80.1801 79.6135 79.9847 79.8309 79.7836L79.8481 79.7548C79.9768 79.637 80.1227 79.4905 80.2458 79.3496C80.3117 79.272 80.3918 79.203 80.4576 79.1254L80.6035 78.9788C80.6608 78.9156 80.718 78.8524 80.7666 78.8035C80.7981 78.7834 80.8239 78.7403 80.8553 78.7202C80.9212 78.6425 81.0099 78.5592 81.0757 78.4816C82.0289 77.3748 82.7246 76.5036 83.3319 75.6177C83.3835 75.5314 83.4493 75.4538 83.5009 75.3675C83.6184 75.2036 83.7444 75.0252 83.8476 74.8526L84.3576 74.0645C84.604 73.6848 84.8305 73.2734 85.0541 72.8994C85.1401 72.7556 85.2118 72.6031 85.2892 72.4736C85.401 72.2866 85.5071 72.0765 85.6046 71.8809C85.639 71.8233 85.6678 71.7427 85.7108 71.6708C85.9702 71.7896 86.2438 71.9171 86.5033 72.0359C87.6094 72.494 88.793 72.8226 90.0056 72.9727C91.1725 73.1342 92.3512 73.1459 93.533 73.0222C94.0897 72.9689 94.6579 72.8637 95.2347 72.7442C95.7658 72.6361 96.3085 72.4761 96.8598 72.3018C97.8709 71.976 98.8823 71.5522 99.8711 71.0361C100.774 70.5659 101.683 70.0208 102.561 69.3979C103.359 68.8438 104.171 68.2005 104.949 67.5168C106.376 66.2672 107.681 64.8645 108.852 63.3606C108.961 63.2111 109.075 63.0846 109.184 62.9351C109.21 62.8919 109.25 62.8574 109.276 62.8143L109.319 62.7424C109.376 62.6791 109.419 62.6072 109.476 62.544C109.537 62.4433 109.602 62.3657 109.663 62.265C109.771 62.1154 109.889 61.9515 109.983 61.7933L110.026 61.7214C110.052 61.6782 110.078 61.6351 110.118 61.6006C110.218 61.4654 110.304 61.3216 110.405 61.1864C110.473 61.0714 110.565 60.9506 110.634 60.8355C110.794 60.5997 110.94 60.3551 111.101 60.1193L111.746 59.0405C112.514 57.7229 113.228 56.3331 113.871 54.8999C114.009 54.5718 114.155 54.2293 114.293 53.9012C114.385 53.6825 114.468 53.4781 114.537 53.2651C114.583 53.1557 114.629 53.0463 114.675 52.937L114.862 52.462L114.879 52.4333C114.928 52.2865 114.977 52.1397 115.04 52.0015L115.135 51.7453C115.212 51.5179 115.281 51.3049 115.365 51.1005C115.799 49.7561 116.099 48.7024 116.298 47.7838C116.324 47.6426 116.364 47.5102 116.39 47.3691L116.468 47.0437C116.503 46.8882 116.532 46.7097 116.558 46.5686C116.578 46.5023 116.584 46.4274 116.598 46.3382L116.717 45.6844C116.743 45.5433 116.769 45.4022 116.795 45.2611C116.801 45.1862 116.813 45.1343 116.818 45.0594C116.845 44.9183 116.862 44.7916 116.879 44.6649L116.908 44.4863C116.937 44.3078 116.966 44.1292 116.973 43.9563C117.013 43.628 117.046 43.314 117.075 43.0375C117.11 42.784 117.113 42.5507 117.114 42.3547L117.125 42.3029C117.134 42.0926 117.14 41.9197 117.138 41.7613C117.144 41.4904 117.119 41.3377 117.091 41.3203C117.053 41.3173 116.99 41.4555 116.91 41.7203C116.869 41.8528 116.826 42.0227 116.78 42.23C116.76 42.2962 116.754 42.3711 116.725 42.4517C116.699 42.5928 116.656 42.7627 116.613 42.9326C116.555 43.1917 116.471 43.4941 116.394 43.8194C116.359 43.9749 116.316 44.1448 116.264 44.3291C116.221 44.499 116.169 44.6832 116.123 44.8905C116.102 44.9568 116.082 45.023 116.068 45.1123C116.036 45.2303 115.996 45.3627 115.978 45.4895L115.915 45.7256C115.875 45.858 115.834 45.9904 115.794 46.1229C115.765 46.2035 115.751 46.2927 115.722 46.3733C115.682 46.5058 115.656 46.6469 115.607 46.7937L115.38 47.499C115.118 48.3598 114.764 49.3414 114.241 50.6712C114.129 50.9562 114.003 51.2324 113.882 51.5318C113.819 51.6699 113.765 51.7937 113.716 51.9405L113.69 51.9836L113.483 52.4268C113.466 52.5535 113.406 52.6542 113.36 52.7636C113.271 52.9449 113.188 53.1492 113.09 53.3449C112.947 53.6499 112.78 53.9607 112.628 54.2801C111.931 55.6411 111.186 56.953 110.395 58.1784L109.733 59.188C109.59 59.3951 109.447 59.6022 109.289 59.8006C109.198 59.9213 109.097 60.0565 109.02 60.186C108.536 60.833 108.026 61.5232 107.46 62.1786C106.306 63.5557 105.027 64.8173 103.654 65.9432C102.919 66.555 102.159 67.112 101.404 67.5941C100.578 68.1307 99.7488 68.6069 98.9116 68.9995C97.0114 69.9021 95.1407 70.4303 93.3223 70.5783C92.3232 70.6564 91.3416 70.6078 90.383 70.4555C90.2204 70.4349 90.0521 70.3913 89.8752 70.362C89.8096 70.3416 89.7212 70.327 89.647 70.321C89.5443 70.2977 89.4416 70.2744 89.3476 70.2367C89.3333 70.228 89.3105 70.2337 89.282 70.2164L89.1279 70.1814C89.0623 70.1611 88.9967 70.1407 88.9226 70.1348C88.7771 70.0854 88.6317 70.0361 88.5005 69.9954C88.4064 69.9577 88.3037 69.9344 88.2097 69.8967L88.1298 69.8677C87.9274 69.7836 87.725 69.6995 87.5083 69.6067C87.2774 69.5053 87.0408 69.3808 86.8043 69.2563L86.879 69.0663L86.9536 68.8763C87.0455 68.6576 87.1317 68.4158 87.2236 68.1971L87.3155 67.9783C87.3271 67.9265 87.3529 67.8834 87.3644 67.8315C87.3816 67.8028 87.376 67.7797 87.3932 67.7509L87.5484 67.2961C87.5858 67.2011 87.6175 67.0831 87.6548 66.9881C87.7152 66.7894 87.7899 66.5995 87.8504 66.4008L88.1096 65.4795L88.2506 65.016C88.2737 64.9123 88.2968 64.8086 88.3199 64.705C88.3314 64.6531 88.343 64.6013 88.3545 64.5495L88.4439 64.1723C88.4958 63.988 88.5248 63.8094 88.5766 63.6252C88.6083 63.5071 88.6257 63.3804 88.6488 63.2767C88.6518 63.2393 88.6547 63.2018 88.6663 63.15L88.756 62.6748L88.8862 61.9692C88.8977 61.9174 88.9093 61.8656 88.9066 61.8051C88.9009 61.782 88.9181 61.7532 88.9211 61.7158C88.9619 61.3874 89.0083 61.0822 89.0491 60.7538C89.0606 60.702 89.058 60.6414 89.0695 60.5896C89.0926 60.4859 89.0928 60.388 89.1017 60.2756L89.14 59.7888C89.1491 59.5785 89.1811 59.3625 89.1988 59.1378L89.2167 58.8152C89.2169 58.7172 89.2172 58.6192 89.2317 58.53C89.2494 58.3053 89.2528 58.0719 89.2563 57.8385C89.2637 57.1758 89.2568 56.5045 89.2241 55.8763C89.1944 55.2107 89.1276 54.542 89.0294 53.8935C88.9341 53.2075 88.8074 52.5417 88.6548 51.9189C88.491 51.25 88.3043 50.5869 88.069 49.9725C87.5701 48.6286 86.9282 47.3938 86.1632 46.2998C86.1092 46.2277 86.0552 46.1555 86.0154 46.092L85.8532 45.8755C85.8191 45.835 85.785 45.7946 85.7651 45.7629C85.6911 45.659 85.6086 45.5694 85.5346 45.4655C85.2472 45.1334 85.0138 44.8735 84.7633 44.6424C84.4501 44.3534 84.1253 44.1163 83.8119 43.9254C83.7976 43.9167 83.7691 43.8993 83.7549 43.8907C83.3417 43.6389 82.8855 43.4591 82.4234 43.3542C81.9242 43.2463 81.4192 43.2133 80.9367 43.2725C80.4542 43.3318 79.9572 43.4803 79.5199 43.7241C79.1313 43.919 78.751 44.1975 78.4049 44.5165C78.1216 44.7952 77.844 45.097 77.5919 45.4536C77.1795 46.0461 76.8296 46.6963 76.5395 47.4418C76.2837 48.1298 76.0965 48.8006 75.9805 49.5149C75.9486 49.7309 75.9282 49.8951 75.8936 50.0506L75.8761 50.1773L75.841 50.5287L75.7884 51.0069L75.7587 51.4793C75.7614 51.5398 75.7498 51.5917 75.7525 51.6522C75.7523 51.7501 75.7434 51.8625 75.7346 51.9748L75.7191 52.4559C75.7014 52.6806 75.7065 52.8996 75.7117 53.1186C75.7114 53.2166 75.7112 53.3145 75.711 53.4125C75.7134 54.7091 75.8128 56.0059 75.998 57.2568C76.1945 58.5539 76.491 59.8137 76.8761 60.9903C77.1196 61.7861 77.4315 62.5649 77.7978 63.3178C77.4458 62.5735 77.1424 61.7804 76.8761 60.9903C76.491 59.8137 76.1945 58.5539 75.998 57.2568C75.8128 56.0059 75.7134 54.7091 75.711 53.4125C75.7112 53.3145 75.7114 53.2166 75.7117 53.1186C75.7065 52.8996 75.71 52.6663 75.7191 52.4559L75.7346 51.9748C75.7348 51.8769 75.7437 51.7645 75.7525 51.6522C75.7498 51.5917 75.7614 51.5398 75.7587 51.4793L75.7884 51.0069L75.8761 50.1773L75.8936 50.0506C75.9054 49.9008 75.9344 49.7222 75.9805 49.5149C76.1108 48.8093 76.2837 48.1298 76.5395 47.4418C76.8296 46.6963 77.151 46.0287 77.5777 45.445C77.8298 45.0883 78.0931 44.7778 78.3906 44.5078C78.7368 44.1889 79.1085 43.9247 79.4914 43.7067C79.943 43.4717 80.4257 43.3144 80.9082 43.2552C81.3907 43.1959 81.8815 43.2202 82.3949 43.3368C82.857 43.4417 83.3132 43.6216 83.7264 43.8733C84.0683 44.0816 84.4216 44.3361 84.7633 44.6424C85.0138 44.8735 85.2615 45.1421 85.5346 45.4655C85.6086 45.5694 85.6911 45.659 85.7651 45.7629C85.785 45.7946 85.8191 45.835 85.8532 45.8755L86.0154 46.092C86.0694 46.1642 86.1092 46.2277 86.149 46.2912C86.9368 47.3794 87.5843 48.6373 88.069 49.9725C88.3043 50.5869 88.491 51.25 88.6548 51.9189C88.8074 52.5417 88.9341 53.2075 89.0294 53.8935C89.1134 54.5334 89.1802 55.202 89.2241 55.8763C89.2568 56.5045 89.2637 57.1758 89.2563 57.8385C89.2528 58.0719 89.2351 58.2966 89.2317 58.53C89.2172 58.6192 89.2169 58.7172 89.2167 58.8152L89.1988 59.1378C89.1897 59.3481 89.1435 59.5555 89.1344 59.7658L89.096 60.2526C89.0872 60.3649 89.0727 60.4542 89.0638 60.5666C89.0523 60.6184 89.055 60.6789 89.0434 60.7307C89.0113 61.0447 88.9562 61.3644 88.9154 61.6927C88.9211 61.7158 88.9039 61.7446 88.9009 61.782C88.8894 61.8338 88.8921 61.8944 88.8805 61.9462L88.84 62.1766L88.7503 62.6517L88.6663 63.15C88.6547 63.2018 88.6518 63.2393 88.6488 63.2767C88.6171 63.3948 88.6083 63.5071 88.5766 63.6252C88.5248 63.8094 88.4958 63.988 88.4439 64.1723L88.3545 64.5495C88.343 64.6013 88.3314 64.6531 88.3199 64.705C88.2968 64.8086 88.2737 64.9123 88.2506 65.016L88.1182 65.4651L87.859 66.3864C87.7985 66.5851 87.7295 66.7981 87.6548 66.9881C87.6175 67.0831 87.5858 67.2011 87.5484 67.2961L87.3932 67.7509C87.376 67.7797 87.3816 67.8028 87.3644 67.8315C87.3529 67.8834 87.3357 67.9121 87.3241 67.9639L87.2322 68.1827C87.1404 68.4014 87.0455 68.6576 86.9536 68.8763L86.879 69.0663L86.8043 69.2563C85.6642 68.6598 84.5875 67.8272 83.6252 66.8682L83.654 66.7876L83.7287 66.5976C83.7545 66.5544 83.7574 66.517 83.769 66.4652C83.7776 66.4508 83.7805 66.4133 83.7891 66.3989L83.9242 66.0103C83.9616 65.9153 83.9989 65.8204 84.022 65.7167C84.0795 65.5555 84.1456 65.3799 84.2031 65.2187L84.206 65.1813C84.2866 64.9164 84.3586 64.6659 84.4306 64.4154L84.5515 64.0181C84.5802 63.9375 84.5947 63.8483 84.6092 63.759C84.6207 63.7071 84.6323 63.6553 84.6438 63.6035L84.6986 63.3817C84.7448 63.1744 84.8053 62.9758 84.8429 62.7828C84.8659 62.6792 84.889 62.5755 84.9121 62.4718C84.9151 62.4344 84.9323 62.4056 84.9352 62.3682L85.0276 61.9535L85.1519 61.3228C85.1635 61.271 85.1664 61.2336 85.178 61.1817C85.1723 61.1587 85.1895 61.1299 85.1839 61.1068L85.3173 60.2659C85.3288 60.214 85.3404 60.1622 85.3433 60.1248C85.3578 60.0355 85.3723 59.9462 85.3868 59.8569L85.4279 59.4306C85.4571 59.1541 85.4949 58.8632 85.5099 58.578C85.5102 58.48 85.5247 58.3907 85.5335 58.2784C85.5397 58.1055 85.5544 57.9183 85.5692 57.731C85.6006 56.5729 85.5778 55.4405 85.4378 54.3741C85.3037 53.2327 85.0667 52.1661 84.7267 51.174C84.3612 50.1272 83.8928 49.155 83.3241 48.318C83.2985 48.2632 83.2502 48.2141 83.2104 48.1506L83.088 47.9976L82.852 47.6771C82.6756 47.4519 82.5248 47.2816 82.3852 47.1573C82.2258 47.0013 82.0777 46.8914 81.9494 46.8133C81.9352 46.8046 81.9209 46.796 81.9209 46.796C81.8212 46.7352 81.7129 46.6888 81.5959 46.6568C81.479 46.6248 81.3677 46.6159 81.2621 46.63C81.1564 46.6441 81.0651 46.667 80.9565 46.7185C80.7165 46.8274 80.4276 47.0831 80.1841 47.4253C79.9264 47.7589 79.6913 48.1847 79.5046 48.6596C79.3179 49.1346 79.1596 49.6268 79.07 50.102C79.0469 50.2057 79.0208 50.3468 79.0034 50.4735L78.9889 50.5628L78.9567 50.8768L78.9355 51.3348L78.8945 51.7611C78.8739 52.0233 78.8446 52.2998 78.8468 52.5562L78.8495 52.6168C78.8348 52.804 78.8343 52.9999 78.8338 53.1958C78.8335 53.2938 78.8333 53.3918 78.8274 53.4666C78.8045 54.6104 78.8558 55.7602 79.0015 56.8497C79.1442 57.9766 79.3783 59.0807 79.6924 60.1159C80.0093 61.2116 80.4291 62.2326 80.9177 63.1386C81.4176 64.0907 82.0118 64.9825 82.6861 65.8054C82.9934 66.1693 83.3236 66.5274 83.6481 66.8625L83.3466 67.5618L83.2346 67.8468L83.0108 68.3187L82.6607 69.0669C82.589 69.2195 82.5116 69.3489 82.4399 69.5014C82.3797 69.6021 82.3423 69.6971 82.2821 69.7978C82.2391 69.8697 82.2104 69.9503 82.1674 70.0222C82.0871 70.1891 81.9839 70.3617 81.8893 70.52C81.8033 70.6638 81.7259 70.7932 81.6485 70.9227C81.4508 71.2535 81.2673 71.593 81.041 71.9065L80.5998 72.5796C80.4995 72.7148 80.3993 72.8499 80.2991 72.9851C80.2332 73.0627 80.1816 73.149 80.1158 73.2266C79.437 74.167 78.6813 75.041 78.1003 75.6877C78.0345 75.7654 77.9773 75.8286 77.9058 75.8832C77.8743 75.9033 77.8571 75.932 77.8171 75.9665C77.7284 76.0498 77.654 76.1418 77.5653 76.2252L77.5481 76.2539C77.4822 76.3315 77.4108 76.3861 77.3449 76.4637C77.2304 76.5902 77.1103 76.6936 76.9958 76.8201C76.8098 77.0012 76.6096 77.1735 76.4237 77.3545C76.3836 77.389 76.3522 77.4091 76.3264 77.4522C76.1804 77.5988 76.0203 77.7367 75.8601 77.8746C75.0993 78.5295 74.2729 79.1641 73.4351 79.7526C72.6289 80.321 71.7656 80.8547 70.8738 81.371C70.045 81.8472 69.1647 82.3117 68.2418 82.7501L67.5674 83.0653C67.3503 83.1685 67.1417 83.2573 66.9245 83.3604L66.9017 83.3661C66.5845 83.5065 66.276 83.6324 65.9674 83.7584L65.5817 83.9159C65.5361 83.9273 65.5046 83.9474 65.4732 83.9675C65.396 83.999 65.3417 84.0248 65.2646 84.0563L65.1418 84.0991C65.0732 84.1163 64.9961 84.1478 64.9418 84.1735L64.2876 84.4225C64.1562 84.4798 64.0105 84.5284 63.8791 84.5857L63.6334 84.6715C63.4649 84.7258 63.2964 84.7801 63.1278 84.8344L62.9593 84.8887C62.7451 84.9544 62.5223 85.0345 62.3081 85.1002C62.2167 85.1231 62.1395 85.1546 62.0481 85.1774L61.9796 85.1945C61.9111 85.2116 61.8425 85.2287 61.7654 85.2602C61.7197 85.2716 61.6882 85.2917 61.6512 85.2887C61.2085 85.4115 60.78 85.5429 60.3602 85.6599L60.2003 85.6999L60.0403 85.7398C59.9261 85.7683 59.8347 85.7911 59.7205 85.8196C59.5606 85.8596 59.4006 85.8995 59.2265 85.9307L58.8609 86.022C58.7238 86.0562 58.5868 86.0904 58.4354 86.116L58.1699 86.17C58.0414 86.1899 57.9272 86.2184 57.7987 86.2382C57.5931 86.2895 57.3818 86.3178 57.1762 86.3691L56.8649 86.4346C56.7507 86.4631 56.6451 86.4773 56.5623 86.4857C56.3282 86.5197 56.0854 86.568 55.8513 86.602L55.3374 86.6813C55.0347 86.7324 54.7407 86.7691 54.4466 86.8058C54.341 86.8199 54.2354 86.8341 54.1297 86.8482C53.987 86.8594 53.8585 86.8792 53.7072 86.9047L53.5416 86.9216C53.4959 86.933 53.4588 86.93 53.4131 86.9414C53.2618 86.967 53.1048 86.9694 52.9535 86.995L52.8479 87.0091C52.4939 87.0485 52.1485 87.0736 51.8031 87.0986C51.7431 87.1014 51.6974 87.1127 51.6375 87.1155L51.5176 87.1209C51.412 87.1351 51.3292 87.1435 51.2322 87.1432C51.0523 87.1514 50.8497 87.1653 50.6698 87.1735L50.6099 87.1762C50.2503 87.1926 49.9049 87.2176 49.5681 87.2283L49.1799 87.2273C48.9487 87.2238 48.7318 87.229 48.5007 87.2255C47.9469 87.2414 47.4104 87.2284 46.8968 87.2098C46.7626 87.2066 46.6142 87.1947 46.4715 87.2058C44.2598 87.1339 42.0885 86.9294 39.8404 86.5606L39.1843 86.4552C39.0816 86.4319 38.9703 86.4229 38.8819 86.4083C38.8077 86.4023 38.7563 86.3907 38.6907 86.3703C38.6537 86.3674 38.6252 86.35 38.5881 86.347C38.1916 86.2625 37.8378 86.2039 37.4927 86.131C37.4271 86.1106 37.3671 86.1134 37.3158 86.1017C37.2131 86.0784 37.1104 86.0551 37.022 86.0404C36.9193 86.0171 36.8309 86.0025 36.751 85.9735L36.597 85.9385L36.3545 85.8889C36.172 85.8366 36.0094 85.816 35.8639 85.7666C35.7755 85.752 35.7099 85.7316 35.6215 85.717C35.4817 85.6907 35.3505 85.65 35.2108 85.6237C35.1081 85.6004 35.0054 85.5771 34.897 85.5307C34.7944 85.5074 34.6774 85.4754 34.5747 85.4521C34.3694 85.4055 34.1583 85.3358 33.953 85.2892L33.6393 85.1961C33.5737 85.1758 33.5081 85.1555 33.4425 85.1351C33.4054 85.1322 33.3627 85.1061 33.3256 85.1031L33.1573 85.0595C32.8065 84.9635 32.45 84.8444 32.0992 84.7484C31.9452 84.7135 31.7855 84.6554 31.6401 84.6061C31.5888 84.5944 31.546 84.5684 31.4947 84.5567C31.2979 84.4957 31.0869 84.426 30.8901 84.365C30.7732 84.333 30.6648 84.2866 30.5479 84.2546L30.2855 84.1733C30.1544 84.1326 30.046 84.0862 29.9148 84.0456C29.8493 84.0252 29.7694 83.9962 29.7038 83.9758L29.1735 83.7901C28.9624 83.7204 28.76 83.6363 28.549 83.5666C28.3323 83.4739 28.1071 83.3955 27.9046 83.3114C27.745 83.2534 27.5939 83.1809 27.4342 83.1229L26.8839 82.9054C26.7756 82.859 26.653 82.804 26.5447 82.7576C26.4877 82.7229 26.4221 82.7025 26.3423 82.6735C25.028 82.1082 23.6882 81.4882 22.3742 80.825C21.2397 80.2516 20.1082 79.6407 18.9939 79.0011C18.9512 78.975 18.8942 78.9403 18.8514 78.9143C18.7802 78.8709 18.709 78.8275 18.6377 78.7841C18.5237 78.7146 18.3813 78.6278 18.2673 78.5584C18.0536 78.4282 17.8541 78.3066 17.6318 78.1908L17.5605 78.1474C17.267 77.9882 17.0049 77.8089 16.7484 77.6526C16.5774 77.5484 16.4349 77.4616 16.2782 77.3662C16.0787 77.2446 15.8793 77.1231 15.694 77.0103C15.6086 76.9582 15.5231 76.9061 15.4376 76.854L15.4091 76.8366C15.3236 76.7846 15.2381 76.7325 15.1384 76.6717C14.7964 76.4634 14.4687 76.2638 14.1751 76.1045L13.9528 75.9887L13.7534 75.8672C13.6251 75.789 13.4883 75.7253 13.3743 75.6558C13.1377 75.5313 12.9211 75.4386 12.7471 75.3719C12.385 75.2298 12.1396 75.2176 12.0251 75.3441C11.9193 75.4562 11.9443 75.7069 12.1032 76.0588C12.1855 76.2463 12.2963 76.4512 12.4356 76.6734C12.5009 76.7917 12.5805 76.9187 12.6744 77.0543L12.808 77.2535C12.8478 77.317 12.9105 77.3747 12.9502 77.4382L12.9645 77.4469C13.1807 77.7356 13.4339 78.0273 13.6985 78.3651L13.7525 78.4372C13.8152 78.495 13.855 78.5585 13.909 78.6307C13.9773 78.7115 14.0598 78.8011 14.1424 78.8906C14.3075 79.0696 14.4811 79.2343 14.6462 79.4134C14.7089 79.4712 14.7772 79.552 14.8398 79.6098C15.1444 79.9131 15.4404 80.2308 15.7821 80.5371C15.9986 80.7278 16.2064 80.9329 16.437 81.1323L16.5567 81.2249C16.6336 81.2913 16.7104 81.3578 16.7873 81.4243C16.8642 81.4907 16.9411 81.5572 17.018 81.6237C17.0608 81.6497 17.0949 81.6901 17.1376 81.7162C18.1458 82.5659 19.2682 83.387 20.4449 84.1824C20.9323 84.4401 21.3882 84.7179 21.8584 85.0044ZM85.7108 71.6708C85.6678 71.7427 85.639 71.8233 85.6046 71.8809C85.5071 72.0765 85.4096 72.2722 85.2892 72.4736C85.2032 72.6174 85.1172 72.7613 85.0541 72.8994C84.8362 73.2965 84.6183 73.6935 84.3576 74.0645L83.8704 74.8469C83.753 75.0109 83.627 75.1892 83.5238 75.3618C83.4722 75.4481 83.4064 75.5257 83.3548 75.612C82.7475 76.4979 82.0517 77.3691 81.0985 78.4759C81.0241 78.5679 80.9583 78.6455 80.8782 78.7145C80.8467 78.7346 80.8209 78.7777 80.7895 78.7978C80.7322 78.861 80.6836 78.9099 80.6264 78.9731L80.4804 79.1197C80.4146 79.1973 80.3345 79.2662 80.2687 79.3439C80.1456 79.4847 79.9854 79.6226 79.8481 79.7548L79.8309 79.7836C79.6135 79.9847 79.4332 80.1888 79.2157 80.3899C79.1757 80.4244 79.1443 80.4445 79.1042 80.4789C78.9268 80.6456 78.7551 80.8353 78.5635 80.9933C77.6968 81.7604 76.7873 82.5014 75.8381 83.1789C74.9431 83.8306 73.9912 84.4476 72.9965 85.0386C72.0875 85.5837 71.1272 86.1171 70.1242 86.6245C70.0156 86.6761 69.9299 86.7219 69.8213 86.7735C69.6812 86.8452 69.5412 86.9168 69.4098 86.9741L68.6669 87.3064C68.4355 87.4009 68.2097 87.5185 67.9925 87.6216C67.7383 87.7218 67.4897 87.8451 67.2354 87.9452C67.1811 87.971 67.1497 87.9911 67.104 88.0025C67.0269 88.034 66.9355 88.0569 66.8583 88.0884L66.5183 88.2344C66.3726 88.283 66.2412 88.3403 66.0869 88.4033L65.7728 88.5062C65.5642 88.595 65.3785 88.678 65.1642 88.7438L65.0643 88.781C64.8186 88.8668 64.5815 88.9382 64.3501 89.0327C64.173 89.1014 63.9902 89.147 63.8131 89.2157L63.6217 89.2757C63.5303 89.2985 63.4532 89.33 63.3532 89.3672L63.2618 89.39C63.1847 89.4215 63.1161 89.4386 63.0248 89.4614C62.9791 89.4728 62.9334 89.4842 62.9019 89.5043C62.5049 89.6157 62.1308 89.7213 61.7338 89.8326L61.4967 89.9041L61.3196 89.9728L61.1454 90.004C61.0312 90.0325 60.9084 90.0754 60.7942 90.1039L60.1002 90.2894L59.9174 90.3351C59.7575 90.375 59.5747 90.4206 59.4148 90.4605L58.7237 90.6086C58.5866 90.6428 58.4582 90.6626 58.3211 90.6968C58.2297 90.7196 58.124 90.7338 58.0327 90.7566C57.9184 90.7851 57.8128 90.7993 57.6986 90.8278C57.5701 90.8476 57.4558 90.8761 57.3645 90.8989L56.8049 90.9897C56.5479 91.0294 56.2823 91.0834 56.0254 91.1231C55.6999 91.1799 55.3601 91.228 55.0432 91.2704C54.9376 91.2845 54.832 91.2986 54.7263 91.3128C54.5978 91.3326 54.478 91.3381 54.3495 91.3579C54.2667 91.3663 54.161 91.3805 54.0783 91.3889C54.0326 91.4003 53.9955 91.3973 53.9498 91.4087C53.7842 91.4256 53.61 91.4568 53.4445 91.4737C53.159 91.496 52.8649 91.5327 52.5795 91.555L52.1884 91.5915C52.0828 91.6056 51.9857 91.6053 51.8801 91.6195C51.7745 91.6336 51.6688 91.6478 51.5718 91.6475C51.4747 91.6473 51.3691 91.6614 51.2635 91.6755C51.1664 91.6753 51.0608 91.6894 50.9638 91.6891L50.7383 91.7087C50.4157 91.7281 50.0932 91.7474 49.7706 91.7667C49.5166 91.7689 49.254 91.7856 49 91.7878L48.6032 91.8012C47.9896 91.8197 47.3931 91.8095 46.8109 91.808C46.6768 91.8048 46.5426 91.8016 46.4085 91.7984C45.0957 91.7835 43.7659 91.6993 42.462 91.5721C41.372 91.4771 40.2935 91.3302 39.1723 91.1573C38.9213 91.1221 38.6931 91.0812 38.4648 91.0402C38.3536 91.0313 38.2366 90.9993 38.1253 90.9904C38.0512 90.9844 37.9856 90.9641 37.9114 90.9582C37.8743 90.9552 37.8372 90.9522 37.7944 90.9261L37.2724 90.8239C37.03 90.7743 36.816 90.7421 36.5964 90.6868C36.5308 90.6664 36.4708 90.6692 36.4053 90.6488C36.2797 90.6312 36.177 90.6079 36.0744 90.5846L35.9203 90.5496C35.8034 90.5176 35.7007 90.4943 35.598 90.471L34.7994 90.2788C34.7195 90.2497 34.6311 90.2351 34.5569 90.2292C34.4029 90.1942 34.2489 90.1592 34.1034 90.1098C33.8696 90.0459 33.6357 89.9819 33.4161 89.9266L33.3876 89.9092C33.1679 89.8539 32.9569 89.7842 32.7231 89.7202L32.3723 89.6242C32.3067 89.6039 32.2268 89.5748 32.147 89.5458C32.1185 89.5285 32.0672 89.5168 32.0301 89.5138C31.7677 89.4325 31.4911 89.3424 31.2287 89.2611L30.6898 89.0897C30.5072 89.0374 30.3333 88.9707 30.1594 88.904C30.1166 88.8779 30.0796 88.8749 30.0282 88.8633L29.9199 88.8169C29.7459 88.7502 29.572 88.6835 29.3895 88.6311C29.1785 88.5614 28.9618 88.4687 28.7508 88.399C28.6054 88.3496 28.4685 88.2859 28.3459 88.2308C28.2804 88.2105 28.2091 88.1671 28.1293 88.1381C27.7244 87.9699 27.3053 87.7931 26.9005 87.6249C26.6126 87.4887 26.3389 87.3613 26.0653 87.2338C25.9569 87.1874 25.8344 87.1323 25.7346 87.0716L25.1588 86.7993C25.0333 86.7816 24.905 86.7035 24.7824 86.6485C24.7254 86.6137 24.6542 86.5703 24.5886 86.55C23.1606 85.8173 21.7899 85.0214 20.4849 84.1479C19.2997 83.3669 18.1859 82.5314 17.1691 81.6961C17.1263 81.67 17.0922 81.6296 17.0495 81.6036C16.9726 81.5371 16.8957 81.4706 16.8188 81.4042C16.7419 81.3377 16.665 81.2712 16.5881 81.2048L16.4685 81.1123C16.2521 80.9216 16.0442 80.7164 15.8136 80.517C15.4719 80.2108 15.153 79.8988 14.8712 79.5897C14.7943 79.5233 14.7403 79.4511 14.6777 79.3933C14.5126 79.2143 14.3389 79.0496 14.1738 78.8705C14.0913 78.781 14.0088 78.6914 13.9405 78.6106C13.8864 78.5384 13.838 78.4893 13.784 78.4171L13.7299 78.345C13.4568 78.0216 13.1979 77.7068 12.9959 77.4268L12.9903 77.4038C12.9363 77.3316 12.8879 77.2825 12.8481 77.219L12.7144 77.0198C12.6206 76.8842 12.541 76.7572 12.4756 76.6389C12.3307 76.3936 12.2199 76.1888 12.1433 76.0244C11.9844 75.6724 11.9593 75.4217 12.0652 75.3096C12.1711 75.1975 12.4165 75.2097 12.7872 75.3374C12.9611 75.4041 13.1778 75.4969 13.4144 75.6214C13.5369 75.6764 13.6509 75.7459 13.7934 75.8327L13.9929 75.9542L14.2009 76.0614C14.4289 76.2003 14.694 76.3421 14.9647 76.5071C15.0359 76.5505 15.1072 76.5939 15.1784 76.6373C15.2639 76.6894 15.3494 76.7414 15.4491 76.8022L15.4776 76.8196C15.5631 76.8716 15.6486 76.9237 15.7341 76.9758C15.9193 77.0887 16.1188 77.2102 16.3182 77.3317C16.475 77.4272 16.6317 77.5227 16.7884 77.6182C17.0449 77.7744 17.3156 77.9393 17.6006 78.113L17.6718 78.1564C17.8855 78.2866 18.085 78.4081 18.3073 78.5239C18.4213 78.5933 18.5495 78.6715 18.6635 78.7409C18.7348 78.7843 18.8203 78.8364 18.8915 78.8798C18.9342 78.9058 18.9912 78.9406 19.034 78.9666C20.1483 79.6062 21.2798 80.2171 22.4142 80.7905C23.7282 81.4537 25.068 82.0738 26.3823 82.639C26.4479 82.6594 26.5049 82.6941 26.5847 82.7231C26.6931 82.7695 26.8156 82.8245 26.924 82.8709L27.4742 83.0884C27.6339 83.1465 27.785 83.2189 27.9447 83.2769C28.1471 83.361 28.3724 83.4394 28.589 83.5321C28.8001 83.6018 29.0025 83.6859 29.2135 83.7556L29.7439 83.9414C29.8095 83.9617 29.8893 83.9907 29.9549 84.0111C30.0775 84.0661 30.1944 84.0981 30.3256 84.1388L30.588 84.2202C30.7049 84.2522 30.8132 84.2985 30.9301 84.3305C31.1269 84.3916 31.338 84.4612 31.5261 84.5366C31.5775 84.5483 31.6202 84.5743 31.6715 84.586C31.817 84.6354 31.9766 84.6934 32.1307 84.7284C32.4815 84.8244 32.8379 84.9434 33.1887 85.0394L33.357 85.083C33.3941 85.086 33.4369 85.1121 33.474 85.115C33.5395 85.1354 33.6051 85.1557 33.6707 85.1761L33.993 85.2547C34.1984 85.3013 34.3952 85.3623 34.6005 85.409C34.7032 85.4323 34.8344 85.473 34.9371 85.4963C35.0398 85.5196 35.1338 85.5573 35.2508 85.5893C35.382 85.63 35.5218 85.6562 35.6615 85.6825C35.7414 85.7116 35.8156 85.7175 35.8954 85.7465C36.0494 85.7815 36.2177 85.8252 36.3946 85.8544L36.6284 85.9184L36.7825 85.9534C36.8709 85.968 36.965 86.0057 37.0534 86.0204C37.1561 86.0437 37.2446 86.0583 37.3472 86.0816C37.3986 86.0933 37.4642 86.1136 37.5241 86.1109C37.855 86.1751 38.2144 86.2567 38.6195 86.3269C38.6566 86.3299 38.6851 86.3473 38.7222 86.3503C38.7878 86.3706 38.8477 86.3679 38.9133 86.3882C39.016 86.4115 39.113 86.4118 39.2157 86.4351L39.8689 86.578C42.1312 86.9555 44.3026 87.1599 46.5 87.2232C46.6341 87.2264 46.7825 87.2383 46.9167 87.2416C47.4389 87.2458 47.9669 87.2731 48.5206 87.2572C48.7375 87.252 48.9687 87.2555 49.1998 87.259L49.588 87.26C49.9248 87.2494 50.2701 87.2243 50.6298 87.208L50.6897 87.2052C50.8696 87.197 51.0722 87.1832 51.2521 87.175C51.3348 87.1666 51.4319 87.1668 51.5375 87.1527L51.6574 87.1472C51.7173 87.1445 51.763 87.1331 51.823 87.1304C52.1684 87.1053 52.5224 87.0659 52.8678 87.0409L52.9734 87.0267C53.1304 87.0242 53.2817 86.9987 53.433 86.9732C53.4701 86.9761 53.5158 86.9647 53.5615 86.9533L53.7271 86.9365C53.8698 86.9253 53.9983 86.9055 54.1496 86.8799C54.2553 86.8658 54.3609 86.8517 54.4665 86.8375C54.7606 86.8008 55.0546 86.7641 55.3573 86.7131L55.8712 86.6337C56.1053 86.5997 56.3395 86.5658 56.5822 86.5174C56.665 86.509 56.7706 86.4949 56.8934 86.452L57.2047 86.3865C57.4017 86.3496 57.6216 86.3069 57.8272 86.2556C57.9414 86.227 58.0699 86.2072 58.1984 86.1874L58.4411 86.139C58.5782 86.1048 58.7152 86.0706 58.8666 86.0451L59.2235 85.9682C59.3834 85.9283 59.5434 85.8883 59.7175 85.8571C59.8318 85.8286 59.9232 85.8058 60.0374 85.7773L60.2059 85.7229L60.3659 85.683C60.7857 85.566 61.2284 85.4432 61.6568 85.3118C61.7025 85.3004 61.7339 85.2803 61.771 85.2833C61.8396 85.2662 61.9081 85.2491 61.9853 85.2176L62.0538 85.2004C62.1452 85.1776 62.2223 85.1461 62.3137 85.1233C62.5279 85.0576 62.7507 84.9775 62.9649 84.9118L63.1335 84.8575C63.302 84.8032 63.4705 84.7489 63.639 84.6946L63.8847 84.6088C64.0161 84.5515 64.1618 84.5029 64.2933 84.4456L64.9474 84.1966C65.016 84.1795 65.0931 84.148 65.1474 84.1222L65.2646 84.0563C65.3417 84.0248 65.4245 84.0163 65.4874 83.9761C65.5189 83.9561 65.5646 83.9447 65.6102 83.9333L65.9959 83.7758C66.3045 83.6498 66.6216 83.5094 66.9302 83.3835L66.953 83.3778C67.1616 83.289 67.3788 83.1858 67.5959 83.0827L68.2617 82.7818C69.1704 82.3347 70.0649 81.8789 70.8937 81.4028C71.7855 80.8865 72.6488 80.3528 73.455 79.7844C74.2927 79.1959 75.1192 78.5613 75.88 77.9063C76.0402 77.7684 76.2003 77.6306 76.3463 77.484C76.3863 77.4495 76.4178 77.4294 76.4436 77.3863C76.6295 77.2052 76.8297 77.0329 77.0157 76.8519C77.1444 76.7341 77.2503 76.6219 77.3648 76.4955C77.4307 76.4178 77.5021 76.3633 77.568 76.2857L77.5852 76.2569C77.6739 76.1736 77.7483 76.0816 77.837 75.9982C77.8542 75.9695 77.8856 75.9494 77.9171 75.9293C77.9743 75.8661 78.0544 75.7971 78.1202 75.7195C78.7012 75.0727 79.4569 74.1988 80.1357 73.2584C80.2015 73.1807 80.2531 73.0944 80.319 73.0168C80.4192 72.8817 80.5194 72.7465 80.6197 72.6113L81.0609 71.9383C81.2729 71.6161 81.4707 71.2853 81.6684 70.9545C81.7458 70.825 81.8318 70.6812 81.9092 70.5517C82.0038 70.3935 82.107 70.2209 82.1873 70.054C82.2303 69.9821 82.259 69.9015 82.302 69.8295C82.3622 69.7289 82.3996 69.6339 82.4597 69.5332C82.7474 69.7673 83.0351 70.0014 83.3313 70.2212C84.0577 70.7618 84.8699 71.2566 85.7108 71.6708ZM85.7108 71.6708C85.286 71.4709 84.8728 71.2192 84.4739 70.9761C83.7615 70.5421 83.0835 70.0505 82.4399 69.5014C82.5116 69.3489 82.589 69.2195 82.6607 69.0669L83.0108 68.3187L83.2346 67.8468L83.3466 67.5618L83.6252 66.8682C84.4138 67.6625 85.2711 68.3418 86.1687 68.8887C86.3825 69.0189 86.5962 69.1491 86.8185 69.265L86.764 69.3887L86.718 69.4981L86.52 69.9269C86.4195 70.16 86.319 70.3931 86.2129 70.6032L86.1326 70.7701L85.7366 71.6277C85.728 71.642 85.7108 71.6708 85.7108 71.6708ZM117.091 41.3203C117.119 41.3377 117.159 41.4991 117.152 41.7699C117.149 41.9054 117.148 42.1013 117.148 42.2972L117.136 42.349C117.136 42.545 117.118 42.7696 117.098 43.0318C117.068 43.3083 117.045 43.6079 116.995 43.9506C116.981 44.1379 116.952 44.3164 116.931 44.4806L116.902 44.6592C116.885 44.7859 116.859 44.927 116.841 45.0538C116.821 45.12 116.824 45.1805 116.818 45.2554C116.801 45.3821 116.774 45.5232 116.748 45.6643L116.598 46.3382C116.578 46.4044 116.572 46.4793 116.558 46.5686C116.532 46.7097 116.503 46.8882 116.468 47.0437L116.39 47.3691C116.364 47.5102 116.324 47.6426 116.298 47.7838C116.084 48.6937 115.785 49.7474 115.365 51.1005C115.296 51.3136 115.204 51.5323 115.135 51.7453L115.04 52.0015C114.991 52.1483 114.942 52.2952 114.879 52.4333L114.862 52.462L114.675 52.937C114.629 53.0463 114.583 53.1557 114.537 53.2651C114.454 53.4694 114.376 53.6969 114.293 53.9012C114.155 54.2293 114.017 54.5574 113.871 54.8999C113.228 56.3331 112.514 57.7229 111.746 59.0405L111.101 60.1193C110.955 60.3638 110.794 60.5997 110.634 60.8355C110.565 60.9506 110.473 61.0714 110.405 61.1864C110.319 61.3303 110.218 61.4654 110.118 61.6006C110.092 61.6437 110.067 61.6869 110.026 61.7214L109.983 61.7933C109.875 61.9428 109.757 62.1068 109.663 62.265C109.602 62.3657 109.537 62.4433 109.476 62.544C109.419 62.6072 109.376 62.6791 109.319 62.7424L109.276 62.8143C109.25 62.8574 109.21 62.8919 109.184 62.9351C109.084 63.0702 108.975 63.2198 108.852 63.3606C107.681 64.8645 106.376 66.2672 104.949 67.5168C104.171 68.2005 103.367 68.8295 102.561 69.3979C101.692 70.0064 100.774 70.5659 99.8711 71.0361C98.8823 71.5522 97.8481 71.9817 96.8598 72.3018C96.3085 72.4761 95.7658 72.6361 95.2347 72.7442C94.6579 72.8637 94.0897 72.9689 93.533 73.0222C91.1007 73.2867 88.6643 72.9404 86.5033 72.0359C86.2352 71.9315 85.9616 71.804 85.7108 71.6708C85.7194 71.6564 85.728 71.642 85.7366 71.6277L86.1525 70.8018L86.2328 70.6349C86.3333 70.4018 86.4338 70.1687 86.5399 69.9586L86.7839 69.4204L86.8384 69.2967C87.075 69.4212 87.2973 69.537 87.5425 69.6472C87.7449 69.7312 87.9473 69.8153 88.164 69.9081L88.2438 69.9371C88.3379 69.9748 88.4406 69.9981 88.5347 70.0358C88.6801 70.0852 88.8113 70.1258 88.9567 70.1752C89.0223 70.1955 89.0879 70.2159 89.1621 70.2218L89.2962 70.2251C89.3105 70.2337 89.3191 70.2193 89.3476 70.2367C89.4502 70.26 89.5586 70.3064 89.6698 70.3153C89.744 70.3213 89.8239 70.3503 89.8981 70.3563C90.0521 70.3912 90.229 70.4205 90.4059 70.4498C91.3644 70.6021 92.3461 70.6507 93.3452 70.5726C95.1549 70.439 97.0343 69.8964 98.9345 68.9938C99.7717 68.6012 100.601 68.1251 101.427 67.5884C102.19 67.0919 102.951 66.5349 103.686 65.9231C105.058 64.7972 106.337 63.5357 107.482 62.1729C108.035 61.5088 108.559 60.8273 109.043 60.1803C109.135 60.0595 109.221 59.9156 109.312 59.7949C109.455 59.5878 109.599 59.3807 109.756 59.1823L110.418 58.1727C111.209 56.9473 111.954 55.6354 112.651 54.2744C112.803 53.955 112.969 53.6442 113.113 53.3392C113.21 53.1435 113.294 52.9392 113.383 52.7579C113.429 52.6485 113.483 52.5248 113.543 52.4241L113.75 51.9809L113.776 51.9377C113.839 51.7996 113.893 51.6759 113.942 51.529C114.063 51.2297 114.189 50.9534 114.301 50.6685C114.815 49.3531 115.155 48.3628 115.44 47.4963L115.667 46.791C115.716 46.6442 115.756 46.5117 115.782 46.3706C115.811 46.29 115.825 46.2008 115.854 46.1202C115.894 45.9877 115.935 45.8553 115.975 45.7229L116.038 45.4868C116.079 45.3543 116.11 45.2363 116.128 45.1095C116.148 45.0433 116.162 44.954 116.182 44.8878C116.234 44.7035 116.272 44.5106 116.324 44.3263C116.376 44.1421 116.419 43.9722 116.453 43.8167C116.531 43.4913 116.592 43.1947 116.673 42.9298C116.716 42.76 116.759 42.5901 116.785 42.449C116.8 42.3597 116.82 42.2935 116.84 42.2273C116.886 42.0199 116.929 41.8501 116.97 41.7176C117.005 41.4642 117.039 41.3087 117.091 41.3203ZM81.9494 46.8133C81.9637 46.822 81.9693 46.8451 81.9693 46.8451C82.0976 46.9232 82.2371 47.0474 82.4051 47.189C82.5447 47.3133 82.6955 47.4837 82.8719 47.7089L83.1079 48.0293L83.2303 48.1823C83.2787 48.2314 83.3042 48.2862 83.344 48.3497C83.9127 49.1868 84.3897 50.1446 84.7466 51.2058C85.0866 52.1978 85.3293 53.2875 85.4577 54.4058C85.5835 55.4635 85.6205 56.6046 85.5891 57.7628C85.5743 57.95 85.5682 58.1229 85.5534 58.3101C85.5532 58.4081 85.5387 58.4974 85.5384 58.5953C85.5092 58.8719 85.4714 59.1628 85.4564 59.448L85.4153 59.8743C85.4008 59.9636 85.3863 60.0528 85.3718 60.1421C85.3603 60.1939 85.3487 60.2458 85.3458 60.2832L85.2124 61.1242C85.218 61.1473 85.2008 61.176 85.2065 61.1991C85.2035 61.2366 85.192 61.2884 85.189 61.3258L85.1485 61.5562L85.0561 61.9709L84.978 62.3942C84.975 62.4317 84.9578 62.4604 84.9549 62.4979C84.9318 62.6015 84.9087 62.7052 84.8856 62.8089C84.8394 63.0162 84.779 63.2148 84.7414 63.4078L84.6952 63.6151C84.6836 63.667 84.6721 63.7188 84.6606 63.7706C84.6461 63.8599 84.6173 63.9405 84.6028 64.0298L84.4819 64.4271C84.4099 64.6776 84.3294 64.9424 84.2574 65.1929L84.2544 65.2304C84.1969 65.3916 84.1309 65.5671 84.0734 65.7283C84.036 65.8233 83.9987 65.9183 83.9756 66.022L83.8034 66.4076C83.7862 66.4364 83.7776 66.4508 83.769 66.4652C83.7574 66.517 83.7545 66.5544 83.7429 66.6063L83.6309 66.8912C83.3064 66.5562 82.9762 66.1981 82.6689 65.8342C81.9946 65.0113 81.4004 64.1195 80.9005 63.1674C80.4205 62.247 80.0007 61.226 79.6752 60.1447C79.361 59.1095 79.127 58.0054 78.9843 56.8784C78.8472 55.7746 78.7873 54.6392 78.8102 53.4954C78.8104 53.3975 78.8107 53.2995 78.8166 53.2246C78.8171 53.0287 78.8318 52.8414 78.8323 52.6455L78.8296 52.585C78.8503 52.3229 78.8567 52.052 78.8773 51.7899L78.9183 51.3636L79.0002 50.6089L79.0147 50.5196C79.0321 50.3929 79.0496 50.2662 79.0813 50.1481C79.1795 49.6586 79.3149 49.172 79.5159 48.7057C79.7026 48.2308 79.9377 47.805 80.1954 47.4715C80.4303 47.1436 80.7278 46.8735 80.9678 46.7647C81.0764 46.7131 81.1677 46.6903 81.2734 46.6762C81.3876 46.6476 81.4989 46.6566 81.6158 46.6886C81.7328 46.7206 81.8354 46.7439 81.9494 46.8133Z" fill="white"/>
</svg>
