<svg width="121" height="126" viewBox="0 0 121 126" fill="none" xmlns="http://www.w3.org/2000/svg">
<path d="M115.464 73.509L94.6107 72.7331L103.208 79.7987L104.693 91.5503L115.464 73.509Z" fill="white"/>
<path d="M108.928 75.2808C109.034 75.3929 109.009 75.6436 108.85 75.9956C108.768 76.1831 108.657 76.3879 108.518 76.6102C108.453 76.7285 108.373 76.8554 108.279 76.9911L108.146 77.1902C108.092 77.2624 108.052 77.3259 107.998 77.3981C107.781 77.6867 107.537 77.9928 107.264 78.3162C107.195 78.397 107.127 78.4779 107.045 78.5674C106.976 78.6483 106.894 78.7378 106.811 78.8274C106.66 78.9977 106.487 79.1624 106.307 79.3502C105.954 79.7026 105.59 80.1011 105.157 80.4826C104.941 80.6733 104.733 80.8784 104.502 81.0778C104.391 81.1847 104.272 81.2772 104.161 81.3841C104.05 81.491 103.93 81.5835 103.796 81.6847C101.862 83.2945 99.3551 85.0182 96.3765 86.5386C96.1827 86.637 96.0117 86.7412 95.8093 86.8253L95.2334 87.0976C94.8372 87.2802 94.4638 87.4684 94.0447 87.6452C93.6399 87.8134 93.2208 87.9902 92.8159 88.1584C92.6135 88.2425 92.3968 88.3352 92.1944 88.4193C91.9834 88.489 91.7667 88.5818 91.5557 88.6515C91.3447 88.7212 91.128 88.8139 90.917 88.8836C90.6917 88.962 90.4893 89.0461 90.2554 89.1101C89.8192 89.2581 89.3743 89.3918 88.9237 89.5486C88.8068 89.5806 88.6985 89.6269 88.5815 89.6589L88.2764 89.7663C88.0426 89.8303 87.8229 89.8856 87.5891 89.9496C87.3552 90.0136 87.1213 90.0776 86.9017 90.1329C86.6679 90.1969 86.4254 90.2465 86.2058 90.3018C85.9719 90.3658 85.6923 90.4184 85.4071 90.4941C85.2531 90.529 85.0991 90.564 84.9308 90.6077C84.7625 90.6513 84.5857 90.6806 84.4088 90.7098C84.0408 90.7771 83.6443 90.8617 83.2249 90.9405C83.1223 90.9638 83.0196 90.9872 82.894 91.0048C82.7828 91.0137 82.6658 91.0457 82.5545 91.0546C82.3263 91.0955 82.0895 91.1221 81.847 91.1717C79.8928 91.4793 77.4505 91.7507 74.6023 91.7984C73.886 91.8031 73.1554 91.8165 72.3847 91.7955C72.0052 91.8108 71.6227 91.7888 71.2259 91.7754C70.8435 91.7534 70.4381 91.7256 70.0328 91.6978C69.8301 91.6839 69.6274 91.6701 69.4248 91.6562C69.3277 91.6564 69.2221 91.6423 69.1165 91.6282C69.0108 91.614 68.9138 91.6143 68.8081 91.6001C68.3942 91.558 67.9803 91.5159 67.5521 91.4824C67.3494 91.4685 67.1296 91.4259 66.9183 91.3976C66.707 91.3693 66.4958 91.3411 66.2845 91.3128C65.8533 91.2419 65.4166 91.194 64.9768 91.1087C64.5371 91.0234 64.0917 90.9612 63.6377 90.8846C63.5321 90.8704 63.4179 90.8419 63.3036 90.8134C63.1894 90.7849 63.0838 90.7707 62.9695 90.7422C62.7411 90.6852 62.5212 90.6425 62.2785 90.5942C62.05 90.5371 61.8159 90.5032 61.5874 90.4461C61.359 90.3891 61.1305 90.3321 60.902 90.275C60.6736 90.218 60.4451 90.161 60.208 90.0895C60.0938 90.061 59.9796 90.0325 59.8567 89.9896L59.674 89.944L59.5054 89.8897C59.0399 89.7612 58.5658 89.6184 58.0917 89.4755C57.9688 89.4326 57.8546 89.4042 57.7318 89.3612C57.6089 89.3183 57.4947 89.2898 57.3719 89.2469C57.1348 89.1755 56.9034 89.081 56.6577 88.9952C56.4121 88.9094 56.175 88.838 55.9436 88.7435C55.7122 88.649 55.4665 88.5632 55.2351 88.4687C55.0037 88.3743 54.758 88.2884 54.518 88.1796C54.3952 88.1367 54.2723 88.0938 54.1638 88.0422C54.0409 87.9993 53.9237 87.9333 53.8009 87.8904C53.3209 87.6727 52.8352 87.4781 52.3552 87.2603C52.1152 87.1515 51.8752 87.0426 51.6265 86.9193C51.3865 86.8105 51.1522 86.6785 50.9122 86.5697C49.9492 86.0968 48.9889 85.5633 48.0256 84.9925C47.0624 84.4216 46.119 83.8189 45.184 83.1327C44.2576 82.4609 43.3425 81.743 42.4586 80.9472C42.2269 80.7547 42.0238 80.5449 41.8063 80.3438C41.5889 80.1427 41.3858 79.9329 41.1598 79.7174C40.9566 79.5076 40.7448 79.2834 40.5417 79.0736C40.4358 78.9615 40.3385 78.8637 40.2326 78.7517C40.1267 78.6396 40.0208 78.5275 39.9292 78.4067C39.1335 77.4983 38.3719 76.5494 37.673 75.5428C37.5039 75.2926 37.3121 75.0367 37.1431 74.7864C36.9883 74.5275 36.8107 74.2629 36.6559 74.004C36.3093 73.4892 36.0196 72.9396 35.7157 72.3987C35.5523 72.1254 35.4261 71.8491 35.2769 71.5672C35.1364 71.2996 35.0015 71.0089 34.8524 70.7269C34.7261 70.4506 34.5913 70.16 34.4706 69.8607L34.2726 69.4319L34.2267 69.3225L34.1807 69.2131L34.0889 68.9944C33.9682 68.6951 33.8562 68.4101 33.7356 68.1108L33.6437 67.892C33.6149 67.8114 33.5948 67.7452 33.566 67.6646L33.4108 67.2098C33.313 66.9161 33.2066 66.6081 33.1088 66.3145C33.0253 66.0122 32.9332 65.6955 32.8496 65.3932L32.7172 64.9441C32.6826 64.7886 32.6479 64.6331 32.6133 64.4776C32.544 64.1666 32.4747 63.8556 32.4054 63.5446C32.3708 63.3891 32.3361 63.2336 32.3157 63.0694L32.2261 62.5942L32.1364 62.1191L32.0959 61.8887C32.09 61.8138 32.0755 61.7245 32.0696 61.6496C32.0288 61.3212 31.9823 61.0159 31.9415 60.6876C31.9211 60.5234 31.8865 60.3679 31.889 60.2094L31.8506 59.7226C31.8327 59.3999 31.8005 59.086 31.7739 58.7489C31.756 58.4263 31.7381 58.1036 31.7344 57.7723C31.7139 56.47 31.782 55.1532 31.9613 53.8273C32.1491 52.5159 32.4483 51.1955 32.9217 49.9064C33.395 48.6172 34.014 47.3767 34.8274 46.2336C34.8814 46.1614 34.9355 46.0893 34.9753 46.0258L35.1374 45.8093C35.2455 45.6649 35.3479 45.5436 35.456 45.3993C35.6808 45.125 35.9426 44.8477 36.2274 44.5762C36.5121 44.3046 36.8567 44.0357 37.25 43.8158C37.6347 43.5814 38.0823 43.3872 38.5815 43.2793C39.0436 43.1744 39.5486 43.1414 40.0682 43.1976C40.5735 43.2626 41.0563 43.4198 41.4849 43.6492C41.9136 43.8786 42.2711 44.1514 42.5858 44.4502C42.9005 44.7491 43.1638 45.0596 43.3987 45.3874C43.8598 46.0287 44.1812 46.6964 44.4512 47.3756C44.6983 48.0492 44.8941 48.7344 45.0101 49.4487C45.0391 49.6272 45.0681 49.8058 45.0971 49.9844L45.1145 50.1111L45.1234 50.2234L45.1497 50.4625L45.188 50.9493L45.2177 51.4218C45.2295 51.5716 45.2357 51.7444 45.2475 51.8942L45.263 52.3753C45.2809 52.698 45.276 53.0149 45.2711 53.3319C45.2601 54.6141 45.1749 55.9022 44.984 57.1762C44.7932 58.4502 44.511 59.7014 44.1059 60.9097C42.5572 65.7974 39.006 70.0016 34.4444 71.8978C32.175 72.8487 29.7184 73.1287 27.4146 72.884C26.2556 72.766 25.1447 72.5009 24.0879 72.1637C23.031 71.8264 22.011 71.3882 21.0765 70.898C19.1704 69.9204 17.4834 68.6916 16.0075 67.3931C14.5229 66.0802 13.2179 64.6775 12.1041 63.2369C11.9638 63.0673 11.8292 62.8746 11.6889 62.7049C11.6145 62.6129 11.5629 62.5266 11.4884 62.4346C11.4282 62.3339 11.3624 62.2563 11.3022 62.1556C11.1762 61.9773 11.0502 61.799 10.9241 61.6207C10.7981 61.4424 10.6721 61.2641 10.5603 61.0771C10.3225 60.7118 10.0933 60.3609 9.86406 60.0099C9.64909 59.6503 9.43412 59.2907 9.21916 58.9311C8.39075 57.5128 7.69082 56.1143 7.09383 54.7905C6.95601 54.4624 6.80959 54.1199 6.67177 53.7918C6.53394 53.4637 6.41896 53.1413 6.28973 52.8276C6.23224 52.6664 6.16052 52.5139 6.10303 52.3527C6.04554 52.1915 5.99664 52.0447 5.93915 51.8835C5.83277 51.5754 5.72639 51.2674 5.62861 50.9738C5.24313 49.7762 4.91785 48.6793 4.6955 47.657C4.63776 47.3979 4.57438 47.1618 4.52524 46.917C4.4761 46.6722 4.43555 46.4418 4.38076 46.2201C4.34022 45.9897 4.29404 45.7824 4.2621 45.5664C4.21591 45.3591 4.18397 45.143 4.16063 44.9414C4.12304 44.7485 4.09968 44.5468 4.07069 44.3683C4.04169 44.1897 4.01271 44.0112 4.00656 43.8383C3.96577 43.5099 3.93359 43.196 3.90435 42.9195C3.8751 42.6429 3.86305 42.3952 3.85395 42.1848C3.84486 41.9745 3.83871 41.8017 3.84116 41.6432C3.84901 41.3637 3.86007 41.2196 3.90281 41.1936C3.93991 41.1906 4.00305 41.3288 4.08364 41.5936C4.12393 41.7261 4.16716 41.8959 4.21335 42.1032C4.25954 42.3106 4.30008 42.541 4.38067 42.8058C4.43841 43.065 4.52194 43.3673 4.59982 43.6927C4.64306 43.8626 4.68631 44.0325 4.72955 44.2023C4.77279 44.3722 4.82462 44.5565 4.87081 44.7638C4.92265 44.9481 4.96884 45.1554 5.02928 45.3541C5.08972 45.5527 5.14451 45.7744 5.21354 45.9874C5.28258 46.2005 5.33738 46.4222 5.40076 46.6583C5.4784 46.8857 5.54178 47.1218 5.62801 47.3636C5.93585 48.3338 6.31814 49.396 6.76625 50.5358C6.87828 50.8207 7.00456 51.097 7.12519 51.3964C7.18833 51.5345 7.24581 51.6957 7.30895 51.8338C7.38069 51.9864 7.44382 52.1245 7.51556 52.277C7.65904 52.582 7.77967 52.8814 7.93175 53.2008C8.07522 53.5059 8.24153 53.8166 8.3936 54.136C9.03039 55.3963 9.77577 56.7083 10.6268 58.0343C10.8474 58.3709 11.0594 58.693 11.2886 59.0439C11.5235 59.3718 11.7669 59.714 12.0018 60.0419C12.4943 60.7033 13.0041 61.3935 13.5623 62.0345C14.6587 63.3484 15.932 64.6331 17.3591 65.7847C18.7805 66.9595 20.3643 68.0157 22.1016 68.841C23.839 69.6663 25.7298 70.2607 27.6909 70.4199C28.6672 70.4922 29.6574 70.458 30.6302 70.297C30.8813 70.2618 31.1152 70.1978 31.3576 70.1482C31.4832 70.1306 31.6001 70.0986 31.717 70.0666C31.834 70.0346 31.9509 70.0026 32.0821 69.9619C32.3302 69.8892 32.5555 69.8109 32.795 69.7238C33.0259 69.6224 33.2654 69.5353 33.4963 69.4339C35.3351 68.608 37.0156 67.2898 38.35 65.6527C39.0243 64.8298 39.6185 63.9379 40.1184 62.9858C40.6183 62.0337 41.0239 61.0214 41.3437 59.9631C41.9691 57.8554 42.2459 55.5871 42.2001 53.2995C42.1851 53.0143 42.193 52.7348 42.1694 52.4352C42.1544 52.15 42.1394 51.8648 42.1101 51.5883L42.0691 51.162L42.0281 50.7356L41.9961 50.5196L41.9873 50.4073L41.9728 50.318C41.9553 50.1913 41.9379 50.0646 41.9062 49.9465C41.8079 49.457 41.664 48.956 41.4716 48.5041C41.2935 48.0436 41.0584 47.6178 40.792 47.2698C40.5257 46.9219 40.2454 46.6806 40.0197 46.5631C39.9111 46.5115 39.8111 46.4743 39.7141 46.4745C39.6003 46.6419 39.489 46.6509 39.3721 46.6829C39.2694 46.7062 39.1468 46.7612 39.0186 46.8394C38.8904 46.9175 38.7366 47.0504 38.5828 47.1833C38.4376 47.3307 38.2726 47.5097 38.1161 47.7032L37.88 48.0236L37.7577 48.1766C37.7093 48.2257 37.6837 48.2805 37.6439 48.344C36.4668 50.0816 35.7758 52.2097 35.516 54.4088C35.3789 55.5126 35.3475 56.6306 35.3846 57.7658C35.3996 58.051 35.4146 58.3362 35.421 58.607C35.4503 58.8835 35.4881 59.1744 35.5031 59.4596L35.5441 59.8859C35.5559 60.0357 35.582 60.1768 35.5994 60.3036C35.6515 60.5858 35.6807 60.8623 35.7328 61.1445C35.7387 61.2194 35.7589 61.2856 35.7648 61.3605L35.8395 61.5505L35.9318 61.9652L36.0242 62.3798C36.0503 62.5209 36.0763 62.6621 36.1166 62.7945C36.1829 63.068 36.2493 63.3416 36.3156 63.6151C36.3559 63.7476 36.3819 63.8887 36.4222 64.0211L36.5431 64.4184C36.6237 64.6833 36.7043 64.9481 36.7935 65.2274C36.874 65.4923 36.9775 65.7628 37.0723 66.019L37.1846 66.4019C37.2047 66.4681 37.2249 66.5343 37.2593 66.5919L37.334 66.7819C37.4374 67.0524 37.5322 67.3086 37.6413 67.5561L37.716 67.7461L37.7533 67.8411L37.7907 67.9361L37.9629 68.3217C38.072 68.5692 38.2039 68.8224 38.313 69.0699C38.4363 69.3087 38.5682 69.5619 38.6916 69.8008C38.8149 70.0396 38.9468 70.2928 39.0844 70.5229C39.3681 70.9976 39.629 71.4666 39.9327 71.9095C40.0845 72.131 40.2221 72.3611 40.3739 72.5826C40.5257 72.804 40.6918 73.0168 40.8436 73.2383C41.4652 74.1155 42.1636 74.9262 42.8591 75.6994C42.9421 75.8058 43.0308 75.8891 43.1281 75.9868C43.2254 76.0846 43.3141 76.1679 43.3971 76.2743C43.5831 76.4553 43.7548 76.645 43.9408 76.826C44.1267 77.0071 44.327 77.1794 44.5129 77.3605C44.6989 77.5415 44.8849 77.7226 45.0908 77.8719C45.883 78.5469 46.6866 79.1758 47.5157 79.7499C48.3534 80.3384 49.2081 80.8577 50.077 81.3683C50.9373 81.8645 51.8175 82.329 52.7091 82.7474C52.9262 82.8506 53.1434 82.9537 53.3834 83.0626C53.6006 83.1657 53.832 83.2602 54.0492 83.3634C54.4891 83.5467 54.9291 83.7299 55.3691 83.9132C55.4777 83.9647 55.5863 84.0163 55.7005 84.0448C55.8091 84.0964 55.9233 84.1249 56.0319 84.1765C56.2547 84.2566 56.4775 84.3367 56.6861 84.4255C56.9089 84.5056 57.1317 84.5857 57.3403 84.6745C57.5545 84.7402 57.7773 84.8203 57.9915 84.886C58.2058 84.9517 58.4286 85.0318 58.6428 85.0975C58.7428 85.1347 58.857 85.1633 58.9656 85.2148C59.0656 85.252 59.1798 85.2805 59.294 85.3091C59.7367 85.4318 60.1566 85.5489 60.585 85.6803L60.7449 85.7202L60.9049 85.7601C61.0191 85.7887 61.1105 85.8115 61.2247 85.84C61.4303 85.8913 61.6588 85.9483 61.8644 85.9997C62.07 86.051 62.2899 86.0937 62.4955 86.145C62.7154 86.1876 62.9124 86.2246 63.1323 86.2672C63.3379 86.3186 63.5492 86.3468 63.7548 86.3982C63.8604 86.4123 63.9604 86.4495 64.066 86.4636C64.1717 86.4778 64.2716 86.5149 64.3773 86.5291C64.7856 86.5943 65.1939 86.6595 65.6021 86.7247C66.0104 86.7899 66.4101 86.8408 66.8098 86.8916C66.9982 86.9142 67.2095 86.9424 67.3979 86.965C67.5864 86.9876 67.7976 87.0158 67.9774 87.024C68.3685 87.0605 68.751 87.0825 69.1279 87.1276C69.2249 87.1274 69.3163 87.1502 69.4133 87.15C69.5104 87.1497 69.6017 87.1725 69.6988 87.1722C69.8786 87.1804 70.0813 87.1943 70.2611 87.2025C70.6208 87.2189 71.0033 87.2409 71.3629 87.2573C71.714 87.2593 72.0736 87.2756 72.4246 87.2776C73.1211 87.3046 73.7974 87.2654 74.4538 87.2579C77.0679 87.1763 79.2933 86.8997 81.0849 86.6127C81.3131 86.5717 81.5271 86.5395 81.741 86.5072C81.8437 86.4839 81.955 86.475 82.0577 86.4517C82.1604 86.4284 82.2631 86.4051 82.3515 86.3904C82.748 86.3058 83.1017 86.2473 83.4469 86.1744C83.6152 86.1307 83.7778 86.1102 83.9318 86.0752C84.0859 86.0402 84.2256 86.0139 84.3568 85.9732C84.6278 85.9063 84.8845 85.848 85.0898 85.8013C85.3095 85.746 85.5148 85.6994 85.7345 85.6441C85.9541 85.5888 86.1509 85.5278 86.3705 85.4725C86.5901 85.4172 86.7869 85.3561 87.0065 85.3008L87.3202 85.2078C87.4229 85.1845 87.5312 85.1381 87.6339 85.1148C88.0503 84.9985 88.4581 84.8678 88.8659 84.737C89.0626 84.676 89.2737 84.6063 89.4704 84.5453C89.6672 84.4843 89.8782 84.4146 90.0664 84.3392C90.2632 84.2782 90.4599 84.2172 90.6481 84.1418C90.8449 84.0808 91.033 84.0054 91.2212 83.93C91.6062 83.7936 91.9825 83.6428 92.3675 83.5063C92.7438 83.3555 93.1059 83.2134 93.4823 83.0627L94.0325 82.8451C94.2207 82.7697 94.386 82.6886 94.56 82.6219C97.3995 81.4217 99.8735 80.1303 101.908 78.9495C102.037 78.8714 102.173 78.8076 102.287 78.7382C102.416 78.6601 102.53 78.5906 102.658 78.5125C102.886 78.3736 103.128 78.226 103.365 78.1015C103.829 77.8381 104.248 77.5633 104.661 77.3116C104.861 77.1901 105.06 77.0685 105.245 76.9557C105.345 76.8949 105.43 76.8429 105.516 76.7908C105.601 76.7387 105.687 76.6866 105.787 76.6258C106.129 76.4175 106.456 76.2179 106.75 76.0586C106.821 76.0152 106.892 75.9718 106.972 75.9428C107.043 75.8994 107.1 75.8647 107.172 75.8213C107.3 75.7432 107.437 75.6794 107.551 75.61C107.787 75.4855 108.004 75.3927 108.178 75.326C108.563 75.1896 108.823 75.1687 108.928 75.2808Z" fill="white"/>
<path d="M99.1299 84.9965C98.2465 85.5347 97.3317 86.0528 96.3768 86.5365C96.3198 86.5712 96.24 86.6002 96.183 86.6349C96.069 86.7044 95.9322 86.7681 95.8096 86.8232L95.2338 87.0955C95.1254 87.1419 95.0029 87.1969 94.9031 87.2577C94.6295 87.3852 94.3415 87.5213 94.0679 87.6488C93.663 87.817 93.2582 87.9851 92.8534 88.1533C92.7735 88.1823 92.7023 88.2257 92.6224 88.2547C92.4856 88.3185 92.3402 88.3678 92.2176 88.4229C92.0066 88.4926 91.7899 88.5854 91.5789 88.6551C91.405 88.7218 91.231 88.7885 91.0571 88.8552L90.9488 88.9016C90.8974 88.9132 90.8689 88.9306 90.8176 88.9423C90.6437 89.009 90.4697 89.0757 90.2872 89.128L89.7482 89.2994C89.4859 89.3808 89.2093 89.4708 88.9469 89.5522C88.9098 89.5551 88.8671 89.5812 88.83 89.5842C88.7644 89.6045 88.6845 89.6335 88.6047 89.6625L88.2768 89.7642C88.0571 89.8195 87.8461 89.8892 87.6122 89.9532L87.5837 89.9706C87.3499 90.0346 87.116 90.0986 86.8964 90.1539C86.7424 90.1888 86.5883 90.2238 86.4343 90.2588C86.3545 90.2878 86.2803 90.2938 86.1919 90.3084L85.3932 90.5006C85.2905 90.524 85.1879 90.5473 85.0709 90.5793L84.9169 90.6142C84.8142 90.6375 84.6887 90.6552 84.586 90.6785C84.5204 90.6988 84.4605 90.6961 84.3949 90.7164C84.1809 90.7487 83.9613 90.804 83.7188 90.8536L83.1968 90.9558C83.1597 90.9588 83.1226 90.9617 83.0798 90.9878C83.0143 91.0081 82.9401 91.0141 82.8659 91.02C82.7546 91.029 82.6377 91.0609 82.5264 91.0699C82.2982 91.1108 82.0614 91.1374 81.8189 91.187C80.6977 91.3599 79.6335 91.498 78.5293 91.6017C77.2167 91.7146 75.8869 91.7987 74.5827 91.828C74.4486 91.8312 74.3145 91.8345 74.1718 91.8233C73.5895 91.8248 72.9931 91.835 72.3794 91.8164L71.9913 91.8174C71.7373 91.8152 71.4746 91.7986 71.2206 91.7964C70.8981 91.777 70.5755 91.7577 70.253 91.7383L70.0275 91.7188C69.9304 91.719 69.8248 91.7049 69.7278 91.7051C69.6307 91.7054 69.5251 91.6912 69.428 91.6915C69.331 91.6917 69.2254 91.6776 69.1197 91.6635C69.0141 91.6494 68.9171 91.6496 68.8114 91.6355L68.426 91.576C68.1405 91.5537 67.8465 91.517 67.561 91.4947C67.3955 91.4778 67.2299 91.4609 67.0557 91.4297C67.01 91.4183 66.9729 91.4213 66.9272 91.4099C66.8444 91.4014 66.7388 91.3873 66.656 91.3789C66.5275 91.359 66.3991 91.3392 66.2706 91.3194C66.1649 91.3052 66.0593 91.2911 65.9451 91.2626C65.6282 91.2202 65.2884 91.1721 64.9629 91.1153C64.706 91.0756 64.4404 91.0215 64.1834 90.9819L63.6238 90.8911C63.5182 90.877 63.4125 90.8629 63.2897 90.82C63.1755 90.7914 63.0699 90.7773 62.9556 90.7488C62.8642 90.726 62.7586 90.7118 62.6672 90.689C62.5301 90.6548 62.4016 90.635 62.2646 90.6007L61.5735 90.4527C61.4136 90.4128 61.2451 90.3585 61.0709 90.3272L60.8881 90.2816L60.1941 90.0961C60.0799 90.0676 59.9657 90.0391 59.8428 89.9962L59.6601 89.9505L59.4915 89.8962L59.2545 89.8248C58.8717 89.7048 58.4747 89.5935 58.0691 89.4677C58.0235 89.4563 57.9778 89.4449 57.9463 89.4248C57.8778 89.4077 57.7864 89.3849 57.7093 89.3534L57.6179 89.3306C57.5265 89.3078 57.4493 89.2763 57.3494 89.2391L57.1752 89.2079C56.9981 89.1392 56.8153 89.0935 56.6382 89.0249C56.3925 88.9391 56.1554 88.8676 55.924 88.7732L55.824 88.7359C55.6241 88.6615 55.4155 88.5728 55.2013 88.5071L54.9013 88.3955C54.7557 88.3469 54.6156 88.2752 54.47 88.2266L54.1157 88.0892C54.0386 88.0577 53.9614 88.0262 53.8843 87.9947C53.8386 87.9833 53.8071 87.9632 53.7529 87.9374C53.4986 87.8373 53.25 87.714 52.9957 87.6138C52.7643 87.5193 52.5243 87.4105 52.3071 87.3073L51.5785 86.9663C51.4385 86.8946 51.307 86.8374 51.167 86.7657C51.0584 86.7141 50.9727 86.6682 50.8641 86.6167C49.8697 86.1237 48.8951 85.5989 47.9861 85.0538C47.02 84.4455 46.0594 83.8141 45.1731 83.1768C44.2152 82.4849 43.3057 81.7439 42.4476 80.9912C42.256 80.8332 42.07 80.6522 41.8841 80.4711C41.844 80.4367 41.8268 80.4079 41.7868 80.3734C41.5694 80.1723 41.3748 79.9769 41.1574 79.7758L41.1402 79.747C41.0115 79.6292 40.8655 79.4826 40.7425 79.3418C40.6766 79.2642 40.5965 79.1952 40.5307 79.1176L40.3848 78.971C40.3275 78.9078 40.2703 78.8445 40.2216 78.7957C40.1902 78.7756 40.1644 78.7324 40.133 78.7124C40.0671 78.6347 39.9784 78.5514 39.9126 78.4738C38.9594 77.367 38.2637 76.4957 37.6564 75.6099C37.6048 75.5236 37.5389 75.446 37.4873 75.3597C37.3699 75.1957 37.2439 75.0174 37.1407 74.8448L36.6307 74.0567C36.3843 73.677 36.1578 73.2656 35.9342 72.8916C35.8482 72.7478 35.7765 72.5952 35.6991 72.4658C35.5873 72.2788 35.4812 72.0687 35.3837 71.8731C35.3493 71.8155 35.3205 71.7349 35.2775 71.663C35.0181 71.7818 34.7444 71.9093 34.485 72.0281C33.3788 72.4862 32.1953 72.8148 30.9827 72.9649C29.8158 73.1264 28.6371 73.1381 27.4553 73.0144C26.8986 72.961 26.3304 72.8559 25.7536 72.7364C25.2224 72.6283 24.6798 72.4683 24.1285 72.294C23.1174 71.9682 22.106 71.5443 21.1172 71.0283C20.2141 70.5581 19.3051 70.013 18.4274 69.39C17.6297 68.836 16.8175 68.1927 16.0395 67.509C14.6122 66.2594 13.3072 64.8567 12.1361 63.3528C12.0273 63.2033 11.9128 63.0768 11.804 62.9273C11.7782 62.8841 11.7381 62.8496 11.7123 62.8065L11.6693 62.7346C11.6121 62.6713 11.5691 62.5994 11.5119 62.5362C11.4517 62.4355 11.3858 62.3579 11.3256 62.2572C11.2168 62.1076 11.0994 61.9437 11.0048 61.7855L10.9618 61.7136C10.936 61.6704 10.9102 61.6273 10.8702 61.5928C10.7699 61.4576 10.6839 61.3138 10.5837 61.1786C10.5149 61.0635 10.4233 60.9428 10.3545 60.8277C10.1941 60.5919 10.0479 60.3473 9.88748 60.1115L9.2426 59.0327C8.47438 57.7151 7.7602 56.3253 7.11727 54.8921C6.97944 54.564 6.83303 54.2215 6.6952 53.8934C6.60332 53.6747 6.52003 53.4703 6.45099 53.2573C6.40505 53.1479 6.35911 53.0385 6.31317 52.9292L6.12645 52.4542L6.10926 52.4255C6.06037 52.2787 6.01147 52.1318 5.94834 51.9937L5.8535 51.7375C5.77586 51.5101 5.70683 51.2971 5.62355 51.0927C5.18918 49.7483 4.88969 48.6945 4.69044 47.7759C4.66439 47.6348 4.6241 47.5024 4.59806 47.3613L4.52018 47.0359C4.48554 46.8804 4.45654 46.7019 4.4305 46.5607C4.41035 46.4945 4.40445 46.4196 4.38995 46.3303L4.27127 45.6766C4.24523 45.5355 4.21918 45.3944 4.19314 45.2533C4.18724 45.1784 4.1757 45.1265 4.1698 45.0516C4.14376 44.9105 4.12631 44.7838 4.10887 44.6571L4.07988 44.4785C4.05088 44.2999 4.0219 44.1214 4.01575 43.9485C3.97496 43.6202 3.94276 43.3062 3.91352 43.0297C3.87863 42.7762 3.87519 42.5429 3.87469 42.3469L3.86314 42.2951C3.85404 42.0848 3.8479 41.9119 3.85035 41.7535C3.84396 41.4826 3.86925 41.3299 3.89775 41.3125C3.93485 41.3095 3.99798 41.4477 4.07856 41.7125C4.11885 41.8449 4.1621 42.0148 4.20829 42.2222C4.22844 42.2884 4.23434 42.3633 4.26308 42.4439C4.28913 42.585 4.33237 42.7549 4.37561 42.9248C4.43335 43.1839 4.51688 43.4862 4.59476 43.8116C4.6294 43.9671 4.67265 44.137 4.72449 44.3213C4.76773 44.4912 4.81956 44.6754 4.86575 44.8827C4.8859 44.9489 4.90605 45.0152 4.92055 45.1045C4.95224 45.2225 4.99253 45.3549 5.00997 45.4817L5.07336 45.7178C5.11365 45.8502 5.15394 45.9826 5.19424 46.1151C5.22298 46.1957 5.23747 46.2849 5.26622 46.3655C5.30651 46.498 5.33257 46.6391 5.38146 46.7859L5.60871 47.4912C5.8706 48.352 6.22414 49.3336 6.74695 50.6634C6.85897 50.9484 6.98525 51.2246 7.10588 51.524C7.16902 51.6621 7.22355 51.7858 7.27244 51.9327L7.29824 51.9758L7.50485 52.419C7.52229 52.5457 7.58248 52.6464 7.62842 52.7558C7.71736 52.9371 7.80064 53.1414 7.89818 53.3371C8.04165 53.6421 8.20797 53.9529 8.36005 54.2723C9.05702 55.6333 9.80239 56.9452 10.5932 58.1706L11.255 59.1802C11.3983 59.3873 11.5415 59.5944 11.699 59.7928C11.7906 59.9135 11.8908 60.0487 11.9682 60.1781C12.4522 60.8252 12.962 61.5153 13.5287 62.1708C14.6824 63.5479 15.9613 64.8095 17.3341 65.9354C18.0691 66.5472 18.8297 67.1042 19.5844 67.5863C20.4106 68.1229 21.2394 68.5991 22.0767 68.9916C23.9769 69.8943 25.8476 70.4225 27.666 70.5705C28.6651 70.6486 29.6467 70.6 30.6053 70.4477C30.7679 70.4271 30.9362 70.3834 31.1131 70.3542C31.1787 70.3338 31.2671 70.3192 31.3413 70.3132C31.444 70.2899 31.5466 70.2666 31.6407 70.2289C31.655 70.2202 31.6778 70.2259 31.7063 70.2086L31.8604 70.1736C31.9259 70.1533 31.9915 70.1329 32.0657 70.127C32.2112 70.0776 32.3566 70.0283 32.4878 69.9876C32.5819 69.9499 32.6845 69.9266 32.7786 69.8889L32.8585 69.8598C33.0609 69.7758 33.2633 69.6917 33.48 69.5989C33.7109 69.4975 33.9475 69.373 34.184 69.2485L34.1093 69.0585L34.0347 68.8685C33.9428 68.6498 33.8565 68.408 33.7647 68.1893L33.6728 67.9705C33.6612 67.9187 33.6354 67.8755 33.6239 67.8237C33.6067 67.7949 33.6123 67.7719 33.5951 67.7431L33.4399 67.2883C33.4025 67.1933 33.3708 67.0752 33.3335 66.9803C33.273 66.7816 33.1984 66.5916 33.1379 66.393L32.8787 65.4717L32.7377 65.0082C32.7146 64.9045 32.6915 64.8008 32.6684 64.6971C32.6569 64.6453 32.6453 64.5935 32.6338 64.5417L32.5443 64.1645C32.4925 63.9802 32.4635 63.8016 32.4117 63.6173C32.38 63.4993 32.3625 63.3726 32.3394 63.2689C32.3365 63.2315 32.3335 63.194 32.322 63.1422L32.2323 62.667L32.1021 61.9614C32.0905 61.9096 32.079 61.8578 32.0817 61.7973C32.0873 61.7742 32.0701 61.7454 32.0672 61.708C32.0264 61.3796 31.98 61.0743 31.9392 60.746C31.9276 60.6942 31.9303 60.6336 31.9188 60.5818C31.8957 60.4781 31.8954 60.3802 31.8866 60.2678L31.8483 59.781C31.8392 59.5707 31.8072 59.3547 31.7895 59.13L31.7716 58.8073C31.7713 58.7094 31.7711 58.6114 31.7566 58.5222C31.7389 58.2975 31.7354 58.0641 31.732 57.8307C31.7246 57.168 31.7315 56.4967 31.7641 55.8685C31.7938 55.2029 31.8606 54.5342 31.9589 53.8857C32.0542 53.1997 32.1809 52.5338 32.3335 51.9111C32.4973 51.2422 32.684 50.579 32.9193 49.9647C33.4182 48.6208 34.0601 47.386 34.825 46.292C34.8791 46.2198 34.9331 46.1477 34.9729 46.0842L35.135 45.8677C35.1692 45.8272 35.2033 45.7868 35.2232 45.7551C35.2972 45.6511 35.3797 45.5616 35.4536 45.4577C35.7411 45.1256 35.9744 44.8657 36.225 44.6346C36.5382 44.3456 36.863 44.1085 37.1764 43.9176C37.1907 43.9089 37.2192 43.8915 37.2334 43.8828C37.6466 43.6311 38.1028 43.4513 38.5649 43.3464C39.0641 43.2385 39.5691 43.2055 40.0516 43.2647C40.5341 43.324 41.0311 43.4725 41.4683 43.7163C41.857 43.9112 42.2373 44.1897 42.5834 44.5086C42.8667 44.7874 43.1443 45.0892 43.3963 45.4458C43.8088 46.0383 44.1586 46.6885 44.4488 47.434C44.7045 48.122 44.8918 48.7928 45.0077 49.5071C45.0397 49.7231 45.0601 49.8873 45.0947 50.0428L45.1122 50.1695L45.1473 50.5209L45.1999 50.999L45.2296 51.4715C45.2269 51.532 45.2385 51.5838 45.2358 51.6444C45.236 51.7423 45.2449 51.8547 45.2537 51.967L45.2692 52.4481C45.2869 52.6728 45.2817 52.8918 45.2766 53.1108C45.2768 53.2088 45.2771 53.3067 45.2773 53.4047C45.2749 54.7012 45.1755 55.9981 44.9903 57.249C44.7938 58.5461 44.4973 59.8059 44.1121 60.9825C43.8687 61.7783 43.5567 62.5571 43.1905 63.31C43.5425 62.5657 43.8459 61.7726 44.1121 60.9825C44.4973 59.8059 44.7938 58.5461 44.9903 57.249C45.1755 55.9981 45.2749 54.7012 45.2773 53.4047C45.2771 53.3067 45.2768 53.2088 45.2766 53.1108C45.2817 52.8918 45.2783 52.6584 45.2692 52.4481L45.2537 51.967C45.2535 51.8691 45.2446 51.7567 45.2358 51.6444C45.2385 51.5838 45.2269 51.532 45.2296 51.4715L45.1999 50.999L45.1122 50.1695L45.0947 50.0428C45.0829 49.893 45.0539 49.7144 45.0077 49.5071C44.8775 48.8015 44.7045 48.122 44.4488 47.434C44.1586 46.6885 43.8373 46.0209 43.4106 45.4371C43.1585 45.0805 42.8952 44.77 42.5977 44.5C42.2515 44.181 41.8798 43.9169 41.4968 43.6989C41.0453 43.4638 40.5626 43.3066 40.0801 43.2474C39.5976 43.1881 39.1068 43.2124 38.5934 43.329C38.1313 43.4339 37.6751 43.6137 37.2619 43.8655C36.92 44.0738 36.5667 44.3283 36.225 44.6346C35.9744 44.8657 35.7268 45.1343 35.4536 45.4577C35.3797 45.5616 35.2972 45.6511 35.2232 45.7551C35.2033 45.7868 35.1692 45.8272 35.135 45.8677L34.9729 46.0842C34.9189 46.1564 34.8791 46.2198 34.8393 46.2833C34.0515 47.3716 33.4039 48.6295 32.9193 49.9647C32.684 50.579 32.4973 51.2422 32.3335 51.9111C32.1809 52.5338 32.0542 53.1997 31.9589 53.8857C31.8749 54.5255 31.8081 55.1942 31.7641 55.8685C31.7315 56.4967 31.7246 57.168 31.732 57.8307C31.7354 58.0641 31.7532 58.2888 31.7566 58.5222C31.7711 58.6114 31.7713 58.7094 31.7716 58.8073L31.7895 59.13C31.7986 59.3403 31.8448 59.5476 31.8539 59.7579L31.8922 60.2448C31.9011 60.3571 31.9156 60.4464 31.9244 60.5587C31.936 60.6106 31.9333 60.6711 31.9448 60.7229C31.977 61.0369 32.0321 61.3566 32.0728 61.6849C32.0672 61.708 32.0844 61.7367 32.0873 61.7742C32.0989 61.826 32.0962 61.8865 32.1077 61.9384L32.1483 62.1688L32.238 62.6439L32.322 63.1422C32.3335 63.194 32.3365 63.2315 32.3394 63.2689C32.3711 63.387 32.38 63.4993 32.4117 63.6173C32.4635 63.8016 32.4925 63.9802 32.5443 64.1645L32.6338 64.5417C32.6453 64.5935 32.6569 64.6453 32.6684 64.6971C32.6915 64.8008 32.7146 64.9045 32.7377 65.0082L32.8701 65.4573L33.1293 66.3786C33.1898 66.5772 33.2588 66.7903 33.3335 66.9803C33.3708 67.0752 33.4025 67.1933 33.4399 67.2883L33.5951 67.7431C33.6123 67.7719 33.6067 67.7949 33.6239 67.8237C33.6354 67.8755 33.6526 67.9043 33.6642 67.9561L33.756 68.1749C33.8479 68.3936 33.9428 68.6498 34.0347 68.8685L34.1093 69.0585L34.184 69.2485C35.3241 68.652 36.4008 67.8194 37.363 66.8603L37.3343 66.7798L37.2596 66.5898C37.2338 66.5466 37.2309 66.5092 37.2193 66.4573C37.2107 66.443 37.2078 66.4055 37.1992 66.3911L37.064 66.0025C37.0267 65.9075 36.9894 65.8126 36.9663 65.7089C36.9088 65.5477 36.8427 65.3721 36.7852 65.2109L36.7822 65.1734C36.7017 64.9086 36.6297 64.6581 36.5577 64.4076L36.4368 64.0103C36.4081 63.9297 36.3936 63.8404 36.3791 63.7512C36.3675 63.6993 36.356 63.6475 36.3444 63.5957L36.2896 63.3739C36.2435 63.1666 36.183 62.968 36.1454 62.775C36.1223 62.6714 36.0992 62.5677 36.0761 62.464C36.0732 62.4266 36.056 62.3978 36.053 62.3604L35.9607 61.9457L35.8363 61.315C35.8248 61.2632 35.8219 61.2258 35.8103 61.1739C35.816 61.1509 35.7988 61.1221 35.8044 61.099L35.671 60.258C35.6594 60.2062 35.6479 60.1544 35.6449 60.1169C35.6305 60.0277 35.616 59.9384 35.6015 59.8491L35.5604 59.4228C35.5312 59.1463 35.4933 58.8554 35.4784 58.5702C35.4781 58.4722 35.4636 58.3829 35.4548 58.2706C35.4486 58.0977 35.4339 57.9105 35.4191 57.7232C35.3876 56.565 35.4105 55.4327 35.5505 54.3662C35.6846 53.2249 35.9216 52.1583 36.2615 51.1662C36.6271 50.1194 37.0955 49.1472 37.6642 48.3102C37.6897 48.2554 37.7381 48.2063 37.7779 48.1428L37.9003 47.9897L38.1363 47.6693C38.3127 47.4441 38.4635 47.2738 38.6031 47.1495C38.7625 46.9935 38.9106 46.8836 39.0389 46.8055C39.0531 46.7968 39.0673 46.7881 39.0673 46.7881C39.1671 46.7274 39.2754 46.681 39.3924 46.649C39.5093 46.617 39.6206 46.6081 39.7262 46.6222C39.8318 46.6363 39.9232 46.6591 40.0318 46.7107C40.2718 46.8196 40.5607 47.0753 40.8042 47.4175C41.0619 47.7511 41.297 48.1769 41.4837 48.6518C41.6704 49.1267 41.8287 49.619 41.9183 50.0942C41.9414 50.1979 41.9675 50.339 41.9849 50.4657L41.9994 50.555L42.0316 50.8689L42.0527 51.327L42.0938 51.7533C42.1144 52.0155 42.1437 52.292 42.1415 52.5484L42.1388 52.6089C42.1535 52.7962 42.154 52.9921 42.1545 53.188C42.1547 53.286 42.155 53.3839 42.1609 53.4588C42.1838 54.6026 42.1325 55.7524 41.9868 56.8419C41.8441 57.9688 41.61 59.0729 41.2959 60.1081C40.979 61.2038 40.5592 62.2248 40.0706 63.1308C39.5707 64.0829 38.9765 64.9747 38.3022 65.7976C37.9949 66.1615 37.6647 66.5196 37.3402 66.8547L37.6416 67.554L37.7537 67.839L37.9775 68.3109L38.3276 69.0591C38.3993 69.2116 38.4767 69.3411 38.5484 69.4936C38.6086 69.5943 38.646 69.6893 38.7061 69.79C38.7491 69.8619 38.7779 69.9425 38.8209 70.0144C38.9012 70.1813 39.0044 70.3539 39.099 70.5121C39.185 70.656 39.2623 70.7854 39.3397 70.9149C39.5375 71.2457 39.721 71.5852 39.9473 71.8987L40.3885 72.5718C40.4887 72.7069 40.589 72.8421 40.6892 72.9773C40.7551 73.0549 40.8066 73.1412 40.8725 73.2188C41.5513 74.1592 42.3069 75.0332 42.8879 75.6799C42.9538 75.7576 43.011 75.8208 43.0825 75.8754C43.114 75.8955 43.1312 75.9242 43.1712 75.9587C43.2599 76.042 43.3343 76.134 43.423 76.2174L43.4402 76.2461C43.506 76.3237 43.5775 76.3783 43.6434 76.4559C43.7578 76.5824 43.878 76.6858 43.9925 76.8123C44.1784 76.9933 44.3787 77.1657 44.5646 77.3467C44.6047 77.3812 44.6361 77.4013 44.6619 77.4444C44.8078 77.591 44.968 77.7289 45.1282 77.8668C45.889 78.5217 46.7154 79.1563 47.5531 79.7448C48.3594 80.3132 49.2227 80.8469 50.1144 81.3632C50.9433 81.8394 51.8235 82.3039 52.7465 82.7423L53.4208 83.0575C53.638 83.1607 53.8466 83.2494 54.0637 83.3526L54.0866 83.3583C54.4037 83.4987 54.7123 83.6246 55.0208 83.7506L55.4065 83.9081C55.4522 83.9195 55.4837 83.9396 55.5151 83.9596C55.5922 83.9911 55.6465 84.017 55.7237 84.0485L55.8465 84.0913C55.915 84.1084 55.9922 84.1399 56.0465 84.1657L56.7007 84.4147C56.8321 84.472 56.9778 84.5206 57.1092 84.5779L57.3549 84.6637C57.5234 84.718 57.6919 84.7723 57.8604 84.8266L58.029 84.8809C58.2432 84.9466 58.466 85.0267 58.6802 85.0924C58.7716 85.1153 58.8488 85.1468 58.9401 85.1696L59.0087 85.1867C59.0772 85.2038 59.1458 85.2209 59.2229 85.2524C59.2686 85.2638 59.3 85.2839 59.3371 85.2809C59.7798 85.4037 60.2082 85.5351 60.6281 85.6521L60.788 85.6921L60.9479 85.732C61.0622 85.7605 61.1536 85.7833 61.2678 85.8118C61.4277 85.8518 61.5876 85.8917 61.7618 85.9229L62.1274 86.0142C62.2644 86.0484 62.4015 86.0826 62.5528 86.1082L62.8184 86.1622C62.9469 86.182 63.0611 86.2106 63.1896 86.2304C63.3952 86.2817 63.6065 86.31 63.8121 86.3613L64.1234 86.4268C64.2376 86.4553 64.3432 86.4694 64.426 86.4779C64.6601 86.5118 64.9028 86.5602 65.137 86.5942L65.6509 86.6735C65.9535 86.7246 66.2476 86.7613 66.5417 86.798C66.6473 86.8121 66.7529 86.8262 66.8585 86.8404C67.0013 86.8515 67.1298 86.8714 67.2811 86.8969L67.4467 86.9138C67.4924 86.9252 67.5295 86.9222 67.5751 86.9336C67.7265 86.9592 67.8834 86.9616 68.0348 86.9872L68.1404 87.0013C68.4944 87.0407 68.8398 87.0658 69.1852 87.0908C69.2451 87.0935 69.2908 87.1049 69.3508 87.1077L69.4707 87.1131C69.5763 87.1273 69.6591 87.1357 69.7561 87.1354C69.9359 87.1436 70.1386 87.1575 70.3184 87.1657L70.3784 87.1684C70.738 87.1847 71.0834 87.2098 71.4202 87.2205L71.8084 87.2194C72.0395 87.216 72.2564 87.2212 72.4876 87.2177C73.0413 87.2335 73.5779 87.2206 74.0915 87.202C74.2257 87.1988 74.374 87.1869 74.5168 87.198C76.7284 87.126 78.8998 86.9216 81.1479 86.5528L81.804 86.4474C81.9067 86.424 82.018 86.4151 82.1064 86.4005C82.1806 86.3945 82.2319 86.3829 82.2975 86.3625C82.3346 86.3595 82.3631 86.3422 82.4002 86.3392C82.7967 86.2546 83.1505 86.1961 83.4956 86.1232C83.5612 86.1028 83.6212 86.1056 83.6725 86.0939C83.7752 86.0706 83.8779 86.0473 83.9663 86.0326C84.069 86.0093 84.1574 85.9947 84.2373 85.9657L84.3913 85.9307L84.6337 85.8811C84.8163 85.8288 84.9789 85.8082 85.1243 85.7588C85.2128 85.7442 85.2784 85.7238 85.3668 85.7092C85.5066 85.6829 85.6377 85.6422 85.7775 85.6159C85.8802 85.5926 85.9829 85.5693 86.0912 85.5229C86.1939 85.4996 86.3109 85.4676 86.4136 85.4443C86.6189 85.3977 86.8299 85.328 87.0353 85.2814L87.349 85.1883C87.4146 85.168 87.4802 85.1477 87.5458 85.1273C87.5829 85.1243 87.6256 85.0983 87.6627 85.0953L87.831 85.0517C88.1818 84.9557 88.5382 84.8366 88.889 84.7406C89.0431 84.7057 89.2027 84.6476 89.3482 84.5983C89.3995 84.5866 89.4423 84.5606 89.4936 84.5489C89.6904 84.4879 89.9014 84.4182 90.0982 84.3572C90.2151 84.3252 90.3234 84.2788 90.4404 84.2468L90.7027 84.1655C90.8339 84.1248 90.9423 84.0784 91.0734 84.0377C91.139 84.0174 91.2189 83.9884 91.2844 83.968L91.8148 83.7823C92.0258 83.7126 92.2283 83.6285 92.4393 83.5588C92.656 83.4661 92.8812 83.3877 93.0836 83.3036C93.2433 83.2456 93.3944 83.1731 93.5541 83.1151L94.1044 82.8976C94.2127 82.8512 94.3353 82.7961 94.4436 82.7498C94.5006 82.715 94.5662 82.6947 94.646 82.6657C95.9603 82.1004 97.3001 81.4804 98.6141 80.8172C99.7486 80.2438 100.88 79.6329 101.994 78.9933C102.037 78.9672 102.094 78.9325 102.137 78.9065C102.208 78.8631 102.279 78.8197 102.351 78.7763C102.465 78.7068 102.607 78.62 102.721 78.5506C102.935 78.4204 103.134 78.2988 103.357 78.183L103.428 78.1396C103.721 77.9804 103.983 77.8011 104.24 77.6448C104.411 77.5406 104.553 77.4538 104.71 77.3583C104.91 77.2368 105.109 77.1153 105.294 77.0024C105.38 76.9504 105.465 76.8983 105.551 76.8462L105.579 76.8288C105.665 76.7768 105.75 76.7247 105.85 76.6639C106.192 76.4556 106.52 76.2559 106.813 76.0967L107.035 75.9809L107.235 75.8593C107.363 75.7812 107.5 75.7175 107.614 75.648C107.851 75.5235 108.067 75.4308 108.241 75.3641C108.603 75.2219 108.849 75.2098 108.963 75.3363C109.069 75.4484 109.044 75.6991 108.885 76.051C108.803 76.2385 108.692 76.4434 108.553 76.6656C108.487 76.7839 108.408 76.9108 108.314 77.0465L108.18 77.2457C108.14 77.3092 108.078 77.3669 108.038 77.4304L108.024 77.4391C107.808 77.7278 107.554 78.0194 107.29 78.3572L107.236 78.4294C107.173 78.4872 107.133 78.5507 107.079 78.6229C107.011 78.7037 106.928 78.7932 106.846 78.8828C106.681 79.0618 106.507 79.2265 106.342 79.4056C106.279 79.4634 106.211 79.5442 106.148 79.602C105.844 79.9053 105.548 80.223 105.206 80.5293C104.99 80.72 104.782 80.9251 104.551 81.1245L104.432 81.2171C104.355 81.2835 104.278 81.35 104.201 81.4165C104.124 81.4829 104.047 81.5494 103.97 81.6158C103.928 81.6419 103.893 81.6823 103.851 81.7084C102.842 82.5581 101.72 83.3792 100.543 84.1746C100.056 84.4323 99.6001 84.7101 99.1299 84.9965ZM35.2775 71.663C35.3205 71.7349 35.3493 71.8155 35.3837 71.8731C35.4812 72.0687 35.5787 72.2644 35.6991 72.4658C35.7851 72.6096 35.8711 72.7535 35.9342 72.8916C36.1521 73.2886 36.37 73.6857 36.6307 74.0567L37.1179 74.8391C37.2353 75.003 37.3613 75.1814 37.4645 75.354C37.5161 75.4403 37.5819 75.5179 37.6335 75.6042C38.2408 76.4901 38.9365 77.3613 39.8897 78.4681C39.9642 78.5601 40.03 78.6377 40.1101 78.7067C40.1416 78.7267 40.1674 78.7699 40.1988 78.79C40.256 78.8532 40.3047 78.9021 40.3619 78.9653L40.5078 79.1119C40.5737 79.1895 40.6538 79.2584 40.7196 79.3361C40.8427 79.4769 41.0029 79.6148 41.1402 79.747L41.1574 79.7758C41.3748 79.9769 41.5551 80.181 41.7725 80.3821C41.8126 80.4166 41.844 80.4367 41.8841 80.4711C42.0614 80.6378 42.2332 80.8275 42.4248 80.9855C43.2915 81.7525 44.2009 82.4935 45.1502 83.1711C46.0452 83.8228 46.9971 84.4398 47.9918 85.0308C48.9008 85.5758 49.8611 86.1093 50.8641 86.6167C50.9727 86.6682 51.0584 86.7141 51.167 86.7657C51.307 86.8374 51.4471 86.909 51.5785 86.9663L52.3214 87.2986C52.5528 87.3931 52.7786 87.5107 52.9957 87.6138C53.25 87.714 53.4986 87.8373 53.7529 87.9374C53.8071 87.9632 53.8386 87.9833 53.8843 87.9947C53.9614 88.0262 54.0528 88.049 54.13 88.0805L54.47 88.2266C54.6156 88.2752 54.7471 88.3325 54.9013 88.3955L55.2155 88.4984C55.4241 88.5871 55.6098 88.6702 55.824 88.7359L55.924 88.7732C56.1697 88.859 56.4068 88.9304 56.6382 89.0249C56.8153 89.0935 56.9981 89.1392 57.1752 89.2079L57.3666 89.2679C57.4579 89.2907 57.5351 89.3222 57.6351 89.3594L57.7265 89.3822C57.8036 89.4137 57.8721 89.4308 57.9635 89.4536C58.0092 89.465 58.0549 89.4764 58.0864 89.4965C58.4833 89.6079 58.8575 89.7135 59.2545 89.8248L59.4915 89.8962L59.6687 89.9649L59.8428 89.9962C59.9571 90.0247 60.0799 90.0676 60.1941 90.0961L60.8881 90.2816L61.0709 90.3272C61.2308 90.3672 61.4136 90.4128 61.5735 90.4527L62.2646 90.6007C62.4016 90.635 62.5301 90.6548 62.6672 90.689C62.7586 90.7118 62.8642 90.726 62.9556 90.7488C63.0699 90.7773 63.1755 90.7914 63.2897 90.82C63.4182 90.8398 63.5324 90.8683 63.6238 90.8911L64.1834 90.9819C64.4404 91.0215 64.706 91.0756 64.9629 91.1153C65.2884 91.1721 65.6282 91.2202 65.9451 91.2626C66.0507 91.2767 66.1563 91.2908 66.262 91.305C66.3904 91.3248 66.5103 91.3302 66.6388 91.3501C66.7216 91.3585 66.8272 91.3726 66.91 91.3811C66.9557 91.3925 66.9928 91.3895 67.0385 91.4009C67.2041 91.4178 67.3783 91.449 67.5438 91.4659C67.8293 91.4882 68.1233 91.5249 68.4088 91.5472L68.7999 91.5836C68.9055 91.5978 69.0026 91.5975 69.1082 91.6117C69.2138 91.6258 69.3195 91.6399 69.4165 91.6397C69.5135 91.6394 69.6192 91.6536 69.7248 91.6677C69.8218 91.6674 69.9275 91.6816 70.0245 91.6813L70.25 91.7009C70.5726 91.7202 70.8951 91.7396 71.2177 91.7589C71.4717 91.7611 71.7343 91.7778 71.9883 91.78L72.3851 91.7933C72.9987 91.8119 73.5952 91.8017 74.1774 91.8002C74.3115 91.797 74.4457 91.7938 74.5798 91.7906C75.8926 91.7756 77.2224 91.6915 78.5263 91.5643C79.6163 91.4693 80.6947 91.3224 81.8159 91.1495C82.067 91.1143 82.2952 91.0734 82.5234 91.0324C82.6347 91.0235 82.7516 90.9915 82.8629 90.9826C82.9371 90.9766 83.0027 90.9563 83.0769 90.9503C83.114 90.9474 83.1511 90.9444 83.1938 90.9183L83.7159 90.8161C83.9583 90.7665 84.1723 90.7343 84.3919 90.679C84.4575 90.6586 84.5174 90.6613 84.583 90.641C84.7086 90.6234 84.8112 90.6001 84.9139 90.5768L85.068 90.5418C85.1849 90.5098 85.2876 90.4865 85.3903 90.4632L86.1889 90.2709C86.2687 90.2419 86.3572 90.2273 86.4314 90.2213C86.5854 90.1864 86.7394 90.1514 86.8849 90.102C87.1187 90.038 87.3526 89.9741 87.5722 89.9188L87.6007 89.9014C87.8203 89.8461 88.0313 89.7764 88.2652 89.7124L88.616 89.6164C88.6816 89.596 88.7614 89.567 88.8413 89.538C88.8698 89.5207 88.9211 89.509 88.9582 89.506C89.2206 89.4247 89.4972 89.3346 89.7595 89.2533L90.2985 89.0819C90.481 89.0296 90.655 88.9629 90.8289 88.8961C90.8716 88.8701 90.9087 88.8671 90.9601 88.8554L91.0684 88.8091C91.2423 88.7424 91.4163 88.6757 91.5988 88.6233C91.8098 88.5536 92.0265 88.4609 92.2375 88.3912C92.3829 88.3418 92.5198 88.2781 92.6423 88.223C92.7079 88.2027 92.7792 88.1593 92.859 88.1302C93.2639 87.9621 93.6829 87.7852 94.0878 87.6171C94.3757 87.4809 94.6494 87.3534 94.923 87.226C95.0314 87.1796 95.1539 87.1245 95.2537 87.0637L95.8295 86.7914C95.955 86.7738 96.0833 86.6957 96.2058 86.6406C96.2628 86.6059 96.3341 86.5625 96.3997 86.5422C97.8277 85.8095 99.1984 85.0136 100.503 84.1401C101.689 83.3591 102.802 82.5236 103.819 81.6883C103.862 81.6622 103.896 81.6218 103.939 81.5958C104.016 81.5293 104.093 81.4628 104.169 81.3964C104.246 81.3299 104.323 81.2634 104.4 81.197L104.52 81.1045C104.736 80.9137 104.944 80.7086 105.175 80.5092C105.516 80.2029 105.835 79.8909 106.117 79.5819C106.194 79.5155 106.248 79.4433 106.311 79.3855C106.476 79.2064 106.649 79.0417 106.814 78.8627C106.897 78.7731 106.98 78.6836 107.048 78.6028C107.102 78.5306 107.15 78.4815 107.204 78.4093L107.258 78.3372C107.532 78.0138 107.79 77.699 107.992 77.419L107.998 77.396C108.052 77.3238 108.1 77.2747 108.14 77.2112L108.274 77.012C108.368 76.8764 108.447 76.7494 108.513 76.6311C108.658 76.3858 108.768 76.181 108.845 76.0165C109.004 75.6646 109.029 75.4139 108.923 75.3018C108.817 75.1897 108.572 75.2019 108.201 75.3296C108.027 75.3963 107.81 75.4891 107.574 75.6136C107.451 75.6686 107.337 75.7381 107.195 75.8249L106.995 75.9464L106.787 76.0536C106.559 76.1924 106.294 76.3343 106.024 76.4992C105.952 76.5427 105.881 76.5861 105.81 76.6295C105.724 76.6815 105.639 76.7336 105.539 76.7944L105.511 76.8117C105.425 76.8638 105.34 76.9159 105.254 76.968C105.069 77.0808 104.87 77.2024 104.67 77.3239C104.513 77.4194 104.357 77.5149 104.2 77.6104C103.943 77.7666 103.673 77.9315 103.388 78.1051L103.316 78.1486C103.103 78.2788 102.903 78.4003 102.681 78.5161C102.567 78.5855 102.439 78.6637 102.325 78.7331C102.254 78.7765 102.168 78.8286 102.097 78.872C102.054 78.898 101.997 78.9328 101.954 78.9588C100.84 79.5984 99.7085 80.2093 98.5741 80.7827C97.2601 81.4459 95.9203 82.066 94.606 82.6312C94.5404 82.6516 94.4834 82.6863 94.4036 82.7153C94.2952 82.7617 94.1726 82.8167 94.0643 82.8631L93.514 83.0806C93.3544 83.1386 93.2033 83.2111 93.0436 83.2691C92.8412 83.3532 92.6159 83.4316 92.3992 83.5243C92.1882 83.594 91.9858 83.6781 91.7748 83.7478L91.2444 83.9336C91.1788 83.9539 91.099 83.9829 91.0334 84.0033C90.9108 84.0583 90.7939 84.0903 90.6627 84.131L90.4003 84.2123C90.2834 84.2443 90.1751 84.2907 90.0581 84.3227C89.8614 84.3837 89.6503 84.4534 89.4622 84.5288C89.4108 84.5405 89.3681 84.5665 89.3167 84.5782C89.1713 84.6276 89.0116 84.6856 88.8576 84.7206C88.5068 84.8165 88.1504 84.9356 87.7996 85.0316L87.6313 85.0752C87.5942 85.0782 87.5514 85.1042 87.5143 85.1072C87.4487 85.1276 87.3832 85.1479 87.3176 85.1683L86.9953 85.2469C86.7899 85.2935 86.5931 85.3545 86.3878 85.4012C86.2851 85.4245 86.1539 85.4651 86.0512 85.4885C85.9485 85.5118 85.8544 85.5495 85.7375 85.5815C85.6063 85.6222 85.4665 85.6484 85.3267 85.6747C85.2469 85.7037 85.1727 85.7097 85.0929 85.7387C84.9389 85.7737 84.7706 85.8173 84.5937 85.8466L84.3598 85.9106L84.2058 85.9456C84.1174 85.9602 84.0233 85.9979 83.9349 86.0126C83.8322 86.0359 83.7437 86.0505 83.641 86.0738C83.5897 86.0855 83.5241 86.1058 83.4642 86.1031C83.1333 86.1673 82.7739 86.2489 82.3688 86.3191C82.3317 86.3221 82.3032 86.3395 82.2661 86.3425C82.2005 86.3628 82.1406 86.3601 82.075 86.3804C81.9723 86.4037 81.8752 86.4039 81.7726 86.4273L81.1194 86.5702C78.8571 86.9477 76.6857 87.1521 74.4883 87.2154C74.3541 87.2186 74.2058 87.2305 74.0716 87.2337C73.5494 87.238 73.0214 87.2653 72.4677 87.2494C72.2508 87.2442 72.0196 87.2477 71.7885 87.2512L71.4003 87.2522C71.0635 87.2415 70.7181 87.2165 70.3585 87.2001L70.2985 87.1974C70.1187 87.1892 69.916 87.1754 69.7362 87.1672C69.6534 87.1587 69.5564 87.159 69.4508 87.1449L69.3309 87.1394C69.2709 87.1367 69.2252 87.1253 69.1653 87.1225C68.8199 87.0975 68.4659 87.0581 68.1205 87.033L68.0149 87.0189C67.8579 87.0164 67.7066 86.9909 67.5552 86.9654C67.5181 86.9683 67.4725 86.9569 67.4268 86.9455L67.2612 86.9287C67.1185 86.9175 66.99 86.8977 66.8386 86.8721C66.733 86.858 66.6274 86.8439 66.5217 86.8297C66.2277 86.793 65.9336 86.7563 65.631 86.7053L65.1171 86.6259C64.8829 86.5919 64.6488 86.558 64.4061 86.5096C64.3233 86.5012 64.2177 86.4871 64.0949 86.4442L63.7836 86.3787C63.5866 86.3418 63.3667 86.2991 63.1611 86.2478C63.0469 86.2192 62.9184 86.1994 62.7899 86.1796L62.5472 86.1312C62.4101 86.097 62.273 86.0628 62.1217 86.0372L61.7648 85.9604C61.6048 85.9205 61.4449 85.8805 61.2707 85.8493C61.1565 85.8208 61.0651 85.798 60.9509 85.7694L60.7824 85.7151L60.6224 85.6752C60.2026 85.5581 59.7599 85.4354 59.3315 85.304C59.2858 85.2926 59.2543 85.2725 59.2172 85.2755C59.1487 85.2584 59.0802 85.2412 59.003 85.2097L58.9345 85.1926C58.8431 85.1698 58.766 85.1383 58.6746 85.1155C58.4604 85.0498 58.2375 84.9697 58.0233 84.904L57.8548 84.8497C57.6863 84.7954 57.5178 84.7411 57.3492 84.6868L57.1036 84.6009C56.9721 84.5437 56.8265 84.4951 56.695 84.4378L56.0408 84.1888C55.9723 84.1717 55.8952 84.1402 55.8409 84.1144L55.7237 84.0485C55.6465 84.017 55.5637 84.0085 55.5009 83.9683C55.4694 83.9482 55.4237 83.9369 55.378 83.9254L54.9923 83.768C54.6838 83.642 54.3666 83.5016 54.0581 83.3757L54.0352 83.37C53.8267 83.2812 53.6095 83.178 53.3923 83.0749L52.7266 82.774C51.8179 82.3269 50.9234 81.8711 50.0945 81.395C49.2028 80.8786 48.3395 80.345 47.5333 79.7766C46.6955 79.1881 45.8691 78.5535 45.1083 77.8985C44.9481 77.7606 44.7879 77.6227 44.642 77.4762C44.602 77.4417 44.5705 77.4216 44.5447 77.3785C44.3588 77.1974 44.1585 77.0251 43.9726 76.844C43.8438 76.7262 43.7379 76.6141 43.6235 76.4876C43.5576 76.41 43.4862 76.3555 43.4203 76.2779L43.4031 76.2491C43.3144 76.1658 43.24 76.0738 43.1513 75.9904C43.1341 75.9617 43.1027 75.9416 43.0712 75.9215C43.014 75.8582 42.9339 75.7893 42.868 75.7117C42.287 75.0649 41.5314 74.191 40.8526 73.2505C40.7867 73.1729 40.7352 73.0866 40.6693 73.009C40.5691 72.8738 40.4688 72.7387 40.3686 72.6035L39.9274 71.9305C39.7154 71.6083 39.5176 71.2775 39.3198 70.9467C39.2425 70.8172 39.1565 70.6734 39.0791 70.5439C38.9845 70.3857 38.8813 70.2131 38.801 70.0462C38.758 69.9742 38.7293 69.8937 38.6863 69.8217C38.6261 69.721 38.5887 69.6261 38.5285 69.5254C38.2409 69.7595 37.9532 69.9936 37.6569 70.2133C36.9305 70.754 36.1184 71.2488 35.2775 71.663ZM35.2775 71.663C35.7023 71.4631 36.1155 71.2114 36.5144 70.9683C37.2268 70.5343 37.9048 70.0427 38.5484 69.4936C38.4767 69.3411 38.3993 69.2116 38.3276 69.0591L37.9775 68.3109L37.7537 67.839L37.6416 67.554L37.363 66.8603C36.5745 67.6547 35.7172 68.334 34.8195 68.8809C34.6058 69.0111 34.3921 69.1413 34.1698 69.2572L34.2243 69.3809L34.2703 69.4903L34.4683 69.9191C34.5687 70.1522 34.6692 70.3853 34.7754 70.5954L34.8557 70.7623L35.2517 71.6198C35.2603 71.6342 35.2775 71.663 35.2775 71.663ZM3.89775 41.3125C3.86925 41.3299 3.82971 41.4913 3.8361 41.7621C3.8393 41.8975 3.8398 42.0935 3.8403 42.2894L3.85185 42.3412C3.85235 42.5372 3.87003 42.7618 3.89068 43.024C3.91992 43.3005 3.9435 43.6001 3.99289 43.9428C4.00763 44.1301 4.03664 44.3086 4.05703 44.4728L4.08603 44.6514C4.10347 44.7781 4.12951 44.9192 4.14696 45.0459C4.1671 45.1122 4.1644 45.1727 4.1703 45.2476C4.18774 45.3743 4.21379 45.5154 4.23984 45.6565L4.38995 46.3303C4.4101 46.3966 4.416 46.4715 4.4305 46.5607C4.45654 46.7019 4.48554 46.8804 4.52018 47.0359L4.59806 47.3613C4.6241 47.5024 4.66439 47.6348 4.69044 47.7759C4.90394 48.6859 5.20343 49.7396 5.62355 51.0927C5.69258 51.3058 5.78446 51.5245 5.8535 51.7375L5.94834 51.9937C5.99723 52.1405 6.04612 52.2873 6.10926 52.4255L6.12645 52.4542L6.31317 52.9292C6.35911 53.0385 6.40505 53.1479 6.45099 53.2573C6.53428 53.4616 6.61192 53.689 6.6952 53.8934C6.83303 54.2215 6.97085 54.5496 7.11727 54.8921C7.7602 56.3253 8.47438 57.7151 9.2426 59.0327L9.88748 60.1115C10.0337 60.356 10.1941 60.5919 10.3545 60.8277C10.4233 60.9428 10.5149 61.0635 10.5837 61.1786C10.6697 61.3225 10.7699 61.4576 10.8702 61.5928C10.896 61.6359 10.9218 61.6791 10.9618 61.7136L11.0048 61.7855C11.1136 61.935 11.2311 62.099 11.3256 62.2572C11.3858 62.3579 11.4517 62.4355 11.5119 62.5362C11.5691 62.5994 11.6121 62.6713 11.6693 62.7346L11.7123 62.8065C11.7381 62.8496 11.7782 62.8841 11.804 62.9273C11.9042 63.0624 12.013 63.212 12.1361 63.3528C13.3072 64.8567 14.6122 66.2594 16.0395 67.509C16.8175 68.1927 17.6211 68.8216 18.4274 69.39C19.2966 69.9986 20.2141 70.5581 21.1172 71.0283C22.106 71.5443 23.1402 71.9739 24.1285 72.294C24.6798 72.4683 25.2224 72.6283 25.7536 72.7364C26.3304 72.8559 26.8986 72.961 27.4553 73.0144C29.8875 73.2789 32.324 72.9326 34.485 72.0281C34.753 71.9237 35.0267 71.7962 35.2775 71.663C35.2689 71.6486 35.2603 71.6342 35.2517 71.6198L34.8358 70.794L34.7555 70.6271C34.655 70.394 34.5545 70.1609 34.4484 69.9508L34.2044 69.4126L34.1499 69.2889C33.9133 69.4134 33.691 69.5292 33.4458 69.6393C33.2434 69.7234 33.041 69.8075 32.8243 69.9003L32.7445 69.9293C32.6504 69.967 32.5477 69.9903 32.4536 70.028C32.3082 70.0774 32.177 70.118 32.0316 70.1674C31.966 70.1877 31.9004 70.2081 31.8262 70.214L31.6921 70.2172C31.6778 70.2259 31.6692 70.2115 31.6407 70.2289C31.538 70.2522 31.4297 70.2986 31.3184 70.3075C31.2442 70.3135 31.1644 70.3425 31.0902 70.3484C30.9362 70.3834 30.7593 70.4127 30.5824 70.442C29.6239 70.5943 28.6422 70.6429 27.6431 70.5648C25.8333 70.4312 23.954 69.8886 22.0538 68.986C21.2166 68.5934 20.3877 68.1172 19.5616 67.5806C18.7983 67.0841 18.0377 66.5271 17.3027 65.9153C15.9299 64.7894 14.6509 63.5278 13.5059 62.1651C12.9534 61.501 12.4294 60.8195 11.9454 60.1724C11.8537 60.0517 11.7678 59.9078 11.6761 59.7871C11.5329 59.58 11.3897 59.3729 11.2322 59.1745L10.5704 58.1649C9.77955 56.9395 9.03418 55.6276 8.3372 54.2666C8.18513 53.9472 8.01881 53.6364 7.87533 53.3314C7.7778 53.1357 7.69452 52.9314 7.60558 52.7501C7.55964 52.6407 7.50511 52.517 7.44492 52.4163L7.23829 51.9731L7.2125 51.9299C7.14936 51.7918 7.09482 51.668 7.04593 51.5212C6.92531 51.2219 6.79903 50.9456 6.687 50.6607C6.17279 49.3453 5.8335 48.355 5.54876 47.4885L5.32151 46.7832C5.27262 46.6364 5.23233 46.5039 5.20629 46.3628C5.17754 46.2822 5.16305 46.1929 5.1343 46.1123C5.09401 45.9799 5.05372 45.8475 5.01343 45.715L4.95004 45.4789C4.90975 45.3465 4.87804 45.2284 4.8606 45.1017C4.84045 45.0355 4.82595 44.9462 4.80581 44.88C4.75397 44.6957 4.71638 44.5028 4.66454 44.3185C4.6127 44.1343 4.56946 43.9644 4.53482 43.8089C4.45693 43.4835 4.39624 43.1869 4.31566 42.922C4.27242 42.7521 4.22918 42.5823 4.20314 42.4412C4.18864 42.3519 4.1685 42.2857 4.14836 42.2195C4.10217 42.0121 4.05892 41.8422 4.01863 41.7098C3.98374 41.4563 3.94909 41.3008 3.89775 41.3125ZM39.0389 46.8055C39.0246 46.8142 39.019 46.8372 39.019 46.8372C38.8907 46.9154 38.7512 47.0396 38.5832 47.1812C38.4436 47.3055 38.2928 47.4759 38.1164 47.7011L37.8803 48.0215L37.758 48.1745C37.7096 48.2236 37.6841 48.2784 37.6443 48.3419C37.0756 49.179 36.5986 50.1367 36.2416 51.198C35.9017 52.19 35.659 53.2797 35.5306 54.398C35.4048 55.4557 35.3677 56.5968 35.3992 57.755C35.414 57.9422 35.4201 58.1151 35.4349 58.3023C35.4351 58.4003 35.4496 58.4896 35.4499 58.5875C35.4791 58.864 35.5169 59.1549 35.5319 59.4401L35.573 59.8665C35.5875 59.9558 35.602 60.045 35.6165 60.1343C35.628 60.1861 35.6395 60.238 35.6425 60.2754L35.7759 61.1164C35.7703 61.1395 35.7875 61.1682 35.7818 61.1913C35.7848 61.2287 35.7963 61.2806 35.7993 61.318L35.8398 61.5484L35.9322 61.9631L36.0103 62.3864C36.0132 62.4238 36.0305 62.4526 36.0334 62.4901C36.0565 62.5937 36.0796 62.6974 36.1027 62.8011C36.1489 63.0084 36.2093 63.207 36.2469 63.4L36.2931 63.6073C36.3046 63.6592 36.3162 63.711 36.3277 63.7628C36.3422 63.8521 36.371 63.9327 36.3855 64.022L36.5064 64.4193C36.5783 64.6698 36.6589 64.9346 36.7309 65.1851L36.7339 65.2226C36.7914 65.3838 36.8574 65.5593 36.9149 65.7205C36.9523 65.8155 36.9896 65.9105 37.0127 66.0142L37.1849 66.3998C37.2021 66.4286 37.2107 66.443 37.2193 66.4573C37.2309 66.5092 37.2338 66.5466 37.2454 66.5985L37.3574 66.8834C37.6819 66.5483 38.0121 66.1902 38.3194 65.8264C38.9937 65.0035 39.5879 64.1117 40.0878 63.1596C40.5678 62.2392 40.9876 61.2182 41.3131 60.1369C41.6272 59.1017 41.8613 57.9976 42.004 56.8706C42.1411 55.7668 42.201 54.6314 42.1781 53.4876C42.1778 53.3897 42.1776 53.2917 42.1717 53.2168C42.1712 53.0209 42.1564 52.8336 42.1559 52.6377L42.1586 52.5772C42.138 52.315 42.1316 52.0442 42.111 51.7821L42.0699 51.3558L41.9881 50.6011L41.9736 50.5118C41.9562 50.3851 41.9387 50.2584 41.907 50.1403C41.8087 49.6508 41.6734 49.1642 41.4724 48.6979C41.2857 48.223 41.0506 47.7972 40.7929 47.4636C40.558 47.1358 40.2605 46.8657 40.0205 46.7569C39.9119 46.7053 39.8205 46.6825 39.7149 46.6683C39.6007 46.6398 39.4894 46.6488 39.3725 46.6807C39.2555 46.7127 39.1528 46.7361 39.0389 46.8055Z" fill="white"/>
</svg>
