<svg width="184" height="30" viewBox="0 0 184 30" fill="none" xmlns="http://www.w3.org/2000/svg">
<path d="M170.348 19.4251C170.178 19.3686 170.093 19.1707 170.093 18.8313C170.093 18.624 170.122 18.3884 170.178 18.1245C170.253 17.8606 170.357 17.5495 170.489 17.1914V17.2762C170.527 17.2762 170.565 17.2102 170.602 17.0783C170.64 16.9463 170.649 16.8709 170.63 16.8521C170.649 16.739 170.725 16.6164 170.857 16.4845C171.007 16.3337 171.073 16.2489 171.055 16.23V16.2017C171.092 16.1263 171.092 16.0792 171.055 16.0604C171.017 16.0415 171.026 15.9661 171.083 15.8342C171.29 15.4006 171.479 15.0047 171.648 14.6466C171.818 14.2696 171.988 13.9303 172.157 13.6287C172.157 13.6287 172.176 13.5627 172.214 13.4308C172.252 13.2988 172.299 13.1763 172.355 13.0632V13.1197C172.374 13.0443 172.421 12.9783 172.497 12.9218C172.572 12.8464 172.619 12.7993 172.638 12.7804C172.732 12.6108 172.779 12.4882 172.779 12.4128C172.779 12.3751 172.77 12.3563 172.751 12.3563C172.732 12.3563 172.723 12.3469 172.723 12.328C172.723 12.3092 172.742 12.2715 172.779 12.2149C172.817 12.1395 172.893 12.0264 173.006 11.8756H172.977C173.053 11.7814 173.166 11.6117 173.317 11.3667C173.486 11.1216 173.647 10.8765 173.797 10.6315C173.967 10.3864 174.071 10.2262 174.108 10.1508C174.259 9.83036 174.495 9.59473 174.815 9.44393C175.155 9.27428 175.484 9.18945 175.805 9.18945C176.106 9.18945 176.361 9.26485 176.568 9.41566C176.795 9.54761 176.908 9.77381 176.908 10.0943C176.908 10.3959 176.832 10.6032 176.681 10.7163C176.549 10.8294 176.361 10.9519 176.116 11.0839C175.89 11.197 175.635 11.4044 175.352 11.706C174.806 12.2903 174.438 12.771 174.25 13.148C174.061 13.5062 173.948 13.8832 173.91 14.279C173.986 14.1848 174.071 14.0999 174.165 14.0245C174.561 13.6287 175.004 13.2705 175.494 12.9501C176.003 12.6108 176.644 12.2055 177.417 11.7342H177.473C177.492 11.7342 177.614 11.6494 177.841 11.4798C178.086 11.3101 178.331 11.1405 178.576 10.9708C178.84 10.7823 179 10.688 179.057 10.688C179.057 10.688 179.17 10.6315 179.396 10.5184C179.622 10.4053 179.858 10.311 180.103 10.2356C180.932 9.95289 181.648 9.81151 182.252 9.81151C182.685 9.81151 183.006 9.88691 183.213 10.0377C183.383 10.1508 183.467 10.377 183.467 10.7163C183.467 10.9614 183.411 11.2441 183.298 11.5646V11.508C183.279 11.508 183.241 11.5834 183.185 11.7342C183.128 11.8662 183.072 11.9793 183.015 12.0735C182.977 12.1301 182.911 12.2338 182.817 12.3846C182.723 12.5354 182.666 12.6296 182.648 12.6673V12.639C182.534 12.8464 182.431 13.0066 182.336 13.1197C182.242 13.214 182.129 13.3459 181.997 13.5156C181.809 13.7418 181.554 14.0905 181.234 14.5618C180.913 15.0142 180.602 15.5043 180.301 16.0321C180.018 16.541 179.829 17.0029 179.735 17.4176C179.716 17.5307 179.679 17.6626 179.622 17.8134C179.584 17.9454 179.575 18.0585 179.594 18.1527V18.181C179.594 18.2187 179.631 18.2753 179.707 18.3507C179.782 18.4072 179.829 18.4543 179.848 18.492C179.924 18.5674 179.961 18.6523 179.961 18.7465C179.961 18.8596 179.895 18.9633 179.763 19.0575C179.65 19.1329 179.434 19.1518 179.113 19.1141C178.906 19.1141 178.764 19.0575 178.689 18.9444C178.632 18.8313 178.566 18.7088 178.491 18.5769V18.5486C178.491 18.5109 178.482 18.4732 178.463 18.4355C178.463 18.3978 178.463 18.3412 178.463 18.2658C178.482 18.2281 178.453 18.2093 178.378 18.2093C178.321 18.1904 178.255 18.115 178.18 17.9831C178.18 17.9831 178.171 17.8888 178.152 17.7003C178.133 17.5118 178.123 17.3799 178.123 17.3045C178.123 17.116 178.189 16.8898 178.321 16.6259C178.453 16.3431 178.557 16.0981 178.632 15.8907C178.727 15.6834 178.925 15.3818 179.226 14.9859C179.528 14.59 179.839 14.1848 180.159 13.7701C180.499 13.3365 180.753 12.9783 180.923 12.6956C181.111 12.3751 181.205 12.0924 181.205 11.8473C181.205 11.6211 181.139 11.4609 181.008 11.3667C180.876 11.2536 180.725 11.197 180.555 11.197C180.461 11.197 180.32 11.2064 180.131 11.2253C179.961 11.2441 179.792 11.2913 179.622 11.3667C179.547 11.3855 179.415 11.4609 179.226 11.5929C179.057 11.7248 178.887 11.8473 178.717 11.9604C178.548 12.0735 178.434 12.1301 178.378 12.1301C178.246 12.2243 178.123 12.3186 178.01 12.4128C177.897 12.4882 177.746 12.5825 177.558 12.6956L176.681 13.2611C175.739 13.8643 174.844 14.5618 173.995 15.3535C173.166 16.1452 172.45 16.9557 171.846 17.7852C171.771 17.8794 171.714 18.0114 171.677 18.181C171.639 18.3507 171.592 18.492 171.535 18.6051C171.46 18.7371 171.385 18.8313 171.309 18.8879C171.234 18.9256 171.177 18.9633 171.139 19.001C170.989 19.1895 170.838 19.312 170.687 19.3686C170.555 19.4063 170.442 19.4251 170.348 19.4251Z" fill="#161A2D"/>
<path d="M162.378 19.3958C162.076 19.3958 161.84 19.3486 161.671 19.2544C161.501 19.1413 161.341 19.0282 161.19 18.9151C160.851 18.6323 160.681 18.114 160.681 17.3599C160.681 16.8133 160.785 16.1912 160.992 15.4938C161.2 14.7775 161.539 14.0329 162.01 13.26V13.2883C162.217 12.9113 162.425 12.5343 162.632 12.1573C162.858 11.7803 163.094 11.4127 163.339 11.0545C163.414 10.9791 163.49 10.932 163.565 10.9132C163.641 10.8755 163.697 10.8378 163.735 10.8001C163.735 10.7247 163.754 10.621 163.791 10.489C163.848 10.3382 163.914 10.2346 163.989 10.178C164.329 9.7256 164.715 9.3863 165.149 9.1601C165.582 8.9339 165.922 8.74539 166.167 8.59459H166.138C166.251 8.53804 166.383 8.50977 166.534 8.50977C166.911 8.50977 167.354 8.65114 167.863 8.9339C167.938 8.9339 168.014 8.92447 168.089 8.90562C168.184 8.86792 168.278 8.84907 168.372 8.84907C168.561 8.84907 168.749 8.91505 168.938 9.047C169.145 9.17895 169.23 9.3863 169.192 9.66905C169.173 9.72561 169.164 9.77273 169.164 9.81043C169.164 9.84813 169.164 9.88583 169.164 9.92353C169.164 10.1309 169.239 10.2346 169.39 10.2346C169.465 10.2346 169.541 10.2251 169.616 10.2063C169.692 10.1874 169.767 10.178 169.842 10.178C170.05 10.178 170.342 10.1497 170.719 10.0932C171.096 10.0178 171.454 9.95181 171.793 9.89526C172.152 9.81986 172.397 9.78216 172.529 9.78216C172.604 9.83871 172.642 9.90468 172.642 9.98008C172.642 10.0555 172.604 10.1403 172.529 10.2346C172.472 10.3288 172.406 10.3948 172.331 10.4325C172.331 10.4325 172.208 10.4702 171.963 10.5456C171.737 10.6021 171.454 10.6775 171.115 10.7718C170.775 10.866 170.436 10.9603 170.097 11.0545C169.776 11.1299 169.522 11.1771 169.333 11.1959L169.051 11.2242C169.032 11.4504 168.975 11.6955 168.881 11.9594C168.787 12.2233 168.683 12.5154 168.57 12.8359C168.532 12.9301 168.504 13.0527 168.485 13.2035C168.466 13.3354 168.429 13.4768 168.372 13.6276C168.24 13.8538 168.089 14.08 167.92 14.3062C167.75 14.5324 167.59 14.768 167.439 15.0131C167.326 15.2016 167.203 15.4089 167.071 15.6352C166.958 15.8425 166.817 16.0593 166.647 16.2855C166.27 16.7756 165.827 17.2657 165.318 17.7558C164.828 18.2271 164.319 18.6229 163.791 18.9434C163.282 19.245 162.811 19.3958 162.378 19.3958ZM162.632 18.4627C163.009 18.4627 163.528 18.1988 164.187 17.671C164.866 17.1243 165.497 16.4269 166.082 15.5786H166.053C166.204 15.3524 166.355 15.0885 166.506 14.7869C166.676 14.4853 166.807 14.2308 166.902 14.0235C166.902 14.0235 166.949 13.9669 167.043 13.8538C167.156 13.7407 167.269 13.6182 167.382 13.4862C167.496 13.3354 167.561 13.2223 167.58 13.1469C167.599 13.1092 167.609 13.0621 167.609 13.0055C167.609 12.9678 167.599 12.9396 167.58 12.9207C167.58 12.883 167.58 12.8265 167.58 12.7511V12.7228C167.693 12.44 167.788 12.1856 167.863 11.9594C167.938 11.7332 167.986 11.5352 168.004 11.3656C167.873 11.3656 167.665 11.3562 167.382 11.3373C167.1 11.3184 166.864 11.2996 166.676 11.2807C166.506 11.2619 166.506 11.2525 166.676 11.2525H166.76C166.76 11.2336 166.676 11.1959 166.506 11.1394C166.336 11.0828 166.204 11.0357 166.11 10.998C166.053 11.0168 165.997 11.0263 165.94 11.0263C165.846 11.0263 165.771 11.0074 165.714 10.9697C165.676 10.932 165.629 10.9414 165.573 10.998C165.497 11.0734 165.45 11.1676 165.431 11.2807C165.413 11.3939 165.337 11.5164 165.205 11.6483L165.177 11.6766C165.177 11.6578 165.13 11.6766 165.036 11.7332C164.941 11.7897 164.904 11.818 164.922 11.818L164.894 11.8745C164.856 11.8934 164.828 11.9499 164.809 12.0442C164.809 12.1196 164.781 12.2044 164.725 12.2987C164.536 12.6003 164.329 12.9207 164.102 13.26C163.895 13.5805 163.697 13.8915 163.509 14.1931V14.1648C163.32 14.5041 163.132 14.8717 162.943 15.2676C162.755 15.6634 162.613 16.0499 162.519 16.4269C162.519 16.5211 162.5 16.6154 162.462 16.7096C162.444 16.785 162.434 16.851 162.434 16.9075V16.9358C162.434 17.1432 162.397 17.3222 162.321 17.473C162.246 17.6239 162.208 17.7747 162.208 17.9255C162.265 18.0574 162.283 18.1611 162.265 18.2365C162.246 18.293 162.274 18.3402 162.349 18.3779C162.444 18.4344 162.538 18.4627 162.632 18.4627Z" fill="#161A2D"/>
<path d="M150.581 21.0374C150.279 21.0374 150.024 21.0186 149.817 20.9809C149.61 20.9432 149.516 20.8583 149.534 20.7264C149.497 20.7264 149.44 20.6887 149.365 20.6133L149.336 20.5567C149.336 20.4059 149.384 20.2834 149.478 20.1892L149.506 20.1609C149.525 20.142 149.553 20.1326 149.591 20.1326C149.723 20.1326 149.874 20.1515 150.043 20.1892C150.213 20.2269 150.335 20.2363 150.411 20.2174C151.221 19.9724 151.957 19.6614 152.616 19.2844C153.295 18.9074 153.87 18.5115 154.341 18.0968C154.53 17.946 154.699 17.7858 154.85 17.6161C155.02 17.4465 155.171 17.2862 155.303 17.1354C155.34 17.0789 155.397 17.0412 155.472 17.0223C155.566 16.9846 155.623 16.9564 155.642 16.9375L155.67 16.9092C155.67 16.8715 155.661 16.8433 155.642 16.8244C155.642 16.7867 155.661 16.7301 155.698 16.6547C156.075 16.1269 156.264 15.7217 156.264 15.4389C156.264 15.2693 156.217 15.1656 156.123 15.1279C155.915 14.9394 155.623 14.7886 155.246 14.6755C154.888 14.5624 154.53 14.4681 154.172 14.3927C153.813 14.2985 153.54 14.2136 153.352 14.1382C153.012 13.9874 152.843 13.733 152.843 13.3748C152.843 13.0167 152.984 12.6114 153.267 12.159C153.568 11.6877 153.983 11.2165 154.511 10.7452C155.359 10.0289 156.254 9.45396 157.197 9.0204C158.139 8.568 158.969 8.3418 159.685 8.3418C160.062 8.3418 160.392 8.4172 160.675 8.568C160.958 8.7188 161.156 8.96385 161.269 9.30316C161.325 9.47281 161.353 9.63304 161.353 9.78384C161.353 10.0289 161.287 10.2457 161.156 10.4342C161.042 10.6038 160.901 10.6887 160.731 10.6887C160.694 10.6887 160.618 10.6981 160.505 10.7169C160.411 10.7358 160.326 10.7358 160.251 10.7169C160.175 10.6792 160.1 10.6133 160.025 10.519C159.949 10.4247 159.893 10.3776 159.855 10.3776H159.827C159.751 10.3399 159.695 10.3022 159.657 10.2645C159.638 10.2268 159.582 10.208 159.487 10.208H159.374L158.809 10.1797C158.526 10.1797 158.205 10.2362 157.847 10.3493C157.489 10.4624 157.065 10.6792 156.575 10.9997V10.9714C156.405 11.1034 156.226 11.273 156.038 11.4804C155.849 11.6689 155.67 11.8668 155.5 12.0741C155.387 12.1872 155.255 12.3003 155.105 12.4134C154.973 12.5265 154.888 12.6302 154.85 12.7245C154.775 12.8753 154.737 13.0072 154.737 13.1203C154.737 13.2334 154.784 13.3277 154.878 13.4031C155.18 13.535 155.595 13.6858 156.123 13.8555C156.65 14.0063 157.197 14.2702 157.762 14.6472C157.876 14.7226 157.989 14.8451 158.102 15.0148C158.234 15.1656 158.3 15.3635 158.3 15.6086C158.3 15.7971 158.262 15.9761 158.187 16.1458C158.13 16.24 158.045 16.3531 157.932 16.4851C157.819 16.5982 157.744 16.7019 157.706 16.7961L157.678 16.8244C157.338 17.1637 156.905 17.6067 156.377 18.1533C155.849 18.6811 155.105 19.2372 154.143 19.8216C153.408 20.274 152.72 20.585 152.079 20.7547C151.438 20.9432 150.939 21.0374 150.581 21.0374Z" fill="#161A2D"/>
<path d="M144.334 19.6538C144.126 19.6538 143.985 19.6161 143.91 19.5407C143.853 19.4842 143.806 19.437 143.768 19.3993C143.749 19.3616 143.712 19.3239 143.655 19.2862C143.58 19.2297 143.485 19.1637 143.372 19.0883C143.259 18.9941 143.203 18.7961 143.203 18.4945C143.203 18.2306 143.259 17.8536 143.372 17.3635C143.504 16.8546 143.749 16.176 144.107 15.3277H144.136C144.4 14.9318 144.616 14.5266 144.786 14.1119C144.975 13.6783 145.163 13.2919 145.352 12.9526V13.0091C145.352 12.9714 145.455 12.7923 145.663 12.4719C145.87 12.1326 146.115 11.7273 146.398 11.256C146.699 10.7848 147.001 10.3135 147.303 9.84227C147.604 9.37102 147.859 8.96574 148.066 8.62643C148.292 8.28713 148.415 8.09863 148.434 8.06093V8.0892C148.471 8.03265 148.547 7.91012 148.66 7.72162C148.792 7.51427 148.867 7.40117 148.886 7.38232H148.858C149.046 7.08071 149.169 6.85451 149.225 6.70371C149.301 6.53406 149.376 6.37383 149.451 6.22303C149.546 6.05338 149.706 5.82717 149.932 5.54442L150.922 4.27203C151.016 4.17778 151.129 4.01755 151.261 3.79135C151.412 3.5463 151.563 3.38607 151.714 3.31067C151.977 3.17872 152.298 3.05619 152.675 2.94309C153.071 2.82999 153.419 2.77344 153.721 2.77344C153.928 2.77344 154.098 2.81114 154.23 2.88654C154.381 2.94309 154.466 3.06562 154.485 3.25412C154.466 3.53687 154.362 3.86675 154.173 4.24376C153.985 4.60191 153.702 4.96006 153.325 5.31822C153.137 5.50672 152.892 5.70465 152.59 5.912C152.288 6.11935 152.062 6.32671 151.911 6.53406H151.94C151.732 6.83566 151.459 7.11842 151.12 7.38232C150.799 7.64622 150.554 7.88185 150.385 8.0892C150.253 8.2777 150.083 8.43793 149.876 8.56988C149.668 8.68298 149.508 8.81494 149.395 8.96574C148.547 10.1156 147.887 11.0958 147.416 11.9064C146.944 12.6981 146.652 13.1976 146.539 13.405C146.464 13.5369 146.36 13.7443 146.228 14.027C146.115 14.2909 146.002 14.5643 145.889 14.847C145.776 15.1109 145.691 15.3088 145.634 15.4408C145.54 15.7424 145.446 15.9497 145.352 16.0628C145.257 16.1571 145.182 16.3079 145.125 16.5153C145.107 16.5907 145.069 16.7415 145.012 16.9677C144.975 17.1939 144.946 17.4012 144.927 17.5897C144.909 17.7594 144.909 17.8253 144.927 17.7876L145.465 17.4483L146.539 16.9111L146.567 16.8828C146.775 16.7886 146.926 16.7415 147.02 16.7415C147.114 16.7415 147.237 16.7226 147.387 16.6849C147.538 16.6472 147.774 16.5247 148.094 16.3173C148.113 16.3173 148.207 16.2702 148.377 16.176C148.547 16.0817 148.716 15.9874 148.886 15.8932C149.074 15.7801 149.178 15.7235 149.197 15.7235C149.404 15.6104 149.517 15.5539 149.536 15.5539C149.574 15.5539 149.631 15.535 149.706 15.4973C149.781 15.4408 149.979 15.3088 150.3 15.1015C150.639 14.8753 150.903 14.7622 151.091 14.7622C151.223 14.7622 151.289 14.8093 151.289 14.9036C151.289 14.979 151.223 15.0921 151.091 15.2429C150.978 15.3937 150.771 15.5727 150.469 15.7801C149.942 16.1383 149.404 16.4776 148.858 16.798C148.33 17.0996 147.793 17.4106 147.246 17.7311C146.944 17.9007 146.737 18.0138 146.624 18.0704C146.511 18.1081 146.435 18.1269 146.398 18.1269C146.379 18.1269 146.341 18.1458 146.285 18.1835C146.228 18.2212 146.106 18.3343 145.917 18.5228L145.889 18.5511C145.851 18.5511 145.757 18.6171 145.606 18.749C145.455 18.881 145.361 18.9658 145.323 19.0035C145.248 19.0789 145.172 19.1731 145.097 19.2862C145.041 19.3993 144.956 19.4842 144.843 19.5407C144.711 19.6161 144.541 19.6538 144.334 19.6538Z" fill="#161A2D"/>
<path d="M145.176 7.37979C145.006 7.37979 144.893 7.32324 144.836 7.21014C144.799 7.07818 144.77 6.95566 144.751 6.84256C144.733 6.74831 144.714 6.64463 144.695 6.53153C144.676 6.41843 144.667 6.30532 144.667 6.19222C144.667 6.04142 144.685 5.90947 144.723 5.79637C144.78 5.66442 144.874 5.56074 145.006 5.48534C145.439 5.25914 145.807 5.09891 146.109 5.00466C146.41 4.91041 146.655 4.86328 146.844 4.86328C147.127 4.86328 147.315 4.94811 147.409 5.11776C147.504 5.28741 147.551 5.50419 147.551 5.76809C147.551 5.84349 147.551 5.9189 147.551 5.9943C147.551 6.05085 147.541 6.12625 147.522 6.2205C147.466 6.46555 147.277 6.6352 146.957 6.72945C146.655 6.82371 146.401 6.91796 146.193 7.01221C146.062 7.08761 145.901 7.17244 145.713 7.26669C145.543 7.34209 145.383 7.37979 145.232 7.37979H145.176ZM139.012 19.5665C138.936 19.5665 138.87 19.5099 138.814 19.3968C138.776 19.246 138.729 19.1141 138.672 19.001C138.616 18.8879 138.587 18.7182 138.587 18.492C138.587 18.2281 138.644 17.8417 138.757 17.3327C138.87 16.8238 139.087 16.0603 139.407 15.0424C139.652 14.2695 139.879 13.6475 140.086 13.1762C140.293 12.705 140.51 12.2526 140.736 11.819V11.7907C140.793 11.7153 140.878 11.6494 140.991 11.5928C141.104 11.5363 141.179 11.4797 141.217 11.4232H141.189C141.226 11.3855 141.236 11.3289 141.217 11.2535C141.198 11.1593 141.189 11.0744 141.189 10.999C141.189 10.7917 141.255 10.622 141.387 10.4901C141.537 10.3393 141.688 10.1979 141.839 10.0659C141.99 9.91514 142.225 9.74549 142.546 9.55699C142.866 9.36849 143.243 9.23654 143.677 9.16113C143.734 9.14228 143.79 9.13286 143.847 9.13286C143.903 9.13286 143.96 9.13286 144.016 9.13286C144.337 9.13286 144.582 9.19884 144.751 9.33079C144.921 9.46274 145.044 9.60412 145.119 9.75492C145.157 9.79262 145.194 9.83974 145.232 9.89629C145.27 9.95285 145.289 10.0188 145.289 10.0942C145.289 10.1696 145.251 10.2733 145.176 10.4053C145.119 10.5184 144.987 10.6692 144.78 10.8577C144.685 10.9708 144.544 11.0933 144.356 11.2252C144.186 11.3383 144.026 11.4703 143.875 11.6211C143.686 11.8096 143.507 12.0169 143.338 12.2431C143.168 12.4694 143.008 12.6861 142.857 12.8935C142.725 13.082 142.584 13.2611 142.433 13.4307C142.282 13.5815 142.131 13.7417 141.98 13.9114C141.905 13.9868 141.848 14.1282 141.811 14.3355C141.773 14.524 141.688 14.6843 141.556 14.8162C141.424 14.9859 141.274 15.1178 141.104 15.2121C140.953 15.3063 140.831 15.4383 140.736 15.6079V15.5796C140.642 15.7493 140.538 15.9472 140.425 16.1734C140.312 16.3996 140.199 16.6164 140.086 16.8238C139.897 17.2008 139.775 17.4835 139.718 17.672C139.662 17.8417 139.634 17.9736 139.634 18.0679C139.634 18.181 139.652 18.2564 139.69 18.2941C139.747 18.3318 139.756 18.426 139.718 18.5768C139.643 18.7465 139.539 18.9538 139.407 19.1989C139.294 19.4439 139.162 19.5665 139.012 19.5665Z" fill="#161A2D"/>
<path d="M115.584 22.083C115.357 22.083 115.197 22.0359 115.103 21.9417C114.99 21.7909 114.905 21.5647 114.849 21.2631C114.811 20.9615 114.792 20.6693 114.792 20.3865C114.792 20.0661 114.811 19.8116 114.849 19.6231C114.999 19.0199 115.112 18.5769 115.188 18.2941C115.263 18.0114 115.31 17.8229 115.329 17.7286C115.367 17.6344 115.386 17.5778 115.386 17.559C115.386 17.5213 115.386 17.4553 115.386 17.3611C115.386 17.3045 115.386 17.2291 115.386 17.1349C115.386 17.0406 115.395 16.9181 115.414 16.7673C115.414 16.6353 115.471 16.362 115.584 15.9473C115.716 15.5326 115.866 15.0519 116.036 14.5053C116.206 13.9586 116.385 13.4119 116.573 12.8653C116.762 12.2998 116.931 11.8191 117.082 11.4232C117.233 11.0085 117.337 10.7446 117.393 10.6315C117.469 10.5561 117.525 10.3959 117.563 10.1508C117.601 9.9058 117.638 9.67017 117.676 9.44397C117.733 9.19891 117.799 9.05754 117.874 9.01984C117.817 9.01984 117.789 9.01984 117.789 9.01984C117.883 8.58628 118.044 8.12445 118.27 7.63434C118.496 7.14424 118.609 6.60701 118.609 6.02265C118.609 5.75875 118.59 5.54197 118.553 5.37232C118.515 5.20266 118.468 5.00474 118.411 4.77853C118.392 4.62773 118.345 4.47693 118.27 4.32613C118.213 4.17533 118.185 4.02452 118.185 3.87372C118.185 3.77947 118.194 3.70407 118.213 3.64752C118.308 3.38362 118.468 3.18569 118.694 3.05374C118.92 2.90294 119.165 2.82754 119.429 2.82754C119.523 2.82754 119.646 2.84639 119.797 2.88409C120.004 2.92179 120.145 3.02546 120.221 3.19511C120.315 3.36477 120.438 3.47787 120.588 3.53442C120.758 3.59097 120.843 3.83602 120.843 4.26958C120.843 4.70313 120.768 5.24979 120.617 5.90955C120.466 6.55045 120.296 7.17251 120.108 7.77572C119.919 8.37893 119.768 8.81248 119.655 9.07639C119.335 9.81154 119.014 10.6315 118.694 11.5363C118.392 12.4412 118.1 13.3648 117.817 14.3073C117.535 15.231 117.28 16.1169 117.054 16.9652C116.847 17.7946 116.677 18.5015 116.545 19.0859C116.526 19.1801 116.507 19.2649 116.489 19.3403C116.489 19.4157 116.489 19.4723 116.489 19.51C116.489 19.5854 116.498 19.6419 116.517 19.6796C116.536 19.7362 116.554 19.8116 116.573 19.9058C116.554 20.0378 116.602 20.1038 116.715 20.1038C116.903 20.1038 117.139 19.953 117.422 19.6514C117.78 19.2555 118.251 18.69 118.835 17.9548C119.42 17.2197 120.061 16.4091 120.758 15.5232C121.456 14.6372 122.162 13.7512 122.879 12.8653C123.614 11.9793 124.311 11.1782 124.971 10.4619C125.631 9.72672 126.215 9.17064 126.724 8.79363C126.856 8.69938 126.988 8.56743 127.12 8.39778C127.252 8.20928 127.384 8.0679 127.516 7.97365V8.00192C127.667 7.90767 127.836 7.79457 128.025 7.66262C128.213 7.53067 128.392 7.41757 128.562 7.32331C128.675 7.28561 128.93 7.19136 129.326 7.04056C129.721 6.88976 130.07 6.81436 130.372 6.81436C130.541 6.81436 130.664 6.85206 130.739 6.92746C130.871 7.07826 130.937 7.32332 130.937 7.66262C130.937 7.94537 130.909 8.22813 130.852 8.51088C130.796 8.79363 130.758 9.00099 130.739 9.13294C130.664 9.58534 130.57 10.0283 130.457 10.4619C130.343 10.8766 130.183 11.3667 129.976 11.9322C129.882 12.1772 129.797 12.526 129.721 12.9784C129.665 13.4308 129.561 13.9586 129.41 14.5618C129.392 14.6561 129.335 14.8446 129.241 15.1273C129.146 15.4101 129.043 15.7022 128.93 16.0038C128.817 16.2866 128.722 16.5034 128.647 16.6542C128.572 16.7484 128.496 16.8992 128.421 17.1066C128.364 17.3139 128.364 17.4553 128.421 17.5307C128.44 17.5873 128.487 17.7098 128.562 17.8983C128.656 18.0868 128.703 18.1528 128.703 18.0962C129.194 17.8512 129.806 17.4082 130.541 16.7673C131.277 16.1264 132.078 15.3629 132.945 14.477C133.831 13.5722 134.754 12.6297 135.716 11.6494C136.696 10.6504 137.676 9.67959 138.656 8.73708C138.788 8.64283 138.901 8.57685 138.996 8.53915C139.09 8.50145 139.175 8.4449 139.25 8.3695C139.288 8.3318 139.335 8.2564 139.392 8.1433C139.467 8.01135 139.542 7.9171 139.618 7.86055C139.919 7.55894 140.334 7.15366 140.862 6.64471C141.39 6.1169 141.965 5.55139 142.587 4.94819C143.228 4.32613 143.878 3.72292 144.538 3.13856C145.197 2.55421 145.81 2.03582 146.376 1.58342C146.96 1.11216 147.45 0.77286 147.846 0.565506C148.242 0.358154 148.572 0.216778 148.836 0.141377C149.099 0.0471255 149.307 0 149.458 0C149.74 0 149.882 0.103676 149.882 0.311028C149.882 0.44298 149.825 0.574932 149.712 0.706883C149.599 0.838835 149.467 0.923661 149.316 0.961361C149.165 0.999062 148.911 1.07446 148.553 1.18756C148.213 1.30067 147.987 1.43262 147.874 1.58342C147.799 1.67767 147.667 1.79077 147.478 1.92272C147.29 2.03583 147.101 2.14893 146.913 2.26203C146.724 2.37513 146.592 2.45996 146.517 2.51651C146.046 2.89351 145.461 3.43074 144.764 4.1282C144.066 4.80681 143.35 5.52312 142.615 6.27713C141.88 7.01228 141.22 7.66262 140.636 8.22813C139.09 9.75499 137.789 11.0368 136.734 12.0736C135.697 13.1103 134.811 13.9774 134.076 14.6749C133.341 15.3724 132.681 15.985 132.097 16.5128C131.531 17.0218 130.937 17.5119 130.315 17.9831C130.183 18.0774 130.051 18.2187 129.919 18.4073C129.806 18.5769 129.674 18.7089 129.523 18.8031V18.7748C129.391 18.8691 129.222 18.9916 129.014 19.1424C128.826 19.2744 128.647 19.3875 128.477 19.4817C128.402 19.5194 128.26 19.5665 128.053 19.6231C127.865 19.6985 127.676 19.7362 127.488 19.7362C127.261 19.7362 127.092 19.6796 126.979 19.5665C126.847 19.4346 126.752 19.2178 126.696 18.9162C126.639 18.6146 126.611 18.3224 126.611 18.0397C126.611 17.87 126.621 17.7192 126.639 17.5873C126.658 17.4365 126.677 17.3234 126.696 17.248C126.941 16.23 127.177 15.3347 127.403 14.5618C127.629 13.7701 127.846 13.0161 128.053 12.2998C128.26 11.5835 128.458 10.8389 128.647 10.066C128.703 9.80212 128.732 9.64189 128.732 9.58534C128.732 9.50994 128.722 9.46282 128.703 9.44397C128.685 9.40627 128.656 9.34971 128.619 9.27431C128.6 9.19891 128.543 9.06696 128.449 8.87846C128.355 8.68996 128.308 8.63341 128.308 8.70881C127.912 8.89731 127.469 9.21776 126.979 9.67017C126.489 10.1226 125.98 10.641 125.452 11.2253C124.924 11.8097 124.406 12.4129 123.897 13.0349C123.407 13.6381 122.954 14.2036 122.539 14.7315C122.144 15.2404 121.814 15.6551 121.55 15.9756C121.493 16.0321 121.342 16.2112 121.097 16.5128C120.871 16.8144 120.598 17.1631 120.277 17.559C119.976 17.936 119.702 18.2753 119.457 18.5769C119.212 18.8785 119.062 19.0576 119.005 19.1141C118.986 19.1518 118.939 19.2555 118.864 19.4252C118.788 19.6137 118.713 19.8022 118.637 19.9907C118.581 20.1792 118.524 20.3017 118.468 20.3582C118.336 20.4525 118.204 20.5845 118.072 20.7541C117.94 20.9426 117.808 21.084 117.676 21.1782C117.525 21.2536 117.356 21.3573 117.167 21.4893C116.979 21.6212 116.79 21.7343 116.602 21.8286C116.526 21.8663 116.385 21.9134 116.177 21.9699C115.989 22.0453 115.791 22.083 115.584 22.083Z" fill="#161A2D"/>
<path d="M91.1342 29.9993C90.5121 29.9993 90.022 29.7825 89.6639 29.349C89.2869 28.9343 89.023 28.4348 88.8722 27.8504C88.7025 27.2849 88.6177 26.7759 88.6177 26.3235C88.7119 25.89 88.7873 25.5412 88.8439 25.2773C88.8816 25.0323 89.0512 24.7213 89.3528 24.3443C89.4848 24.2123 89.5885 24.1463 89.6639 24.1463C89.7581 24.1463 89.8052 24.2406 89.8052 24.4291C89.7864 24.6176 89.777 24.8249 89.777 25.0511C89.777 25.3339 89.777 25.7015 89.777 26.1539C89.777 26.6063 89.8147 27.0587 89.8901 27.5111C89.9466 27.9823 90.0786 28.3688 90.2859 28.6704C90.4744 28.9908 90.7572 29.1511 91.1342 29.1511C91.8505 29.1511 92.482 28.9626 93.0286 28.5856C93.5941 28.2274 94.1031 27.7561 94.5555 27.1718C95.0079 26.6063 95.432 26.0125 95.8279 25.3904C95.9787 25.1642 96.1483 24.9569 96.3368 24.7684C96.5253 24.5799 96.6856 24.382 96.8175 24.1746C96.9683 23.9484 97.0814 23.7128 97.1568 23.4677C97.2511 23.2227 97.3642 23.0059 97.4961 22.8174C98.0805 22.0068 98.5894 21.102 99.023 20.103C99.4566 19.1227 99.9372 18.1614 100.465 17.2189C100.559 17.0115 100.701 16.6911 100.889 16.2575C101.078 15.824 101.266 15.3904 101.455 14.9568C101.643 14.5044 101.785 14.1651 101.879 13.9389C102.03 13.4865 102.124 13.2226 102.162 13.1472V13.1189C101.973 13.2697 101.869 13.364 101.851 13.4017C101.832 13.4205 101.794 13.4582 101.737 13.5148C101.7 13.5525 101.521 13.6939 101.2 13.9389L101.144 13.9672C101.125 13.9484 101.021 14.0238 100.833 14.1934C100.663 14.3442 100.474 14.5044 100.267 14.6741C100.079 14.8437 99.9372 14.9474 99.843 14.9851C99.7487 15.0605 99.5697 15.2302 99.3058 15.4941C99.0607 15.7391 98.891 15.8899 98.7968 15.9465C98.3067 16.3989 97.826 16.8042 97.3548 17.1623C96.8835 17.5016 96.384 17.8315 95.8562 18.152C95.8373 18.152 95.809 18.1802 95.7713 18.2368C95.7525 18.2933 95.7148 18.3405 95.6582 18.3782H95.63C95.5734 18.4159 95.5169 18.4347 95.4603 18.4347C95.4038 18.4159 95.3566 18.4253 95.3189 18.463L94.6403 18.774C94.4141 18.8683 94.2162 18.9154 94.0465 18.9154C93.8392 18.9154 93.6601 18.8494 93.5093 18.7175C93.3585 18.5855 93.2831 18.3782 93.2831 18.0954C93.2831 18.0389 93.2831 17.9729 93.2831 17.8975C93.302 17.8032 93.3208 17.7184 93.3397 17.643C93.4905 17.0586 93.6978 16.3989 93.9617 15.6637C94.2445 14.9097 94.6592 14.0897 95.2058 13.2038C95.3378 12.9964 95.4132 12.8456 95.432 12.7514C95.4697 12.6571 95.4886 12.5911 95.4886 12.5534V12.4403C95.4886 12.4026 95.498 12.3555 95.5169 12.299C95.5357 12.2424 95.5828 12.1482 95.6582 12.0162C95.809 11.8089 95.8939 11.6486 95.9127 11.5355C95.9504 11.4036 95.9787 11.281 95.9975 11.1679C96.0918 10.9417 96.2143 10.7909 96.3651 10.7155C96.5159 10.6213 96.6573 10.5459 96.7892 10.4893C97.1097 10.3574 97.4207 10.2349 97.7223 10.1218C98.0428 9.9898 98.3067 9.92383 98.514 9.92383C98.7779 9.92383 98.9382 10.0369 98.9947 10.2631C99.0136 10.3385 99.023 10.4045 99.023 10.4611C99.023 10.5176 99.023 10.5742 99.023 10.6307C99.023 10.97 98.9193 11.2622 98.712 11.5072C98.5235 11.7523 98.2219 12.0445 97.8072 12.3838C97.6564 12.5157 97.5433 12.6194 97.4679 12.6948C97.3925 12.7702 97.3076 12.8739 97.2134 13.0058C97.138 13.1189 97.006 13.3169 96.8175 13.5996H96.7892C96.2991 14.3348 95.9504 14.9663 95.7431 15.4941C95.5357 16.0219 95.3943 16.4837 95.3189 16.8796C95.3001 16.9738 95.3001 17.0304 95.3189 17.0492C95.3378 17.0681 95.3755 17.0869 95.432 17.1058C95.5263 17.1435 95.6111 17.1435 95.6865 17.1058C95.9693 17.0115 96.3086 16.823 96.7044 16.5403C97.1191 16.2387 97.5338 15.9182 97.9485 15.5789C98.3632 15.2207 98.7308 14.9191 99.0513 14.6741C99.1455 14.5987 99.2398 14.5421 99.334 14.5044C99.4471 14.4479 99.532 14.4008 99.5885 14.3631C99.6828 14.2688 99.7582 14.184 99.8147 14.1086C99.8901 14.0332 99.9655 13.9672 100.041 13.9107C100.795 13.3263 101.37 12.8079 101.766 12.3555C102.162 11.8843 102.473 11.4884 102.699 11.1679C102.925 10.8286 103.132 10.5836 103.321 10.4328C103.547 10.2631 103.745 10.1783 103.915 10.1783C104.122 10.1783 104.282 10.2537 104.395 10.4045C104.527 10.5553 104.603 10.7061 104.622 10.8569C104.659 11.0077 104.678 11.1585 104.678 11.3093C104.678 11.5167 104.64 11.6957 104.565 11.8466C104.433 12.0351 104.376 12.1953 104.395 12.3272C104.414 12.4403 104.367 12.6006 104.254 12.8079C104.16 12.9964 104.056 13.2226 103.943 13.4865C103.83 13.7504 103.717 13.9578 103.604 14.1086C103.453 14.5421 103.236 15.0322 102.953 15.5789C102.671 16.1256 102.378 16.6628 102.077 17.1906C101.794 17.6995 101.549 18.1237 101.342 18.463C101.153 18.7834 101.059 18.9437 101.059 18.9437C100.814 19.5846 100.522 20.2632 100.182 20.9795C99.8618 21.6958 99.4848 22.365 99.0513 22.987C98.6177 23.5902 98.1276 24.2877 97.581 25.0794C97.0531 25.89 96.4594 26.6628 95.7996 27.398C95.1587 28.152 94.4424 28.7741 93.6507 29.2642C92.8778 29.7543 92.039 29.9993 91.1342 29.9993Z" fill="#161A2D"/>
<path d="M79.8057 19.4251C79.6361 19.3686 79.5513 19.1707 79.5513 18.8313C79.5513 18.624 79.5795 18.3884 79.6361 18.1245C79.7115 17.8606 79.8152 17.5495 79.9471 17.1914V17.2762C79.9848 17.2762 80.0225 17.2102 80.0602 17.0783C80.0979 16.9463 80.1074 16.8709 80.0885 16.8521C80.1074 16.739 80.1828 16.6164 80.3147 16.4845C80.4655 16.3337 80.5315 16.2489 80.5126 16.23V16.2017C80.5503 16.1263 80.5503 16.0792 80.5126 16.0604C80.4749 16.0415 80.4844 15.9661 80.5409 15.8342C80.7483 15.4006 80.9368 15.0047 81.1064 14.6466C81.2761 14.2696 81.4457 13.9303 81.6154 13.6287C81.6154 13.6287 81.6342 13.5627 81.6719 13.4308C81.7096 13.2988 81.7567 13.1763 81.8133 13.0632V13.1197C81.8322 13.0443 81.8793 12.9783 81.9547 12.9218C82.0301 12.8464 82.0772 12.7993 82.096 12.7804C82.1903 12.6108 82.2374 12.4882 82.2374 12.4128C82.2374 12.3751 82.228 12.3563 82.2092 12.3563C82.1903 12.3563 82.1809 12.3469 82.1809 12.328C82.1809 12.3092 82.1997 12.2715 82.2374 12.2149C82.2751 12.1395 82.3505 12.0264 82.4636 11.8756H82.4354C82.5108 11.7814 82.6239 11.6117 82.7747 11.3667C82.9443 11.1216 83.1045 10.8765 83.2553 10.6315C83.425 10.3864 83.5287 10.2262 83.5664 10.1508C83.7172 9.83036 83.9528 9.59473 84.2733 9.44393C84.6126 9.27428 84.9424 9.18945 85.2629 9.18945C85.5645 9.18945 85.819 9.26485 86.0263 9.41566C86.2525 9.54761 86.3656 9.77381 86.3656 10.0943C86.3656 10.3959 86.2902 10.6032 86.1394 10.7163C86.0075 10.8294 85.819 10.9519 85.5739 11.0839C85.3477 11.197 85.0932 11.4044 84.8105 11.706C84.2638 12.2903 83.8963 12.771 83.7077 13.148C83.5192 13.5062 83.4061 13.8832 83.3684 14.279C83.4438 14.1848 83.5287 14.0999 83.6229 14.0245C84.0188 13.6287 84.4618 13.2705 84.9519 12.9501C85.4608 12.6108 86.1017 12.2055 86.8746 11.7342H86.9311C86.95 11.7342 87.0725 11.6494 87.2987 11.4798C87.5438 11.3101 87.7888 11.1405 88.0339 10.9708C88.2978 10.7823 88.458 10.688 88.5146 10.688C88.5146 10.688 88.6277 10.6315 88.8539 10.5184C89.0801 10.4053 89.3157 10.311 89.5607 10.2356C90.3901 9.95289 91.1065 9.81151 91.7097 9.81151C92.1432 9.81151 92.4637 9.88691 92.671 10.0377C92.8407 10.1508 92.9255 10.377 92.9255 10.7163C92.9255 10.9614 92.869 11.2441 92.7559 11.5646V11.508C92.737 11.508 92.6993 11.5834 92.6428 11.7342C92.5862 11.8662 92.5297 11.9793 92.4731 12.0735C92.4354 12.1301 92.3694 12.2338 92.2752 12.3846C92.1809 12.5354 92.1244 12.6296 92.1055 12.6673V12.639C91.9924 12.8464 91.8887 13.0066 91.7945 13.1197C91.7002 13.214 91.5871 13.3459 91.4552 13.5156C91.2667 13.7418 91.0122 14.0905 90.6918 14.5618C90.3713 15.0142 90.0603 15.5043 89.7587 16.0321C89.4759 16.541 89.2874 17.0029 89.1932 17.4176C89.1743 17.5307 89.1366 17.6626 89.0801 17.8134C89.0424 17.9454 89.0329 18.0585 89.0518 18.1527V18.181C89.0518 18.2187 89.0895 18.2753 89.1649 18.3507C89.2403 18.4072 89.2874 18.4543 89.3063 18.492C89.3817 18.5674 89.4194 18.6523 89.4194 18.7465C89.4194 18.8596 89.3534 18.9633 89.2214 19.0575C89.1083 19.1329 88.8916 19.1518 88.5711 19.1141C88.3638 19.1141 88.2224 19.0575 88.147 18.9444C88.0904 18.8313 88.0245 18.7088 87.949 18.5769V18.5486C87.949 18.5109 87.9396 18.4732 87.9208 18.4355C87.9208 18.3978 87.9208 18.3412 87.9208 18.2658C87.9396 18.2281 87.9113 18.2093 87.8359 18.2093C87.7794 18.1904 87.7134 18.115 87.638 17.9831C87.638 17.9831 87.6286 17.8888 87.6097 17.7003C87.5909 17.5118 87.5815 17.3799 87.5815 17.3045C87.5815 17.116 87.6474 16.8898 87.7794 16.6259C87.9113 16.3431 88.015 16.0981 88.0904 15.8907C88.1847 15.6834 88.3826 15.3818 88.6842 14.9859C88.9858 14.59 89.2968 14.1848 89.6173 13.7701C89.9566 13.3365 90.2111 12.9783 90.3807 12.6956C90.5692 12.3751 90.6635 12.0924 90.6635 11.8473C90.6635 11.6211 90.5975 11.4609 90.4656 11.3667C90.3336 11.2536 90.1828 11.197 90.0131 11.197C89.9189 11.197 89.7775 11.2064 89.589 11.2253C89.4194 11.2441 89.2497 11.2913 89.0801 11.3667C89.0047 11.3855 88.8727 11.4609 88.6842 11.5929C88.5146 11.7248 88.3449 11.8473 88.1753 11.9604C88.0056 12.0735 87.8925 12.1301 87.8359 12.1301C87.704 12.2243 87.5815 12.3186 87.4684 12.4128C87.3553 12.4882 87.2045 12.5825 87.016 12.6956L86.1394 13.2611C85.1969 13.8643 84.3015 14.5618 83.4533 15.3535C82.6239 16.1452 81.9076 16.9557 81.3043 17.7852C81.2289 17.8794 81.1724 18.0114 81.1347 18.181C81.097 18.3507 81.0499 18.492 80.9933 18.6051C80.9179 18.7371 80.8425 18.8313 80.7671 18.8879C80.6917 18.9256 80.6352 18.9633 80.5975 19.001C80.4467 19.1895 80.2959 19.312 80.1451 19.3686C80.0131 19.4063 79.9 19.4251 79.8057 19.4251Z" fill="#161A2D"/>
<path d="M66.4415 19.4251C66.2718 19.3686 66.187 19.1707 66.187 18.8313C66.187 18.624 66.2153 18.3884 66.2718 18.1245C66.3472 17.8606 66.4509 17.5495 66.5829 17.1914V17.2762C66.6206 17.2762 66.6583 17.2102 66.696 17.0783C66.7337 16.9463 66.7431 16.8709 66.7242 16.8521C66.7431 16.739 66.8185 16.6164 66.9504 16.4845C67.1012 16.3337 67.1672 16.2489 67.1484 16.23V16.2017C67.1861 16.1263 67.1861 16.0792 67.1484 16.0604C67.1107 16.0415 67.1201 15.9661 67.1766 15.8342C67.384 15.4006 67.5725 15.0047 67.7422 14.6466C67.9118 14.2696 68.0815 13.9303 68.2511 13.6287C68.2511 13.6287 68.27 13.5627 68.3077 13.4308C68.3454 13.2988 68.3925 13.1763 68.449 13.0632V13.1197C68.4679 13.0443 68.515 12.9783 68.5904 12.9218C68.6658 12.8464 68.7129 12.7993 68.7318 12.7804C68.826 12.6108 68.8732 12.4882 68.8732 12.4128C68.8732 12.3751 68.8637 12.3563 68.8449 12.3563C68.826 12.3563 68.8166 12.3469 68.8166 12.328C68.8166 12.3092 68.8355 12.2715 68.8732 12.2149C68.9109 12.1395 68.9863 12.0264 69.0994 11.8756H69.0711C69.1465 11.7814 69.2596 11.6117 69.4104 11.3667C69.5801 11.1216 69.7403 10.8765 69.8911 10.6315C70.0607 10.3864 70.1644 10.2262 70.2021 10.1508C70.3529 9.83036 70.5885 9.59473 70.909 9.44393C71.2483 9.27428 71.5782 9.18945 71.8986 9.18945C72.2002 9.18945 72.4547 9.26485 72.6621 9.41566C72.8883 9.54761 73.0014 9.77381 73.0014 10.0943C73.0014 10.3959 72.926 10.6032 72.7752 10.7163C72.6432 10.8294 72.4547 10.9519 72.2097 11.0839C71.9835 11.197 71.729 11.4044 71.4462 11.706C70.8996 12.2903 70.532 12.771 70.3435 13.148C70.155 13.5062 70.0419 13.8832 70.0042 14.279C70.0796 14.1848 70.1644 14.0999 70.2587 14.0245C70.6545 13.6287 71.0975 13.2705 71.5876 12.9501C72.0966 12.6108 72.7375 12.2055 73.5103 11.7342H73.5669C73.5857 11.7342 73.7083 11.6494 73.9345 11.4798C74.1795 11.3101 74.4246 11.1405 74.6696 10.9708C74.9335 10.7823 75.0937 10.688 75.1503 10.688C75.1503 10.688 75.2634 10.6315 75.4896 10.5184C75.7158 10.4053 75.9514 10.311 76.1965 10.2356C77.0259 9.95289 77.7422 9.81151 78.3454 9.81151C78.779 9.81151 79.0994 9.88691 79.3068 10.0377C79.4764 10.1508 79.5613 10.377 79.5613 10.7163C79.5613 10.9614 79.5047 11.2441 79.3916 11.5646V11.508C79.3727 11.508 79.3351 11.5834 79.2785 11.7342C79.2219 11.8662 79.1654 11.9793 79.1088 12.0735C79.0711 12.1301 79.0052 12.2338 78.9109 12.3846C78.8167 12.5354 78.7601 12.6296 78.7413 12.6673V12.639C78.6282 12.8464 78.5245 13.0066 78.4302 13.1197C78.336 13.214 78.2229 13.3459 78.0909 13.5156C77.9024 13.7418 77.648 14.0905 77.3275 14.5618C77.007 15.0142 76.696 15.5043 76.3944 16.0321C76.1117 16.541 75.9232 17.0029 75.8289 17.4176C75.8101 17.5307 75.7724 17.6626 75.7158 17.8134C75.6781 17.9454 75.6687 18.0585 75.6875 18.1527V18.181C75.6875 18.2187 75.7252 18.2753 75.8006 18.3507C75.876 18.4072 75.9232 18.4543 75.942 18.492C76.0174 18.5674 76.0551 18.6523 76.0551 18.7465C76.0551 18.8596 75.9891 18.9633 75.8572 19.0575C75.7441 19.1329 75.5273 19.1518 75.2068 19.1141C74.9995 19.1141 74.8581 19.0575 74.7827 18.9444C74.7262 18.8313 74.6602 18.7088 74.5848 18.5769V18.5486C74.5848 18.5109 74.5754 18.4732 74.5565 18.4355C74.5565 18.3978 74.5565 18.3412 74.5565 18.2658C74.5754 18.2281 74.5471 18.2093 74.4717 18.2093C74.4151 18.1904 74.3492 18.115 74.2738 17.9831C74.2738 17.9831 74.2643 17.8888 74.2455 17.7003C74.2266 17.5118 74.2172 17.3799 74.2172 17.3045C74.2172 17.116 74.2832 16.8898 74.4151 16.6259C74.5471 16.3431 74.6508 16.0981 74.7262 15.8907C74.8204 15.6834 75.0183 15.3818 75.32 14.9859C75.6216 14.59 75.9326 14.1848 76.253 13.7701C76.5923 13.3365 76.8468 12.9783 77.0165 12.6956C77.205 12.3751 77.2992 12.0924 77.2992 11.8473C77.2992 11.6211 77.2332 11.4609 77.1013 11.3667C76.9693 11.2536 76.8185 11.197 76.6489 11.197C76.5546 11.197 76.4133 11.2064 76.2248 11.2253C76.0551 11.2441 75.8855 11.2913 75.7158 11.3667C75.6404 11.3855 75.5085 11.4609 75.32 11.5929C75.1503 11.7248 74.9806 11.8473 74.811 11.9604C74.6413 12.0735 74.5282 12.1301 74.4717 12.1301C74.3397 12.2243 74.2172 12.3186 74.1041 12.4128C73.991 12.4882 73.8402 12.5825 73.6517 12.6956L72.7752 13.2611C71.8327 13.8643 70.9373 14.5618 70.089 15.3535C69.2596 16.1452 68.5433 16.9557 67.9401 17.7852C67.8647 17.8794 67.8081 18.0114 67.7704 18.181C67.7327 18.3507 67.6856 18.492 67.6291 18.6051C67.5537 18.7371 67.4783 18.8313 67.4029 18.8879C67.3275 18.9256 67.2709 18.9633 67.2332 19.001C67.0824 19.1895 66.9316 19.312 66.7808 19.3686C66.6488 19.4063 66.5357 19.4251 66.4415 19.4251Z" fill="#161A2D"/>
<path d="M57.8312 20.162C57.7747 20.162 57.6521 20.1243 57.4636 20.0489C57.2751 19.9924 57.0772 19.9358 56.8699 19.8792C56.6625 19.8227 56.5117 19.7944 56.4175 19.7944H56.3892C56.031 19.7944 55.7577 19.653 55.5692 19.3703C55.3995 19.0687 55.2864 18.7954 55.2299 18.5503C55.211 18.4561 55.1922 18.3618 55.1733 18.2676C55.1733 18.1545 55.1733 18.0414 55.1733 17.9283C55.1733 17.3062 55.3241 16.5993 55.6258 15.8076C55.9274 15.0159 56.3326 14.1959 56.8416 13.3476C57.3694 12.4994 57.9632 11.7077 58.6229 10.9725C59.3015 10.1997 59.9896 9.59645 60.687 9.16289C61.3845 8.72934 62.016 8.48429 62.5815 8.42773C62.8831 8.42773 63.1941 8.51256 63.5146 8.68221C63.835 8.85187 64.0612 8.93669 64.1932 8.93669H64.2215C64.6173 8.93669 64.8812 9.09692 65.0132 9.41737C65.1451 9.73783 65.2111 10.0583 65.2111 10.3787C65.2111 10.5672 65.1734 10.7652 65.098 10.9725C65.0226 11.1799 64.9566 11.3495 64.9001 11.4815C64.8624 11.6134 64.8624 11.6605 64.9001 11.6228L64.9283 11.5946C64.721 11.9716 64.4854 12.358 64.2215 12.7539C63.9764 13.1309 63.5711 13.6304 63.0056 14.2525C62.7794 14.4975 62.4684 14.7426 62.0725 14.9876C61.6955 15.2138 61.3279 15.4212 60.9698 15.6097C60.6116 15.7982 60.3572 15.9301 60.2064 16.0055C60.0556 16.0809 59.8576 16.1186 59.6126 16.1186C59.3675 16.1186 59.0942 16.0904 58.7926 16.0338C58.5098 15.9773 58.2648 15.949 58.0574 15.949C57.9443 15.949 57.8407 15.9584 57.7464 15.9773C57.6522 15.9961 57.5862 16.0527 57.5485 16.1469C57.2469 16.637 57.0961 17.1271 57.0961 17.6172C57.0961 17.9188 57.162 18.1733 57.294 18.3807C57.4448 18.5692 57.6898 18.6634 58.0292 18.6634C58.1423 18.6634 58.2648 18.654 58.3967 18.6351C58.5287 18.6163 58.6606 18.5786 58.7926 18.522C59.113 18.4655 59.3392 18.4372 59.4712 18.4372C59.6031 18.4372 59.7445 18.4184 59.8953 18.3807C60.065 18.343 60.3383 18.2487 60.7153 18.0979C61.13 17.9283 61.441 17.8057 61.6484 17.7303C61.8746 17.6549 62.0443 17.5889 62.1574 17.5324C62.2893 17.4758 62.4213 17.4099 62.5532 17.3345C62.6852 17.2591 62.8925 17.146 63.1753 16.9952C63.3826 16.8821 63.4957 16.8255 63.5146 16.8255C63.5523 16.8255 63.6088 16.8067 63.6842 16.769C63.7596 16.7124 63.9576 16.5805 64.278 16.3731C64.6173 16.1469 64.8812 16.0338 65.0697 16.0338C65.2017 16.0338 65.2676 16.0809 65.2676 16.1752C65.2676 16.2506 65.2017 16.3637 65.0697 16.5145C64.9566 16.6653 64.7493 16.8444 64.4477 17.0517C64.1272 17.2779 63.7596 17.5418 63.3449 17.8434C62.9491 18.145 62.5815 18.3807 62.2422 18.5503C62.1291 18.5692 62.0254 18.6163 61.9312 18.6917C61.8558 18.7482 61.7426 18.7954 61.5918 18.8331L60.0084 19.5117L60.0367 19.4834C60.0933 19.4268 60.0273 19.4268 59.8388 19.4834C59.6691 19.5399 59.4429 19.6248 59.1602 19.7379C58.8963 19.851 58.6324 19.9452 58.3685 20.0206C58.1234 20.1149 57.9443 20.162 57.8312 20.162ZM58.934 15.2986C59.0094 15.2986 59.0848 15.2986 59.1602 15.2986C59.2356 15.2798 59.311 15.2609 59.3864 15.2421C59.5183 15.129 59.6408 15.0442 59.7539 14.9876C59.867 14.9311 60.0179 14.8368 60.2064 14.7049C60.3949 14.5729 60.6588 14.3373 60.9981 13.998C61.2808 13.7152 61.5259 13.5173 61.7332 13.4042C61.9406 13.2722 62.1102 13.1309 62.2422 12.9801C62.638 12.4334 62.8454 12.0187 62.8642 11.7359C62.9019 11.4532 62.9208 11.1893 62.9208 10.9442C62.6946 10.6426 62.4872 10.4918 62.2987 10.4918C62.1856 10.4918 62.016 10.539 61.7898 10.6332C61.4693 10.7652 61.2054 10.8877 60.9981 11.0008C60.8096 11.1139 60.5268 11.3589 60.1498 11.7359C59.7162 12.1884 59.3204 12.6313 58.9622 13.0649C58.6041 13.4796 58.3213 13.9037 58.114 14.3373C58.0951 14.4127 58.0669 14.4881 58.0292 14.5635C58.0103 14.62 58.0009 14.6672 58.0009 14.7049C58.0009 14.9122 58.0951 15.063 58.2836 15.1573C58.4721 15.2515 58.6889 15.2986 58.934 15.2986Z" fill="#161A2D"/>
<path d="M48.7439 6.90116C48.612 6.90116 48.48 6.84461 48.3481 6.73151C48.2161 6.59956 48.1219 6.38278 48.0653 6.08118C48.0088 5.81727 47.9805 5.57222 47.9805 5.34602C47.9805 4.66741 48.1313 4.04535 48.4329 3.47985C48.7345 2.91434 49.0361 2.48078 49.3377 2.17918C49.4885 2.06608 49.8561 1.94355 50.4404 1.8116C51.0436 1.67965 51.7128 1.56655 52.448 1.4723C53.202 1.35919 53.8712 1.29322 54.4555 1.27437C54.6063 1.27437 54.7571 1.27437 54.9079 1.27437C55.0587 1.25552 55.2001 1.24609 55.3321 1.24609C56.4442 1.24609 57.4056 1.30264 58.2162 1.41574C59.0456 1.52885 59.809 1.63252 60.5065 1.72677C60.8835 1.78332 61.1945 1.887 61.4395 2.0378C61.7035 2.16975 61.9014 2.32056 62.0333 2.49021C62.2218 2.81066 62.3161 3.04629 62.3161 3.19709C62.3161 3.32904 62.2313 3.39502 62.0616 3.39502C61.8354 3.39502 61.5055 3.31019 61.072 3.14054C60.6573 2.97089 60.318 2.88606 60.0541 2.88606C59.4697 2.73526 58.8759 2.61273 58.2727 2.51848C57.6884 2.42423 57.1417 2.34883 56.6327 2.29228C56.4065 2.25458 56.1803 2.26401 55.9541 2.32056C55.7279 2.37711 55.5394 2.41481 55.3886 2.43366C55.2378 2.43366 54.9645 2.46193 54.5686 2.51848C54.1916 2.55618 53.8146 2.60331 53.4376 2.65986C53.0795 2.71641 52.8344 2.75411 52.7025 2.77296C51.7977 2.90491 51.1567 3.03686 50.7797 3.16882C50.4216 3.30077 50.1954 3.44215 50.1011 3.59295C50.0069 3.7249 49.9032 3.85685 49.7901 3.9888C49.6205 4.1773 49.4508 4.35638 49.2812 4.52603C49.1115 4.69569 49.0267 4.99729 49.0267 5.43084C49.0267 5.5628 49.0361 5.70417 49.0549 5.85497C49.0926 6.00578 49.1303 6.18485 49.168 6.39221V6.47703C49.168 6.75979 49.0267 6.90116 48.7439 6.90116ZM38.4234 26.0718C37.726 26.0718 37.1416 25.9022 36.6703 25.5629C36.1802 25.2236 35.8881 24.8183 35.7938 24.347C35.7373 24.0831 35.709 23.8758 35.709 23.725C35.709 23.4799 35.7844 23.2632 35.9352 23.0747C36.0671 22.905 36.3405 22.6977 36.7552 22.4526C36.9248 22.3584 37.0756 22.2924 37.2076 22.2547C37.3395 22.217 37.4432 22.1981 37.5186 22.1981C37.6883 22.1981 37.8108 22.2358 37.8862 22.3112C37.9616 22.4055 37.9993 22.4997 37.9993 22.594C37.9993 22.7825 37.9145 22.9239 37.7448 23.0181C37.6317 23.0935 37.5469 23.216 37.4903 23.3857C37.4338 23.5742 37.4055 23.7438 37.4055 23.8946C37.4055 24.4413 37.7071 24.7146 38.3103 24.7146C38.5931 24.7146 38.9418 24.6581 39.3565 24.545C39.7524 24.4507 40.1859 24.3282 40.6572 24.1774C41.053 24.0454 41.5431 23.7533 42.1275 23.3009C42.7118 22.8673 43.3528 22.3301 44.0502 21.6892C44.201 21.5384 44.3801 21.3404 44.5874 21.0954C44.8136 20.8503 45.0021 20.6524 45.153 20.5016C45.3038 20.3508 45.4263 20.1623 45.5205 19.9361C45.6336 19.7099 45.7844 19.4931 45.9729 19.2858C46.6327 18.4564 47.3019 17.5515 47.9805 16.5713C48.6591 15.5911 49.366 14.4884 50.1011 13.2631C50.5347 12.528 50.9965 11.6703 51.4866 10.6901C51.9767 9.691 52.4574 8.72963 52.9287 7.80597C53.0041 7.65517 53.0889 7.49494 53.1831 7.32529C53.2774 7.15564 53.3528 7.00484 53.4094 6.87289C53.4659 6.74093 53.5036 6.59956 53.5225 6.44876C53.5602 6.29796 53.6073 6.166 53.6638 6.0529C53.8146 5.77015 53.9466 5.50625 54.0597 5.26119C54.1916 5.01614 54.2953 4.86534 54.3707 4.80879C54.1257 4.75224 54.0031 4.54488 54.0031 4.18673C54.0031 3.96053 54.0691 3.73432 54.2011 3.50812C54.333 3.26307 54.5215 3.10284 54.7666 3.02744C54.7666 3.02744 54.8702 3.00859 55.0776 2.97089C55.3038 2.93319 55.464 2.87664 55.5583 2.80124C55.7279 2.68814 55.8787 2.69756 56.0107 2.82951C56.1615 2.96146 56.284 3.10284 56.3783 3.25364C56.4725 3.40444 56.5196 3.47042 56.5196 3.45157C56.8778 3.48927 57.0569 3.78145 57.0569 4.32811C57.0569 4.62971 56.9909 4.94074 56.8589 5.26119C56.7835 5.39314 56.6327 5.53452 56.4065 5.68532C56.1803 5.81727 56.0295 5.94923 55.9541 6.08118C55.5771 6.85404 55.1153 7.71172 54.5686 8.65423C54.022 9.59675 53.4848 10.5016 52.9569 11.3687C52.4291 12.2358 52.005 12.9427 51.6846 13.4893C51.5903 13.6401 51.4301 13.8098 51.2039 13.9983C50.9965 14.1868 50.8457 14.3659 50.7515 14.5355C50.6384 14.6863 50.5912 14.8371 50.6101 14.9879C50.6289 15.1387 50.5724 15.3178 50.4404 15.5251H50.4687C49.7713 16.5996 48.9984 17.6552 48.1501 18.692C47.3019 19.7099 46.4348 20.6618 45.5488 21.5478C44.6628 22.4526 43.7863 23.2443 42.9192 23.9229C42.0709 24.6015 41.2887 25.1293 40.5723 25.5063C40.1953 25.6948 39.8278 25.8362 39.4696 25.9305C39.0926 26.0247 38.7439 26.0718 38.4234 26.0718Z" fill="#161A2D"/>
<path d="M35.6522 19.4818C35.5203 19.4818 35.4354 19.4253 35.3977 19.3122C35.36 19.1991 35.3317 19.0766 35.3129 18.9446C35.2752 18.7938 35.2563 18.6241 35.2563 18.4356C35.2563 18.3037 35.2752 18.1717 35.3129 18.0398C35.3506 17.9078 35.426 17.8042 35.5391 17.7288C35.8407 17.5591 36.0952 17.4177 36.3025 17.3046C36.5099 17.1727 36.7078 17.0596 36.8963 16.9653C37.311 16.758 37.6409 16.6543 37.886 16.6543C37.9991 16.6543 38.0933 16.7203 38.1687 16.8522C38.2441 16.9653 38.2818 16.9842 38.2818 16.9088V16.8805C38.2818 16.8428 38.2818 16.8711 38.2818 16.9653C38.3007 17.0596 38.3101 17.135 38.3101 17.1915C38.3101 17.38 38.2724 17.5591 38.197 17.7288C38.1404 17.8796 38.0556 18.0492 37.9425 18.2377C37.8483 18.4262 37.7917 18.6336 37.7729 18.8598C37.7352 19.1048 37.5844 19.2368 37.3204 19.2556C37.0565 19.2556 36.8492 19.3028 36.6984 19.397C36.5664 19.4536 36.3874 19.4818 36.1612 19.4818C35.935 19.4818 35.7747 19.4818 35.6805 19.4818H35.6522Z" fill="#161A2D"/>
<path d="M23.9454 19.4249C23.7757 19.3872 23.6909 19.1893 23.6909 18.8311C23.6909 18.2091 23.87 17.5399 24.2281 16.8236C24.3412 16.6916 24.4355 16.5597 24.5109 16.4277C24.6052 16.2958 24.6523 16.145 24.6523 15.9753C24.6523 15.8622 24.7088 15.6926 24.8219 15.4664C24.935 15.2213 25.0576 14.9668 25.1895 14.7029C25.3403 14.4202 25.4723 14.1751 25.5854 13.9678C25.6985 13.7604 25.755 13.6379 25.755 13.6002C25.7927 13.506 25.8304 13.4023 25.8681 13.2892C25.9247 13.1572 25.9529 13.0912 25.9529 13.0912C26.1414 12.8085 26.3677 12.4598 26.6316 12.0451C26.9143 11.6304 27.2442 11.1497 27.6212 10.603H27.5929C27.8568 10.1695 28.0924 9.80188 28.2998 9.50028C28.526 9.17982 28.7334 8.92534 28.9219 8.73684C29.5251 8.13364 30.2131 7.83203 30.986 7.83203C31.4572 7.83203 31.6928 8.03938 31.6928 8.45409C31.6928 8.81224 31.4761 9.17982 31.0425 9.55683C30.8729 9.70763 30.6938 9.85843 30.5053 10.0092C30.3356 10.1412 30.1754 10.2826 30.0246 10.4334C29.8738 10.603 29.6664 10.8575 29.4025 11.1968C29.1386 11.5173 28.8276 11.9225 28.4694 12.4126C28.4317 12.4692 28.3281 12.6106 28.1584 12.8368C28.0076 13.0441 27.8474 13.2797 27.6777 13.5437C27.5269 13.7887 27.4138 14.0055 27.3384 14.194C27.2819 14.3636 27.3196 14.439 27.4515 14.4202C27.7154 14.0432 28.3658 13.4871 29.4025 12.7519C29.8361 12.4503 30.1942 12.1487 30.477 11.8471C30.7598 11.5455 31.0425 11.3005 31.3253 11.112C31.4195 11.0743 31.5232 11.0177 31.6363 10.9423C31.7494 10.8669 31.8719 10.7632 32.0039 10.6313H32.0321C32.5411 10.3674 33.0878 10.0752 33.6721 9.75476C34.2565 9.41545 34.8691 9.03845 35.51 8.62374C35.5666 8.58604 35.642 8.58604 35.7362 8.62374C36.5845 8.32214 37.1688 8.17134 37.4893 8.17134C37.8097 8.17134 37.97 8.31271 37.97 8.59547C37.97 8.65202 37.9417 8.79339 37.8851 9.0196C37.8474 9.2458 37.7626 9.46258 37.6307 9.66993C37.5176 9.87728 37.3479 9.98096 37.1217 9.98096H35.8776C35.2555 10.226 34.5863 10.4899 33.87 10.7727C33.1726 11.0366 32.4468 11.4419 31.6928 11.9885H31.6646C28.8936 13.817 26.8201 15.7491 25.444 17.785C25.4251 17.8792 25.3874 17.9923 25.3309 18.1243C25.2743 18.2562 25.2084 18.4164 25.133 18.6049C24.8502 19.095 24.4544 19.3684 23.9454 19.4249Z" fill="#161A2D"/>
<path d="M0.890673 21.716C0.66447 21.716 0.551369 21.5369 0.551369 21.1788C0.551369 20.9903 0.60792 20.6227 0.721021 20.076C0.852973 19.5294 1.06975 18.9639 1.37135 18.3795C1.50331 18.1156 1.67296 17.7763 1.88031 17.3616C2.10651 16.9469 2.33272 16.5228 2.55892 16.0892C2.78512 15.6556 2.99247 15.2598 3.18098 14.9016C3.38833 14.5435 3.54856 14.2796 3.66166 14.1099C3.88786 13.7518 4.14234 13.3559 4.42509 12.9224C4.7267 12.4888 5.01887 12.0741 5.30163 11.6782C5.60323 11.2635 5.85771 10.9148 6.06506 10.6321C6.29127 10.3493 6.42322 10.1797 6.46092 10.1231C6.46092 10.0854 6.52689 9.99115 6.65884 9.84035C6.7908 9.6707 6.93217 9.49162 7.08298 9.30312C7.25263 9.09577 7.394 8.91669 7.50711 8.76589C7.63906 8.61509 7.70503 8.53969 7.70503 8.53969C7.93123 8.23808 8.20456 7.89878 8.52502 7.52177C8.86432 7.12592 9.1942 6.73006 9.51466 6.33421C9.85396 5.93836 10.1461 5.59905 10.3912 5.3163C10.4854 5.18435 10.6268 4.94872 10.8153 4.60941C11.0227 4.25126 11.1923 4.00621 11.3243 3.87426C11.4562 3.76115 11.607 3.61035 11.7767 3.42185C11.9652 3.2145 12.1348 3.07312 12.2856 2.99772L12.3987 2.94117C11.5693 2.96002 10.787 3.01657 10.0519 3.11082C9.33558 3.18622 8.65697 3.29932 8.01606 3.45012C7.71446 3.52552 7.45055 3.61035 7.22435 3.7046C6.99815 3.78 6.7531 3.86483 6.48919 3.95908C6.26299 4.03448 6.02736 4.10988 5.78231 4.18528C5.53726 4.24183 5.31105 4.31723 5.1037 4.41149C4.19889 4.82619 3.52028 5.26917 3.06787 5.74043C2.63432 6.21168 2.41754 6.57926 2.41754 6.84317V6.92799C2.41754 7.05994 2.43639 7.1919 2.47409 7.32385C2.53064 7.4558 2.61547 7.47465 2.72857 7.3804C2.82282 7.32385 2.89822 7.29557 2.95477 7.29557C3.12443 7.29557 3.20925 7.3804 3.20925 7.55005C3.20925 7.682 3.13385 7.7951 2.98305 7.88935C2.83225 8.0213 2.61547 8.13441 2.33272 8.22866C2.04996 8.32291 1.86146 8.37003 1.76721 8.37003C1.37135 8.37003 1.0132 8.36061 0.692746 8.34176C0.372292 8.30406 0.146089 8.18153 0.0141376 7.97418C-0.00471253 7.84223 -0.00471253 7.67258 0.0141376 7.46522C0.0518381 7.25787 0.136664 7.03167 0.268616 6.78662C0.306316 6.74891 0.315741 6.67351 0.296891 6.56041C0.296891 6.44731 0.334592 6.35306 0.409993 6.27766H0.381717C0.457118 6.18341 0.541944 6.13628 0.636195 6.13628C0.749297 6.11743 0.815273 6.08916 0.834123 6.05146C1.38078 5.3917 2.28559 4.72251 3.54856 4.04391C4.81152 3.34645 6.49862 2.84692 8.60984 2.54531C8.70409 2.52646 8.80777 2.51704 8.92087 2.51704C9.05282 2.51704 9.07168 2.51704 8.97742 2.51704H8.94915C8.91145 2.51704 9.0057 2.49819 9.2319 2.46049C9.47695 2.42279 9.73143 2.38509 9.99534 2.34739C10.2592 2.29083 10.41 2.26256 10.4477 2.26256C10.8436 2.20601 11.1829 2.17773 11.4657 2.17773C11.805 2.17773 12.1443 2.19658 12.4836 2.23428C12.8229 2.27199 13.2753 2.30026 13.8408 2.31911C16.1217 2.35681 18.0727 2.63956 19.6938 3.16737C21.3149 3.69518 22.5496 4.42091 23.3979 5.34457C24.265 6.24938 24.6985 7.305 24.6985 8.51141C24.6985 9.24657 24.5289 10.0194 24.1896 10.83C23.8691 11.6406 23.3602 12.4888 22.6627 13.3748C21.8144 14.4492 20.9002 15.3352 19.92 16.0327C18.9586 16.7301 18.0067 17.3239 17.0642 17.814C16.1217 18.2853 15.264 18.7471 14.4911 19.1995C13.756 19.633 12.9454 19.9818 12.0594 20.2457C11.1735 20.5284 10.3346 20.7358 9.54293 20.8677C8.75122 21.0185 8.13859 21.1316 7.70503 21.207C6.91332 21.3201 6.14046 21.3767 5.38645 21.3767C4.8398 21.3767 4.34969 21.3484 3.91614 21.2919C3.50143 21.2353 3.1904 21.1411 2.98305 21.0091C2.71915 20.8583 2.58719 20.6038 2.58719 20.2457C2.58719 20.0383 2.63432 19.8593 2.72857 19.7085C2.84167 19.5576 2.99247 19.4822 3.18098 19.4822C3.42603 19.4822 3.68993 19.6142 3.97269 19.8781C4.16119 20.0478 4.41567 20.1609 4.73612 20.2174C5.05657 20.2928 5.35818 20.3305 5.64093 20.3305C5.94254 20.3305 6.13104 20.3305 6.20644 20.3305C6.28184 20.3494 6.36667 20.3588 6.46092 20.3588C6.55517 20.3588 6.64942 20.3588 6.74367 20.3588C7.13953 20.3588 7.61078 20.3211 8.15744 20.2457C8.72295 20.1703 9.29788 20.076 9.88224 19.9629C10.4666 19.8498 11.0038 19.7273 11.4939 19.5953C11.984 19.4634 12.3705 19.3314 12.6532 19.1995C14.7267 18.2004 16.4421 17.2485 17.7993 16.3437C19.1565 15.4389 20.2404 14.4115 21.051 13.2617C21.4846 12.6773 21.805 12.0364 22.0124 11.3389C22.2386 10.6415 22.3517 9.94403 22.3517 9.24657C22.3517 8.69991 22.2857 8.17211 22.1537 7.66315C22.0218 7.13534 21.7956 6.63581 21.4751 6.16456C21.1924 5.71215 20.7211 5.28802 20.0614 4.89217C19.4205 4.47746 18.6664 4.11931 17.7993 3.8177C16.9322 3.49725 16.0086 3.26162 15.0283 3.11082C14.9906 3.37472 14.8964 3.67633 14.7456 4.01563C14.5948 4.35494 14.3309 4.68481 13.9539 5.00527C13.7277 5.21262 13.4355 5.41997 13.0773 5.62733C12.738 5.81583 12.493 6.01376 12.3422 6.22111C12.2102 6.42846 11.9746 6.65466 11.6353 6.89972C11.3149 7.14477 10.9944 7.37097 10.6739 7.57832C10.3723 7.78568 10.165 7.95533 10.0519 8.08728C9.97649 8.18153 9.82568 8.36061 9.59948 8.62451C9.39213 8.88842 9.1565 9.18059 8.8926 9.50105C8.64754 9.8215 8.42134 10.1137 8.21399 10.3776C8.00664 10.6415 7.86526 10.8206 7.78986 10.9148C7.14895 11.6877 6.66827 12.3097 6.34782 12.781C6.04621 13.2334 5.82943 13.5821 5.69748 13.8272C5.58438 14.0722 5.49013 14.2607 5.41473 14.3927H5.38645C5.2545 14.6377 5.01887 14.8828 4.67957 15.1278C4.34027 15.354 4.12349 15.552 4.02924 15.7216C3.89729 16.0232 3.69936 16.3814 3.43545 16.7961C3.17155 17.1919 3.01132 17.4935 2.95477 17.7009C2.89822 17.8329 2.738 18.0873 2.47409 18.4643C2.21019 18.8413 1.99341 19.388 1.82376 20.1043C1.69181 20.6887 1.53158 21.1034 1.34308 21.3484C1.17343 21.5935 1.02262 21.716 0.890673 21.716Z" fill="#161A2D"/>
</svg>
