<svg width="150" height="150" viewBox="0 0 150 150" fill="none" xmlns="http://www.w3.org/2000/svg">
<circle cx="75" cy="75" r="75" fill="#316DFF"/>
<path d="M80.8786 10.9672L80.2742 21.5059L78.3652 21.3964L78.8629 12.7154L78.8012 12.7119L76.2461 14.1451L76.3464 12.3956L79.0621 10.8631L80.8786 10.9672Z" fill="white"/>
<path d="M85.735 22.5315C85.0611 22.3966 84.4833 22.1496 84.0015 21.7904C83.5204 21.4278 83.1676 20.9927 82.9433 20.4853C82.7223 19.9785 82.659 19.4367 82.7534 18.8598L84.5729 19.2239C84.5216 19.6552 84.6358 20.039 84.9154 20.3753C85.1957 20.7082 85.5701 20.9215 86.0384 21.0152C86.4057 21.0887 86.7493 21.0699 87.0695 20.9587C87.3896 20.8476 87.6622 20.6586 87.8873 20.3917C88.1124 20.1249 88.2617 19.7991 88.3352 19.4143C88.4167 19.0241 88.4036 18.6606 88.2958 18.3236C88.188 17.9866 88.0048 17.7029 87.746 17.4724C87.4879 17.2386 87.1685 17.0835 86.7878 17.0074C86.4785 16.942 86.1621 16.9382 85.8386 16.9961C85.5151 17.0541 85.2466 17.1615 85.033 17.3185L83.3955 16.7018L85.0042 11.4729L91.0084 12.6743L90.6949 14.2411L86.2423 13.3501L85.395 16.0348L85.4556 16.0469C85.6928 15.8596 86.0015 15.7269 86.3816 15.6488C86.7623 15.5673 87.1616 15.5683 87.5794 15.6519C88.2061 15.7773 88.7358 16.0375 89.1684 16.4324C89.6016 16.824 89.9082 17.3058 90.0881 17.878C90.268 18.4501 90.2915 19.0681 90.1587 19.7319C90.0218 20.4158 89.7414 20.994 89.3175 21.4664C88.8976 21.936 88.3774 22.2682 87.7567 22.4629C87.1401 22.6549 86.4662 22.6778 85.735 22.5315Z" fill="white"/>
<path d="M94.1393 24.1731L96.7587 17.538L98.2641 18.1323L95.6447 24.7674L94.1393 24.1731ZM92.587 20.5957L93.1813 19.0903L99.8164 21.7097L99.2221 23.2151L92.587 20.5957Z" fill="white"/>
<path d="M109.644 20.7891L111.384 22.0683L110.698 27.3603L110.781 27.4213L115.628 25.1886L117.368 26.4679L110.354 29.5253L108.022 32.698L106.485 31.5683L108.818 28.3957L109.644 20.7891Z" fill="white"/>
<path d="M113.465 37.8626C112.913 37.2923 112.554 36.6851 112.39 36.0409C112.23 35.3967 112.261 34.7521 112.483 34.1068C112.708 33.4592 113.117 32.8474 113.712 32.2714C114.297 31.7049 114.918 31.3189 115.575 31.1133C116.237 30.9077 116.886 30.8866 117.523 31.05C118.162 31.2111 118.744 31.5631 119.27 32.1063C119.609 32.4568 119.873 32.8426 120.06 33.2636C120.253 33.6847 120.348 34.1285 120.345 34.595C120.345 35.064 120.23 35.5433 120.001 36.0329C119.774 36.5201 119.412 37.0051 118.913 37.4879L118.502 37.8859L113.988 33.2236L114.892 32.3488L118.162 35.7261C118.416 35.4751 118.59 35.1984 118.685 34.8962C118.783 34.5916 118.795 34.2856 118.722 33.9783C118.652 33.6734 118.492 33.3925 118.244 33.1358C117.978 32.8617 117.679 32.6856 117.345 32.6073C117.013 32.5266 116.684 32.5322 116.356 32.6241C116.034 32.716 115.745 32.8839 115.488 33.1276L114.699 33.8912C114.368 34.2115 114.143 34.5468 114.023 34.8972C113.906 35.2453 113.889 35.5889 113.974 35.928C114.061 36.2648 114.245 36.5788 114.527 36.8701C114.716 37.0651 114.914 37.2154 115.121 37.3208C115.331 37.4238 115.546 37.4808 115.767 37.4916C115.988 37.5025 116.208 37.4599 116.425 37.3638L117.496 38.7517C117.089 38.993 116.655 39.122 116.193 39.1388C115.735 39.1557 115.273 39.0583 114.805 38.8466C114.339 38.6325 113.893 38.3045 113.465 37.8626Z" fill="white"/>
<path d="M118.402 43.7895C118.116 43.3775 117.932 42.9554 117.849 42.5233C117.772 42.092 117.811 41.6795 117.969 41.2856C118.128 40.8947 118.421 40.5512 118.847 40.2552C119.214 40.0003 119.564 39.8573 119.898 39.8262C120.232 39.795 120.553 39.8466 120.859 39.9809C121.166 40.1151 121.458 40.3035 121.735 40.5461C122.017 40.7895 122.285 41.0575 122.538 41.35C122.842 41.7036 123.092 41.9881 123.288 42.2036C123.486 42.4171 123.657 42.554 123.799 42.6142C123.946 42.6753 124.093 42.6548 124.24 42.5529L124.265 42.5353C124.584 42.3138 124.765 42.0477 124.809 41.7371C124.852 41.4264 124.751 41.0933 124.504 40.7377C124.243 40.3624 123.954 40.1215 123.638 40.0151C123.323 39.9114 123.028 39.899 122.752 39.9776L121.961 38.4056C122.435 38.2441 122.895 38.201 123.34 38.2764C123.789 38.3498 124.21 38.5281 124.603 38.8113C124.999 39.0926 125.355 39.4604 125.671 39.9148C125.888 40.2281 126.068 40.5654 126.21 40.9268C126.353 41.2882 126.428 41.6561 126.437 42.0306C126.449 42.403 126.365 42.7669 126.185 43.122C126.007 43.48 125.702 43.809 125.27 44.1089L120.918 47.1316L119.895 45.6584L120.788 45.038L120.753 44.9872C120.508 45.0195 120.247 45.0059 119.972 44.9463C119.701 44.8876 119.429 44.7646 119.157 44.5772C118.889 44.3908 118.638 44.1282 118.402 43.7895ZM119.805 43.4053C120.019 43.7129 120.265 43.9375 120.543 44.079C120.824 44.2185 121.108 44.2784 121.395 44.2586C121.685 44.2416 121.95 44.1498 122.189 43.9832L122.956 43.451C122.883 43.4305 122.789 43.3741 122.675 43.2819C122.563 43.1926 122.445 43.0861 122.322 42.9627C122.198 42.8392 122.078 42.7152 121.963 42.5906C121.847 42.4661 121.747 42.3579 121.662 42.2661C121.472 42.059 121.279 41.8897 121.083 41.7581C120.887 41.6265 120.689 41.5526 120.49 41.5364C120.293 41.5182 120.096 41.5777 119.899 41.7149C119.616 41.911 119.475 42.162 119.474 42.468C119.473 42.774 119.583 43.0864 119.805 43.4053Z" fill="white"/>
<path d="M121.855 48.8904L128.896 45.2706L129.723 46.8796L128.549 47.4829L128.587 47.5562C129.06 47.4756 129.486 47.5346 129.866 47.7332C130.251 47.9333 130.547 48.235 130.755 48.6384C130.802 48.7301 130.85 48.8348 130.899 48.9526C130.952 49.0718 130.991 49.1736 131.015 49.2579L129.489 50.0426C129.477 49.9598 129.441 49.8372 129.381 49.675C129.325 49.5143 129.261 49.3636 129.189 49.223C129.033 48.9205 128.828 48.6823 128.572 48.5084C128.322 48.336 128.046 48.24 127.746 48.2203C127.446 48.2006 127.147 48.2678 126.847 48.4217L122.708 50.5498L121.855 48.8904Z" fill="white"/>
<path d="M132.027 57.949L131.275 56.4123C131.42 56.3087 131.543 56.1746 131.645 56.0101C131.747 55.8489 131.808 55.6588 131.828 55.4398C131.847 55.2209 131.808 54.9756 131.71 54.7042C131.578 54.339 131.388 54.0606 131.14 53.8689C130.893 53.6805 130.644 53.6335 130.393 53.7278C130.175 53.8028 130.027 53.9456 129.95 54.1562C129.874 54.37 129.86 54.6818 129.91 55.0914L130.097 56.4596C130.2 57.219 130.148 57.8295 129.942 58.2911C129.737 58.756 129.369 59.0864 128.837 59.2822C128.367 59.4483 127.904 59.4604 127.447 59.3185C126.995 59.1787 126.582 58.9058 126.209 58.4999C125.836 58.094 125.537 57.5808 125.313 56.9603C124.984 56.0489 124.909 55.2464 125.09 54.5528C125.274 53.858 125.689 53.3335 126.335 52.9794L127.118 54.6311C126.81 54.83 126.616 55.0865 126.536 55.4005C126.456 55.7144 126.489 56.0734 126.634 56.4773C126.785 56.8942 126.992 57.1978 127.254 57.388C127.517 57.5814 127.775 57.6326 128.027 57.5416C128.241 57.4645 128.387 57.3185 128.466 57.1034C128.547 56.8917 128.563 56.6011 128.513 56.2316L128.321 54.8652C128.212 54.0973 128.271 53.4784 128.5 53.0086C128.731 52.5376 129.119 52.2057 129.663 52.0128C130.121 51.8438 130.564 51.8246 130.991 51.9553C131.422 52.088 131.812 52.3473 132.16 52.7332C132.512 53.1212 132.795 53.6125 133.01 54.2071C133.325 55.0797 133.387 55.8336 133.197 56.4688C133.007 57.1072 132.617 57.6006 132.027 57.949Z" fill="white"/>
<path d="M127.913 65.8746L138.408 64.7441L139.143 71.5701L137.55 71.7418L137.019 66.817L134.17 67.1239L134.662 71.6951L133.069 71.8668L132.576 67.2956L129.712 67.6042L130.246 72.5699L128.653 72.7416L127.913 65.8746Z" fill="white"/>
<path d="M136.483 76.8646L133.482 78.3111L136.318 80.0818L136.217 82.0533L132.386 79.4679L128.309 81.6903L128.409 79.7291L131.341 78.2016L128.579 76.3986L128.68 74.422L132.51 77.0331L136.584 74.8879L136.483 76.8646Z" fill="white"/>
<path d="M127.253 86.1877C127.414 85.4139 127.722 84.7847 128.177 84.3001C128.631 83.8189 129.189 83.4907 129.85 83.3155C130.514 83.1445 131.237 83.1403 132.021 83.303C132.809 83.4664 133.472 83.762 134.011 84.1899C134.554 84.6184 134.936 85.1434 135.158 85.765C135.383 86.3907 135.417 87.082 135.259 87.839C135.129 88.4682 134.897 89.0009 134.564 89.4372C134.234 89.8776 133.829 90.1988 133.348 90.4008C132.871 90.6036 132.349 90.6672 131.782 90.5916L132.145 88.8455C132.533 88.8523 132.879 88.7487 133.183 88.5346C133.49 88.3245 133.689 87.9991 133.781 87.5584C133.858 87.1849 133.825 86.8359 133.682 86.5114C133.542 86.1876 133.302 85.9079 132.961 85.6722C132.62 85.4399 132.189 85.2697 131.667 85.1614C131.139 85.0518 130.669 85.0349 130.256 85.1108C129.847 85.1873 129.511 85.3439 129.248 85.5805C128.988 85.8213 128.818 86.1317 128.739 86.5119C128.683 86.7811 128.684 87.0321 128.741 87.265C128.8 87.502 128.912 87.713 129.078 87.8982C129.243 88.0834 129.459 88.2319 129.727 88.3437L129.365 90.0898C128.826 89.9323 128.373 89.6699 128.007 89.3026C127.644 88.9361 127.394 88.4874 127.255 87.9567C127.119 87.4267 127.119 86.8371 127.253 86.1877Z" fill="white"/>
<path d="M124.755 94.515C125.041 93.7747 125.442 93.1948 125.958 92.7753C126.476 92.3603 127.074 92.1183 127.753 92.0492C128.435 91.9813 129.162 92.0967 129.935 92.3954C130.694 92.6891 131.305 93.0911 131.767 93.6014C132.231 94.1161 132.523 94.6966 132.641 95.3429C132.763 95.9905 132.687 96.6668 132.415 97.3719C132.239 97.827 131.999 98.228 131.695 98.5748C131.394 98.926 131.031 99.1982 130.606 99.3914C130.18 99.5877 129.697 99.6846 129.156 99.6819C128.619 99.6804 128.027 99.5545 127.379 99.3042L126.846 99.0978L129.186 93.0454L130.359 93.4989L128.664 97.8833C128.998 98.0089 129.323 98.0515 129.637 98.0108C129.954 97.9714 130.237 97.8543 130.485 97.6593C130.733 97.4676 130.921 97.2051 131.05 96.8717C131.187 96.516 131.222 96.1701 131.153 95.8339C131.087 95.499 130.944 95.2024 130.723 94.9439C130.504 94.6899 130.231 94.4975 129.902 94.3666L128.878 93.9707C128.448 93.8046 128.05 93.7406 127.681 93.7787C127.316 93.818 126.997 93.9471 126.725 94.1659C126.455 94.386 126.247 94.6851 126.101 95.0633C126.003 95.3165 125.95 95.5593 125.941 95.7916C125.936 96.0252 125.974 96.2446 126.057 96.4498C126.14 96.655 126.27 96.8363 126.449 96.9937L125.638 98.548C125.248 98.2794 124.949 97.9389 124.74 97.5265C124.533 97.1186 124.427 96.6578 124.423 96.1442C124.423 95.6318 124.533 95.0887 124.755 94.515Z" fill="white"/>
<path d="M131.227 105.915L121.893 100.984L122.765 99.3347L132.098 104.266L131.227 105.915Z" fill="white"/>
<path d="M128.98 109.688L120.006 104.13L120.988 102.544L129.962 108.102L128.98 109.688Z" fill="white"/>
<path d="M116.71 108.423C117.203 107.801 117.758 107.367 118.375 107.119C118.993 106.877 119.636 106.823 120.305 106.959C120.976 107.097 121.637 107.423 122.285 107.938C122.923 108.444 123.387 109.009 123.677 109.633C123.967 110.263 124.073 110.904 123.994 111.556C123.918 112.21 123.645 112.834 123.175 113.426C122.872 113.808 122.524 114.12 122.131 114.361C121.739 114.607 121.311 114.759 120.848 114.817C120.383 114.878 119.893 114.827 119.378 114.664C118.865 114.503 118.337 114.207 117.793 113.776L117.345 113.42L121.377 108.336L122.363 109.117L119.442 112.8C119.724 113.02 120.021 113.157 120.333 113.211C120.648 113.268 120.953 113.24 121.248 113.128C121.541 113.018 121.799 112.823 122.021 112.543C122.258 112.244 122.393 111.924 122.427 111.583C122.464 111.243 122.415 110.918 122.281 110.605C122.148 110.298 121.944 110.033 121.669 109.81L120.808 109.128C120.448 108.842 120.086 108.662 119.723 108.589C119.362 108.518 119.019 108.547 118.694 108.675C118.372 108.805 118.085 109.029 117.833 109.346C117.664 109.559 117.541 109.775 117.463 109.994C117.389 110.216 117.36 110.437 117.378 110.657C117.397 110.878 117.467 111.09 117.591 111.293L116.355 112.536C116.063 112.164 115.878 111.75 115.801 111.294C115.725 110.843 115.761 110.372 115.909 109.88C116.061 109.391 116.328 108.905 116.71 108.423Z" fill="white"/>
<path d="M115.107 117.267L111.994 113.828L113.377 112.576L118.69 118.445L117.368 119.642L116.465 118.645L116.396 118.707C116.559 119.158 116.58 119.614 116.46 120.075C116.337 120.538 116.057 120.968 115.618 121.365C115.213 121.732 114.782 121.964 114.325 122.063C113.865 122.164 113.403 122.126 112.94 121.947C112.475 121.771 112.031 121.447 111.609 120.976L108.226 117.239L109.609 115.987L112.799 119.51C113.154 119.902 113.534 120.117 113.938 120.154C114.34 120.193 114.719 120.052 115.076 119.729C115.318 119.51 115.485 119.261 115.576 118.984C115.668 118.711 115.677 118.427 115.604 118.131C115.529 117.838 115.363 117.55 115.107 117.267Z" fill="white"/>
<path d="M103.621 120.179C104.286 119.751 104.95 119.53 105.615 119.514C106.277 119.501 106.902 119.668 107.49 120.017C108.077 120.37 108.588 120.883 109.021 121.556C109.457 122.232 109.711 122.912 109.785 123.597C109.86 124.284 109.753 124.925 109.466 125.519C109.177 126.118 108.708 126.627 108.058 127.045C107.518 127.393 106.976 127.602 106.431 127.671C105.886 127.744 105.373 127.68 104.892 127.479C104.413 127.281 104.001 126.954 103.657 126.496L105.157 125.53C105.424 125.812 105.74 125.986 106.106 126.053C106.471 126.124 106.843 126.038 107.221 125.794C107.542 125.588 107.768 125.319 107.899 124.99C108.031 124.663 108.062 124.296 107.992 123.888C107.918 123.481 107.737 123.054 107.448 122.607C107.156 122.153 106.838 121.806 106.495 121.565C106.154 121.327 105.806 121.198 105.453 121.176C105.099 121.159 104.758 121.256 104.432 121.466C104.201 121.615 104.022 121.791 103.896 121.995C103.769 122.204 103.697 122.432 103.681 122.68C103.665 122.927 103.711 123.186 103.819 123.455L102.32 124.421C102.054 123.926 101.924 123.419 101.929 122.901C101.936 122.385 102.08 121.892 102.361 121.421C102.644 120.952 103.064 120.539 103.621 120.179Z" fill="white"/>
<path d="M95.9473 124.235C96.6755 123.919 97.3701 123.798 98.0309 123.871C98.69 123.948 99.2824 124.204 99.8081 124.639C100.335 125.077 100.763 125.676 101.093 126.436C101.417 127.183 101.559 127.901 101.52 128.588C101.479 129.28 101.27 129.895 100.893 130.433C100.517 130.974 99.9827 131.395 99.2892 131.696C98.8415 131.89 98.3876 132.001 97.9275 132.028C97.4656 132.06 97.0169 131.992 96.5812 131.825C96.1424 131.66 95.7342 131.383 95.3567 130.996C94.9806 130.613 94.6545 130.102 94.3784 129.466L94.1508 128.941L100.104 126.359L100.605 127.513L96.292 129.383C96.4373 129.71 96.6347 129.97 96.8841 130.166C97.1349 130.364 97.417 130.483 97.7303 130.523C98.0404 130.565 98.3594 130.515 98.6873 130.372C99.0372 130.221 99.3077 130.002 99.4987 129.717C99.6911 129.435 99.8019 129.125 99.8311 128.787C99.8586 128.453 99.8035 128.123 99.6658 127.797L99.2291 126.789C99.0459 126.367 98.8115 126.038 98.5258 125.802C98.2414 125.57 97.9257 125.433 97.5785 125.393C97.2328 125.355 96.8739 125.417 96.5019 125.579C96.2528 125.687 96.0425 125.819 95.8708 125.976C95.7004 126.136 95.5713 126.317 95.4832 126.52C95.3952 126.723 95.3578 126.944 95.371 127.181L93.6947 127.695C93.6124 127.228 93.6448 126.776 93.7918 126.338C93.9371 125.904 94.1912 125.506 94.5542 125.142C94.9186 124.782 95.383 124.479 95.9473 124.235Z" fill="white"/>
<path d="M85.4423 132.357L85.6902 134.434L87.2149 132.996L88.025 133.962L86.3466 135.212L88.3527 135.809L87.9245 136.995L85.9982 136.169L86.4796 138.204L85.2464 138.423L84.9933 136.348L83.4686 137.785L82.6586 136.819L84.342 135.568L82.3308 134.972L82.7591 133.786L84.6854 134.612L84.2091 132.576L85.4423 132.357Z" fill="white"/>
<path d="M70.5748 139.149L70.9022 128.598L72.8135 128.658L72.5438 137.349L72.6056 137.351L75.1222 135.851L75.0679 137.602L72.3934 139.206L70.5748 139.149Z" fill="white"/>
<path d="M65.3814 127.712C66.0586 127.829 66.6427 128.061 67.1337 128.408C67.6241 128.758 67.988 129.183 68.2255 129.685C68.4596 130.186 68.537 130.726 68.4576 131.305L66.6293 130.988C66.6693 130.556 66.5452 130.175 66.2569 129.846C65.968 129.52 65.5883 129.317 65.1176 129.235C64.7486 129.172 64.4055 129.199 64.0884 129.319C63.7713 129.438 63.5037 129.634 63.2856 129.907C63.0675 130.18 62.9268 130.509 62.8633 130.896C62.7919 131.288 62.8145 131.651 62.931 131.985C63.0476 132.319 63.2382 132.598 63.5028 132.822C63.7669 133.049 64.0902 133.195 64.4728 133.262C64.7837 133.319 65.1001 133.314 65.422 133.248C65.7438 133.182 66.0095 133.067 66.219 132.905L67.872 133.479L66.3999 138.748L60.3664 137.703L60.639 136.129L65.1134 136.903L65.8905 134.197L65.8296 134.187C65.5973 134.38 65.2922 134.521 64.9143 134.609C64.5358 134.7 64.1366 134.71 63.7168 134.637C63.087 134.528 62.5508 134.282 62.108 133.898C61.6647 133.518 61.3457 133.044 61.151 132.477C60.9563 131.91 60.9167 131.293 61.0322 130.626C61.1512 129.938 61.4164 129.353 61.8279 128.87C62.2354 128.389 62.7469 128.044 63.3622 127.833C63.9737 127.625 64.6467 127.585 65.3814 127.712Z" fill="white"/>
<path d="M56.9485 126.295L54.5046 132.997L52.9841 132.442L55.428 125.74L56.9485 126.295ZM58.5944 129.83L58.0399 131.351L51.3382 128.907L51.8926 127.386L58.5944 129.83Z" fill="white"/>
<path d="M41.5469 130.09L39.7739 128.857L40.3203 123.549L40.2357 123.49L35.4494 125.849L33.6764 124.616L40.6076 121.375L42.8561 118.142L44.4217 119.231L42.1732 122.464L41.5469 130.09Z" fill="white"/>
<path d="M37.2773 113.121C37.8441 113.677 38.2182 114.275 38.3995 114.914C38.5759 115.554 38.5616 116.199 38.3567 116.85C38.1494 117.503 37.7558 118.126 37.1761 118.717C36.606 119.298 35.9952 119.701 35.3438 119.923C34.6875 120.146 34.0391 120.184 33.3986 120.037C32.7557 119.893 32.1643 119.556 31.6245 119.027C31.2761 118.686 31.0026 118.307 30.8041 117.891C30.6007 117.475 30.4943 117.034 30.4848 116.567C30.4729 116.098 30.575 115.616 30.7912 115.121C31.005 114.628 31.3548 114.134 31.8408 113.638L32.2413 113.229L36.8751 117.772L35.9947 118.67L32.638 115.38C32.3903 115.637 32.223 115.918 32.1361 116.223C32.0468 116.53 32.0426 116.836 32.1234 117.142C32.2017 117.444 32.3685 117.721 32.6236 117.971C32.896 118.238 33.2002 118.407 33.5362 118.476C33.8698 118.548 34.1989 118.534 34.5235 118.433C34.8433 118.333 35.1282 118.158 35.3785 117.907L36.147 117.123C36.4694 116.795 36.6859 116.454 36.7966 116.1C36.9049 115.749 36.9124 115.405 36.8192 115.068C36.7235 114.734 36.5309 114.425 36.2414 114.141C36.0475 113.951 35.8456 113.806 35.6357 113.706C35.4233 113.609 35.2065 113.557 34.9854 113.552C34.7642 113.547 34.546 113.595 34.3307 113.697L33.2238 112.338C33.6247 112.086 34.0558 111.946 34.5172 111.917C34.9737 111.888 35.4387 111.973 35.912 112.173C36.383 112.374 36.8381 112.691 37.2773 113.121Z" fill="white"/>
<path d="M32.1884 107.326C32.4853 107.73 32.6808 108.148 32.7747 108.577C32.8638 109.006 32.8349 109.42 32.6879 109.818C32.5388 110.213 32.2552 110.564 31.837 110.871C31.4769 111.135 31.1304 111.287 30.7973 111.327C30.4643 111.367 30.1427 111.324 29.8327 111.198C29.5226 111.072 29.2258 110.891 28.9423 110.656C28.654 110.42 28.3793 110.159 28.1183 109.873C27.805 109.528 27.5477 109.25 27.3464 109.04C27.1423 108.832 26.9684 108.699 26.8247 108.643C26.6761 108.586 26.5298 108.61 26.3858 108.716L26.3609 108.734C26.0479 108.964 25.8737 109.234 25.8382 109.546C25.8027 109.858 25.9131 110.188 26.1694 110.537C26.4398 110.905 26.7347 111.139 27.054 111.237C27.3712 111.332 27.6667 111.337 27.9404 111.251L28.7721 112.802C28.303 112.976 27.8447 113.031 27.3973 112.967C26.947 112.905 26.5216 112.738 26.1209 112.465C25.7175 112.195 25.3521 111.836 25.0246 111.39C24.7989 111.083 24.6102 110.75 24.4585 110.393C24.3068 110.035 24.2215 109.67 24.2026 109.295C24.181 108.923 24.2555 108.558 24.4261 108.198C24.5948 107.835 24.891 107.498 25.3147 107.187L29.5856 104.051L30.6472 105.497L29.7706 106.141L29.8072 106.191C30.0516 106.152 30.3123 106.159 30.5895 106.211C30.8618 106.262 31.1365 106.378 31.4138 106.558C31.6862 106.738 31.9444 106.994 32.1884 107.326ZM30.7965 107.747C30.5749 107.445 30.3231 107.227 30.0413 107.093C29.7568 106.961 29.4711 106.908 29.1842 106.936C28.8953 106.96 28.6331 107.059 28.3977 107.232L27.6457 107.784C27.7191 107.803 27.8141 107.857 27.9307 107.946C28.0453 108.032 28.1659 108.135 28.2925 108.256C28.4191 108.376 28.5419 108.497 28.661 108.618C28.78 108.74 28.883 108.845 28.9701 108.935C29.1653 109.137 29.3626 109.301 29.562 109.427C29.7614 109.554 29.961 109.622 30.1609 109.633C30.358 109.646 30.5535 109.582 30.7474 109.439C31.0244 109.236 31.1593 108.981 31.1521 108.675C31.1449 108.369 31.0264 108.06 30.7965 107.747Z" fill="white"/>
<path d="M28.6025 102.317L21.6595 106.121L20.7902 104.535L21.9473 103.901L21.9077 103.828C21.4376 103.921 21.0098 103.874 20.6244 103.685C20.2344 103.495 19.9304 103.201 19.7124 102.804C19.6629 102.713 19.6121 102.61 19.56 102.493C19.5033 102.376 19.4618 102.275 19.4356 102.191L20.9409 101.367C20.9547 101.449 20.9939 101.571 21.0584 101.731C21.1182 101.89 21.1861 102.039 21.262 102.178C21.4255 102.476 21.6372 102.709 21.8973 102.876C22.1526 103.042 22.4304 103.131 22.7308 103.142C23.0311 103.154 23.3289 103.079 23.6242 102.917L27.7059 100.681L28.6025 102.317Z" fill="white"/>
<path d="M18.1906 93.5211L18.9832 95.0374C18.8407 95.1448 18.721 95.2821 18.624 95.4491C18.5258 95.613 18.4698 95.8047 18.456 96.0241C18.4423 96.2435 18.488 96.4876 18.5931 96.7564C18.7346 97.118 18.932 97.3913 19.1852 97.5763C19.4372 97.7582 19.6873 97.7986 19.9357 97.6978C20.1513 97.6171 20.295 97.4704 20.3668 97.2579C20.4373 97.0421 20.4426 96.7301 20.3825 96.3219L20.1592 94.9591C20.0366 94.2027 20.0721 93.591 20.2658 93.1241C20.4582 92.654 20.8178 92.3141 21.3445 92.1043C21.8097 91.9259 22.2726 91.9016 22.7329 92.0314C23.1888 92.1593 23.6087 92.4212 23.9924 92.8171C24.3761 93.2131 24.6881 93.7183 24.9285 94.3327C25.2817 95.235 25.3771 96.0353 25.2149 96.7334C25.0495 97.4328 24.6482 97.968 24.0112 98.3391L23.1849 96.7086C23.4877 96.5016 23.675 96.2401 23.747 95.9241C23.8189 95.6082 23.7766 95.2502 23.6201 94.8502C23.4585 94.4374 23.2441 94.1394 22.9769 93.9562C22.7084 93.7697 22.4493 93.7254 22.1997 93.823C21.9885 93.9057 21.8461 94.0555 21.7723 94.2726C21.6973 94.4864 21.6894 94.7773 21.7485 95.1453L21.9766 96.5062C22.1062 97.2709 22.0629 97.8912 21.8468 98.3668C21.6276 98.8438 21.2485 99.1858 20.7097 99.393C20.2565 99.574 19.8148 99.6048 19.3843 99.4854C18.9494 99.3641 18.5531 99.1151 18.1954 98.7385C17.8332 98.36 17.537 97.8763 17.3066 97.2875C16.9685 96.4235 16.8864 95.6715 17.0603 95.0316C17.233 94.3884 17.6097 93.8849 18.1906 93.5211Z" fill="white"/>
<path d="M22.0958 85.4938L11.6338 86.8984L10.7202 80.094L12.3089 79.8807L12.9681 84.7899L15.8083 84.4086L15.1965 79.8519L16.7853 79.6385L17.3971 84.1953L20.2527 83.8119L19.588 78.8618L21.1768 78.6485L22.0958 85.4938Z" fill="white"/>
<path d="M13.2425 74.7564L16.2037 73.2316L13.3225 71.536L13.3714 69.5625L17.2695 72.0464L21.287 69.7177L21.2382 71.6809L18.3472 73.2848L21.1555 75.0147L21.1064 76.9933L17.209 74.4836L13.1934 76.735L13.2425 74.7564Z" fill="white"/>
<path d="M22.2282 65.1582C22.0879 65.9359 21.7966 66.5729 21.3543 67.0693C20.9127 67.5622 20.3638 67.9048 19.7075 68.0971C19.0485 68.2855 18.3251 68.3085 17.5372 68.1663C16.7459 68.0235 16.0751 67.7453 15.5247 67.3317C14.971 66.9175 14.5751 66.4026 14.337 65.787C14.0962 65.1674 14.0444 64.4772 14.1817 63.7164C14.2958 63.084 14.5135 62.5454 14.8347 62.1006C15.1532 61.6518 15.55 61.3201 16.0251 61.1056C16.4969 60.8905 17.0172 60.8133 17.5858 60.874L17.2691 62.629C16.8809 62.6323 16.5376 62.7449 16.2392 62.9669C15.9379 63.1849 15.7474 63.5154 15.6674 63.9583C15.5997 64.3337 15.6416 64.6817 15.7932 65.0024C15.9415 65.3224 16.1889 65.5958 16.5356 65.8225C16.8829 66.0458 17.3186 66.2047 17.8427 66.2993C18.3736 66.3951 18.8442 66.3997 19.2544 66.3131C19.6612 66.226 19.993 66.0606 20.25 65.8172C20.5041 65.5698 20.6657 65.255 20.7346 64.8729C20.7835 64.6024 20.7764 64.3514 20.7134 64.1201C20.6476 63.8847 20.5298 63.6767 20.3599 63.4959C20.19 63.3151 19.9696 63.1723 19.6987 63.0675L20.0155 61.3125C20.5587 61.4559 21.0181 61.7064 21.3935 62.064C21.7655 62.421 22.0279 62.8629 22.1808 63.3898C22.3302 63.9161 22.346 64.5055 22.2282 65.1582Z" fill="white"/>
<path d="M24.5045 56.7791C24.2378 57.5267 23.8522 58.117 23.3475 58.5499C22.8408 58.9784 22.2491 59.2361 21.5723 59.323C20.8923 59.4088 20.1623 59.3126 19.3824 59.0344C18.6153 58.7608 17.9941 58.375 17.5187 57.8771C17.0412 57.3748 16.7347 56.8022 16.5992 56.1592C16.4605 55.515 16.5181 54.837 16.7721 54.125C16.936 53.6654 17.1651 53.2582 17.4595 52.9036C17.7517 52.5445 18.1076 52.2628 18.527 52.0585C18.9476 51.851 19.4281 51.7415 19.9685 51.73C20.5057 51.7173 21.1011 51.8275 21.7549 52.0607L22.2938 52.2529L20.1137 58.365L18.9291 57.9424L20.5084 53.515C20.1706 53.3982 19.8453 53.3642 19.5323 53.4131C19.2161 53.4608 18.9364 53.5854 18.6931 53.7868C18.4509 53.985 18.2698 54.2524 18.1498 54.589C18.0216 54.9482 17.9964 55.295 18.0742 55.6292C18.1488 55.9622 18.2997 56.255 18.527 56.5076C18.7523 56.7557 19.031 56.9409 19.3632 57.063L20.3972 57.4318C20.8309 57.5865 21.2314 57.64 21.5987 57.5922C21.9627 57.5433 22.278 57.4059 22.5447 57.18C22.8081 56.9529 23.0079 56.6484 23.1441 56.2665C23.2353 56.0108 23.2823 55.7667 23.2849 55.5342C23.2844 55.3005 23.24 55.0822 23.1519 54.8793C23.0638 54.6764 22.9283 54.4986 22.7457 54.3459L23.5155 52.7708C23.9122 53.029 24.2204 53.3615 24.4402 53.7682C24.6579 54.1706 24.7755 54.6284 24.793 55.1418C24.8073 55.654 24.7111 56.1998 24.5045 56.7791Z" fill="white"/>
<path d="M17.73 45.5641L27.1905 50.2467L26.3628 51.9189L16.9023 47.2363L17.73 45.5641Z" fill="white"/>
<path d="M19.8793 41.7244L28.9966 47.0444L28.0563 48.656L18.939 43.3359L19.8793 41.7244Z" fill="white"/>
<path d="M32.1773 42.6719C31.7005 43.3065 31.1569 43.7555 30.5464 44.0189C29.9353 44.2775 29.2937 44.3478 28.6217 44.2297C27.9469 44.1096 27.2785 43.8008 26.6164 43.3034C25.9653 42.8142 25.4867 42.2613 25.1807 41.6446C24.874 41.0231 24.7515 40.3852 24.8132 39.731C24.8722 39.0748 25.1287 38.4445 25.5828 37.8401C25.8758 37.4499 26.2156 37.1293 26.602 36.8781C26.9878 36.6221 27.4113 36.4588 27.8724 36.3884C28.3357 36.3153 28.827 36.3535 29.3465 36.503C29.8631 36.6505 30.399 36.9327 30.9539 37.3496L31.4113 37.6933L27.5136 42.8815L26.5081 42.1261L29.3315 38.3678C29.0438 38.1559 28.7432 38.0268 28.4299 37.9805C28.1138 37.9322 27.8096 37.968 27.5175 38.088C27.2274 38.2053 26.975 38.4068 26.7603 38.6925C26.5312 38.9974 26.4042 39.321 26.3792 39.6633C26.3514 40.0034 26.4085 40.3278 26.5505 40.6365C26.6918 40.9404 26.9029 41.2 27.1839 41.4153L28.0616 42.0748C28.4297 42.3513 28.7962 42.5214 29.1611 42.5849C29.5232 42.6464 29.8652 42.6088 30.1869 42.4723C30.5059 42.3338 30.7871 42.1024 31.0307 41.7782C31.1937 41.5612 31.3111 41.3421 31.3828 41.1208C31.4517 40.8975 31.4742 40.6759 31.4503 40.456C31.4264 40.2361 31.35 40.0261 31.2209 39.826L32.424 38.5508C32.726 38.9152 32.9216 39.3243 33.0105 39.7779C33.0988 40.2268 33.0751 40.6989 32.9393 41.1943C32.8007 41.6876 32.5467 42.1801 32.1773 42.6719Z" fill="white"/>
<path d="M33.5497 33.7816L36.7517 37.1381L35.4017 38.426L29.9369 32.6976L31.2272 31.4666L32.1558 32.44L32.223 32.376C32.0488 31.9295 32.0157 31.4743 32.1239 31.0102C32.2345 30.5437 32.5036 30.1065 32.9313 29.6985C33.3266 29.3214 33.7516 29.0774 34.2063 28.9666C34.6634 28.8534 35.1258 28.8801 35.5934 29.0467C36.0634 29.2109 36.5154 29.5229 36.9494 29.9827L40.4289 33.6301L39.0789 34.918L35.7986 31.4795C35.4333 31.0966 35.048 30.8919 34.6428 30.8653C34.24 30.8364 33.8646 30.988 33.5165 31.32C33.2803 31.5454 33.12 31.798 33.0357 32.0779C32.9514 32.353 32.9496 32.6373 33.0302 32.9309C33.1132 33.2221 33.2864 33.5056 33.5497 33.7816Z" fill="white"/>
<path d="M44.9576 30.5726C44.3047 31.018 43.6463 31.257 42.9823 31.2898C42.3212 31.3206 41.692 31.1696 41.0947 30.8366C40.4983 30.4989 39.9745 29.9993 39.5234 29.3379C39.0703 28.6737 38.7982 28.0003 38.7071 27.3179C38.614 26.6327 38.7035 25.9894 38.9754 25.388C39.2482 24.7818 39.704 24.2609 40.3427 23.8252C40.8735 23.4631 41.4101 23.2406 41.9525 23.1576C42.4958 23.0699 43.0105 23.1202 43.4966 23.3085C43.9809 23.494 44.4007 23.8107 44.7562 24.2587L43.2829 25.2637C43.0084 24.9892 42.6874 24.8235 42.3198 24.7664C41.9532 24.7045 41.5839 24.8004 41.2121 25.054C40.897 25.269 40.6783 25.5429 40.556 25.8759C40.4318 26.206 40.4104 26.5741 40.4919 26.9802C40.5763 27.3844 40.7685 27.8064 41.0686 28.2464C41.3726 28.6921 41.6993 29.0308 42.0487 29.2625C42.3961 29.4914 42.7467 29.612 43.1005 29.6245C43.4551 29.6322 43.7928 29.5266 44.1136 29.3078C44.3406 29.1529 44.5146 28.9719 44.6353 28.7647C44.757 28.5528 44.8227 28.3229 44.8324 28.075C44.8422 27.8271 44.7894 27.5698 44.6741 27.3033L46.1474 26.2983C46.4261 26.7862 46.5697 27.2893 46.578 27.8077C46.5844 28.3233 46.4534 28.8203 46.185 29.2987C45.9146 29.7743 45.5054 30.1989 44.9576 30.5726Z" fill="white"/>
<path d="M52.5117 26.3232C51.7921 26.6582 51.101 26.798 50.4385 26.7426C49.7776 26.6826 49.1786 26.4422 48.6415 26.0213C48.103 25.5974 47.659 25.01 47.3095 24.2593C46.9658 23.521 46.8043 22.8078 46.8251 22.1197C46.8475 21.427 47.0401 20.8067 47.4028 20.2588C47.7641 19.7077 48.2874 19.2727 48.9727 18.9536C49.4151 18.7477 49.8658 18.625 50.3251 18.5856C50.786 18.5415 51.2364 18.5972 51.6763 18.7524C52.1194 18.9062 52.5347 19.1715 52.9224 19.5482C53.3085 19.9218 53.6481 20.4232 53.9411 21.0525L54.1825 21.5711L48.2996 24.31L47.7688 23.1699L52.0303 21.1859C51.8764 20.8634 51.6721 20.6078 51.4176 20.4193C51.1616 20.2277 50.8765 20.116 50.5622 20.0841C50.2511 20.0508 49.9335 20.1096 49.6096 20.2604C49.2638 20.4214 48.9992 20.6469 48.8159 20.937C48.631 21.2239 48.5285 21.537 48.5083 21.8761C48.4897 22.2107 48.5536 22.5392 48.6998 22.8615L49.1632 23.8568C49.3575 24.2742 49.6006 24.5969 49.8925 24.8249C50.1829 25.0498 50.5022 25.1778 50.8503 25.2091C51.1969 25.2372 51.554 25.1657 51.9216 24.9946C52.1677 24.88 52.3745 24.7421 52.5419 24.5807C52.708 24.4162 52.8323 24.2314 52.9149 24.0262C52.9975 23.8209 53.029 23.5997 53.0095 23.3624L54.6715 22.8047C54.7662 23.2685 54.7458 23.7214 54.6105 24.1635C54.4768 24.6009 54.2334 25.0061 53.8802 25.379C53.5255 25.7489 53.0693 26.0636 52.5117 26.3232Z" fill="white"/>
<path d="M62.8274 17.917L62.5255 15.8481L61.0387 17.3252L60.2038 16.3805L61.849 15.0868L59.8281 14.5424L60.2253 13.3459L62.1725 14.121L61.6383 12.0996L62.8654 11.8488L63.1723 13.9167L64.6591 12.4396L65.494 13.3843L63.8437 14.679L65.8697 15.2224L65.4725 16.4189L63.5253 15.6437L64.0545 17.6662L62.8274 17.917Z" fill="white"/>
<path fill-rule="evenodd" clip-rule="evenodd" d="M82.2511 65.594C79.5913 68.2876 74.7441 68.2887 72.0833 65.594L70.9923 64.4891L68.8104 66.6989L69.9013 67.8037C71.8367 69.7637 74.5008 70.7426 77.1661 70.7437L63.7047 84.3765L65.8866 86.5862L79.348 72.9534C79.3491 75.6526 80.3157 78.3507 82.2511 80.3107L83.342 81.4155L85.524 79.2058L84.433 78.101C81.7721 75.4062 81.7732 70.4974 84.433 67.8037L85.524 66.6989L83.342 64.4892L82.2511 65.594Z" fill="white"/>
</svg>
